<svg xmlns="http://www.w3.org/2000/svg" xmlns:xlink="http://www.w3.org/1999/xlink" viewBox="0 0 62.82 57.81">
  <defs>
    <style>
      .cls-1 {
        isolation: isolate;
      }

      .cls-2 {
        fill: url(#New_Gradient_Swatch_229);
      }

      .cls-3 {
        fill: #fff;
      }

      .cls-4 {
        fill: url(#New_Gradient_Swatch_109);
      }

      .cls-5 {
        mix-blend-mode: screen;
        fill: url(#linear-gradient);
      }

      .cls-6 {
        fill: url(#linear-gradient-2);
      }

      .cls-7 {
        fill: url(#linear-gradient-3);
      }

      .cls-8 {
        fill: url(#New_Gradient_Swatch_123);
      }

      .cls-9 {
        fill: url(#New_Gradient_Swatch_12);
      }

      .cls-10 {
        fill: url(#New_Gradient_Swatch_12-2);
      }

      .cls-11 {
        fill: url(#linear-gradient-4);
      }

      .cls-12 {
        fill: url(#New_Gradient_Swatch_123-2);
      }

      .cls-13 {
        fill: url(#New_Gradient_Swatch_123-3);
      }

      .cls-14 {
        fill: url(#linear-gradient-5);
      }

      .cls-15 {
        fill: url(#linear-gradient-6);
      }

      .cls-16 {
        fill: url(#linear-gradient-7);
      }

      .cls-17 {
        fill: url(#New_Gradient_Swatch_123-4);
      }

      .cls-18 {
        fill: url(#New_Gradient_Swatch_123-5);
      }

      .cls-19 {
        fill: url(#New_Gradient_Swatch_123-6);
      }

      .cls-20 {
        fill: url(#New_Gradient_Swatch_109-2);
      }

      .cls-21 {
        fill: url(#New_Gradient_Swatch_109-3);
      }

      .cls-22 {
        fill: url(#New_Gradient_Swatch_109-4);
      }

      .cls-23 {
        fill: url(#New_Gradient_Swatch_109-5);
      }
    </style>
    <linearGradient id="New_Gradient_Swatch_229" data-name="New Gradient Swatch 229" x1="31.41" y1="-27.43" x2="31.41" y2="91.12" gradientUnits="userSpaceOnUse">
      <stop offset="0" stop-color="#fff"/>
      <stop offset="0" stop-color="#fefefe"/>
      <stop offset="0.08" stop-color="#d6d6d7"/>
      <stop offset="0.16" stop-color="#b4b5b6"/>
      <stop offset="0.24" stop-color="#9a9b9d"/>
      <stop offset="0.32" stop-color="#88898a"/>
      <stop offset="0.41" stop-color="#7d7e80"/>
      <stop offset="0.5" stop-color="#797a7c"/>
    </linearGradient>
    <radialGradient id="New_Gradient_Swatch_109" data-name="New Gradient Swatch 109" cx="30.31" cy="25.3" r="100.04" gradientTransform="translate(-1.04 -47.94) scale(0.99 0.99)" gradientUnits="userSpaceOnUse">
      <stop offset="0" stop-color="#fff"/>
      <stop offset="0.25" stop-color="#fff"/>
      <stop offset="1" stop-color="#abaaad"/>
    </radialGradient>
    <linearGradient id="linear-gradient" x1="30.78" y1="-67.23" x2="31.78" y2="66.77" gradientUnits="userSpaceOnUse">
      <stop offset="0" stop-color="#fff"/>
      <stop offset="1"/>
    </linearGradient>
    <linearGradient id="linear-gradient-2" x1="31.87" y1="7.85" x2="31.87" y2="88.99" gradientUnits="userSpaceOnUse">
      <stop offset="0" stop-color="#fff"/>
      <stop offset="0.16" stop-color="#f9f9f9"/>
      <stop offset="0.38" stop-color="#e9e9e9"/>
      <stop offset="0.62" stop-color="#cecece"/>
      <stop offset="0.87" stop-color="#a9a9a9"/>
      <stop offset="1" stop-color="#949494"/>
    </linearGradient>
    <linearGradient id="linear-gradient-3" x1="45.99" y1="9.76" x2="-82.91" y2="29.74" gradientTransform="matrix(1, 0, 0, 1, 0, 0)" xlink:href="#New_Gradient_Swatch_109"/>
    <radialGradient id="New_Gradient_Swatch_123" data-name="New Gradient Swatch 123" cx="21.91" cy="1957.65" r="92.45" gradientTransform="translate(8.9 -1266.21) scale(1.09 0.64)" gradientUnits="userSpaceOnUse">
      <stop offset="0" stop-color="#fff"/>
      <stop offset="0.54" stop-color="#777"/>
      <stop offset="1"/>
    </radialGradient>
    <radialGradient id="New_Gradient_Swatch_12" data-name="New Gradient Swatch 12" cx="29.55" cy="-36.22" r="107.39" gradientUnits="userSpaceOnUse">
      <stop offset="0" stop-color="#fff"/>
      <stop offset="0.01" stop-color="#f8f8f9"/>
      <stop offset="0.06" stop-color="#e2e3e5"/>
      <stop offset="0.1" stop-color="#d5d5d8"/>
      <stop offset="0.14" stop-color="#d0d1d4"/>
      <stop offset="0.16" stop-color="#c8cacd"/>
      <stop offset="0.24" stop-color="#aeb1b5"/>
      <stop offset="0.32" stop-color="#9ea2a6"/>
      <stop offset="0.37" stop-color="#989da1"/>
      <stop offset="0.53" stop-color="#74777a"/>
      <stop offset="0.69" stop-color="#525455"/>
      <stop offset="0.78" stop-color="#454647"/>
      <stop offset="0.83" stop-color="#3e3f40"/>
      <stop offset="0.9" stop-color="#2a2b2b"/>
      <stop offset="0.98" stop-color="#0a0a0a"/>
      <stop offset="1"/>
    </radialGradient>
    <radialGradient id="New_Gradient_Swatch_12-2" cx="33.07" cy="787.22" r="101.09" gradientTransform="translate(0 -664.19) scale(1 0.81)" xlink:href="#New_Gradient_Swatch_12"/>
    <linearGradient id="linear-gradient-4" x1="31.66" y1="41.88" x2="31.66" y2="44.49" gradientTransform="matrix(1, 0, 0, 1, 0, 0)" xlink:href="#New_Gradient_Swatch_109"/>
    <radialGradient id="New_Gradient_Swatch_123-2" cx="-20.1" cy="-5.19" r="31.02" gradientTransform="translate(55.37 0) scale(1.25 1)" xlink:href="#New_Gradient_Swatch_123"/>
    <radialGradient id="New_Gradient_Swatch_123-3" cx="-33.17" cy="-5.19" r="31.02" gradientTransform="translate(81.23 0) scale(1.33 1)" xlink:href="#New_Gradient_Swatch_123"/>
    <linearGradient id="linear-gradient-5" x1="31.66" y1="48.42" x2="31.66" y2="51.04" gradientTransform="matrix(1, 0, 0, 1, 0, 0)" xlink:href="#New_Gradient_Swatch_109"/>
    <linearGradient id="linear-gradient-6" x1="31.66" y1="19.65" x2="31.66" y2="22.27" gradientTransform="matrix(1, 0, 0, 1, 0, 0)" xlink:href="#New_Gradient_Swatch_109"/>
    <linearGradient id="linear-gradient-7" x1="31.66" y1="26.19" x2="31.66" y2="28.81" gradientTransform="matrix(1, 0, 0, 1, 0, 0)" xlink:href="#New_Gradient_Swatch_109"/>
    <radialGradient id="New_Gradient_Swatch_123-4" cx="30.89" cy="1.09" r="57.69" gradientTransform="matrix(1, 0, 0, 1, 0, 0)" xlink:href="#New_Gradient_Swatch_123"/>
    <radialGradient id="New_Gradient_Swatch_123-5" cx="31.22" cy="-15.49" r="29.01" gradientTransform="matrix(1, 0, 0, 1, 0, 0)" xlink:href="#New_Gradient_Swatch_123"/>
    <radialGradient id="New_Gradient_Swatch_123-6" cx="32.75" cy="-22.47" r="27.69" gradientTransform="matrix(1, 0, 0, 1, 0, 0)" xlink:href="#New_Gradient_Swatch_123"/>
    <radialGradient id="New_Gradient_Swatch_109-2" cx="28.41" cy="1191.6" r="9.56" gradientTransform="translate(0 -886.9) scale(1 0.75)" xlink:href="#New_Gradient_Swatch_109"/>
    <radialGradient id="New_Gradient_Swatch_109-3" cx="32.33" cy="4.5" r="9.56" gradientTransform="matrix(1, 0, 0, 1, 0, 0)" xlink:href="#New_Gradient_Swatch_109"/>
    <radialGradient id="New_Gradient_Swatch_109-4" cx="36.26" cy="4.5" r="9.56" gradientTransform="matrix(1, 0, 0, 1, 0, 0)" xlink:href="#New_Gradient_Swatch_109"/>
    <radialGradient id="New_Gradient_Swatch_109-5" cx="40.19" cy="4.5" r="9.56" gradientTransform="matrix(1, 0, 0, 1, 0, 0)" xlink:href="#New_Gradient_Swatch_109"/>
  </defs>
  <title>briefcase_metal</title>
  <g class="cls-1">
    <g id="Layer_1" data-name="Layer 1">
      <g>
        <path class="cls-2" d="M6.22,9.24H55c3.93,0,7.85,1.83,7.85,7V52.62c0,3.89-1.31,5.19-7.85,5.19H5.23C0,57.81,0,55.21,0,51.32v-35C0,13.67,2.29,9.24,6.22,9.24Z" transform="translate(0 0)"/>
        <path class="cls-3" d="M4.06,14.61l55.39-.05c2.31,0,2.48,1.13,2.48,3.82V54c0,2.69-2.42,2.58-6.61,2.58l-48.61.11c-4.74,0-5.62-.64-5.62-5.37V18.17C1.09,15.37,2.08,14.61,4.06,14.61Z" transform="translate(0 0)"/>
        <path class="cls-4" d="M5.57,16.06L58,16c2.19,0,2.35,1.09,2.35,3.69V54.13c0,2.6-2.37,2.57-6.34,2.57l-46,.1c-4.48,0-5.24-.7-5.24-5.28v-32C2.75,16.78,3.69,16.06,5.57,16.06Z" transform="translate(0 0)"/>
        <path class="cls-5" d="M5.57,16.06L58,16c2.19,0,2.35,1.09,2.35,3.69V54.13c0,2.6-2.37,2.57-6.34,2.57l-46,.1c-4.48,0-5.24-.7-5.24-5.28v-32C2.75,16.78,3.69,16.06,5.57,16.06Z" transform="translate(0 0)"/>
        <path class="cls-6" d="M2,14A7,7,0,0,1,4.27,11c1.37-.76,2.62-0.54,6.62-0.54l45.51,0.11c2.51,0,3.88.44,4.45,1.2a7.88,7.88,0,0,1,.91,2.4Z" transform="translate(0 0)"/>
        <path class="cls-7" d="M3,12.81a5.14,5.14,0,0,1,2.48-2c1.2-.31,2.51-0.38,6.32-0.38l43.52,0.08c2.4,0,3.71.31,4.25,0.84A1.85,1.85,0,0,1,60,12.81H3Z" transform="translate(0 0)"/>
        <polygon class="cls-8" points="48.01 12.83 15.73 12.83 16.92 11.36 47.18 11.36 48.01 12.83"/>
        <rect class="cls-9" x="51.09" y="10.75" width="4.86" height="1.74"/>
        <rect class="cls-10" x="8.31" y="11.33" width="4.25" height="1.33"/>
        <polygon class="cls-3" points="60.14 20.88 3.17 20.88 3.17 19.58 60.14 19.58 60.14 20.88 60.14 20.88"/>
        <rect class="cls-11" x="2.65" y="41.77" width="58.02" height="2.62"/>
        <rect class="cls-12" x="39" y="10.81" width="5" height="3"/>
        <rect class="cls-13" x="21" y="10.81" width="4" height="3"/>
        <rect class="cls-14" x="2.65" y="48.42" width="58.02" height="2.62"/>
        <rect class="cls-15" x="2.65" y="19.54" width="58.02" height="2.62"/>
        <rect class="cls-16" x="2.65" y="26.19" width="58.02" height="2.62"/>
        <path class="cls-17" d="M45,13V4.24c0-1.38-.66-3-2.09-3H22.21a3.49,3.49,0,0,0-3.1,3V13s0,0.06,0,.1h2.06V6.56a2.08,2.08,0,0,1,2.16-2H40.51a2.07,2.07,0,0,1,2.16,2v6.52h2.28S45,13,45,13Z" transform="translate(0 0)"/>
        <path class="cls-18" d="M45,13V4.24a2.55,2.55,0,0,0-2.59-2.5H21.71a2.55,2.55,0,0,0-2.6,2.5V13s0,0.06,0,.1h3.07V6.56c0-1.09,0-2.56,1.15-2.56H40.51c1.19,0,1.39,1.46,1.39,2.56v6.52h3S45,13,45,13Z" transform="translate(0 0)"/>
        <path class="cls-19" d="M19.11,13V4.24a2.55,2.55,0,0,1,2.6-2.5H42.37A2.55,2.55,0,0,1,45,4.24V13s0,0.06,0,.1h0.86a2,2,0,0,0,0-.22V3.71C45.83,2.26,44.08,0,42.56,0H21.78c-1.52,0-3.43,2.26-3.43,3.71v9.16c0,0.08,0,.15,0,0.22h0.75S19.11,13,19.11,13Z" transform="translate(0 0)"/>
        <rect class="cls-20" x="24.89" y="11.28" width="1.06" height="1.84"/>
        <rect class="cls-21" x="28.82" y="10.47" width="1.06" height="2.45"/>
        <rect class="cls-22" x="32.74" y="10.47" width="1.06" height="2.45"/>
        <rect class="cls-23" x="36.67" y="10.47" width="1.06" height="2.45"/>
      </g>
    </g>
  </g>
</svg>
