<?xml version="1.0" encoding="UTF-8" standalone="no"?>
<!-- Generator: Adobe Illustrator 19.2.0, SVG Export Plug-In . SVG Version: 6.00 Build 0)  -->

<svg
   xmlns:dc="http://purl.org/dc/elements/1.1/"
   xmlns:cc="http://creativecommons.org/ns#"
   xmlns:rdf="http://www.w3.org/1999/02/22-rdf-syntax-ns#"
   xmlns:svg="http://www.w3.org/2000/svg"
   xmlns="http://www.w3.org/2000/svg"
   xmlns:sodipodi="http://sodipodi.sourceforge.net/DTD/sodipodi-0.dtd"
   xmlns:inkscape="http://www.inkscape.org/namespaces/inkscape"
   version="1.1"
   id="Layer_1"
   x="0px"
   y="0px"
   viewBox="0 0 1040 1616"
   xml:space="preserve"
   inkscape:version="0.91 r13725"
   sodipodi:docname="Chevron.svg"
   width="1040"
   height="1616"><metadata
     id="metadata11"><rdf:RDF><cc:Work
         rdf:about=""><dc:format>image/svg+xml</dc:format><dc:type
           rdf:resource="http://purl.org/dc/dcmitype/StillImage" /><dc:title></dc:title></cc:Work></rdf:RDF></metadata><defs
     id="defs9" /><sodipodi:namedview
     pagecolor="#ffffff"
     bordercolor="#666666"
     borderopacity="1"
     objecttolerance="10"
     gridtolerance="10"
     guidetolerance="10"
     inkscape:pageopacity="0"
     inkscape:pageshadow="2"
     inkscape:window-width="1440"
     inkscape:window-height="781"
     id="namedview7"
     showgrid="false"
     fit-margin-top="2"
     fit-margin-left="2"
     fit-margin-right="2"
     fit-margin-bottom="2"
     inkscape:zoom="0.37249375"
     inkscape:cx="160.65092"
     inkscape:cy="774.07211"
     inkscape:window-x="0"
     inkscape:window-y="1"
     inkscape:window-maximized="1"
     inkscape:current-layer="Layer_1" /><style
     type="text/css"
     id="style3">
	.st0{fill:#CECECE;}
</style><path
     class="st0"
     d="m 1019,853 -742,742 c -12.7,12.7 -27.7,19 -45,19 -17.3,0 -32.3,-6.3 -45,-19 L 21,1429 C 8.3,1416.3 2,1401.3 2,1384 c 0,-17.3 6.3,-32.3 19,-45 L 552,808 21,277 C 8.3,264.3 2,249.3 2,232 2,214.7 8.3,199.7 21,187 L 187,21 C 199.7,8.3 214.7,2 232,2 c 17.3,0 32.3,6.3 45,19 l 742,742 c 12.7,12.7 19,27.7 19,45 0,17.3 -6.3,32.3 -19,45 z"
     id="path5"
     inkscape:connector-curvature="0"
     style="fill:#cecece" /></svg>