<?xml version="1.0" encoding="utf-8"?>
<!-- Generator: Adobe Illustrator 19.2.0, SVG Export Plug-In . SVG Version: 6.00 Build 0)  -->
<svg version="1.1" id="Layer_1" xmlns="http://www.w3.org/2000/svg" xmlns:xlink="http://www.w3.org/1999/xlink" x="0px" y="0px"
	 viewBox="0 0 23.938 23.937" enable-background="new 0 0 23.938 23.937" xml:space="preserve">
<g>
	<g>
		<g>
			<path fill="#414042" d="M11.969,23.937C5.369,23.937,0,18.566,0,11.967C0,5.368,5.369,0,11.969,0
				c6.6,0,11.969,5.368,11.969,11.967C23.937,18.566,18.568,23.937,11.969,23.937z M11.969,1.807
				c-5.604,0-10.162,4.559-10.162,10.16c0,5.603,4.559,10.162,10.162,10.162c5.604,0,10.162-4.559,10.162-10.162
				C22.131,6.365,17.572,1.807,11.969,1.807z"/>
		</g>
		<path fill="#414042" d="M18.238,18.268c-0.674,0.674-1.806,0.638-2.53-0.085L5.786,8.26C5.063,7.536,5.026,6.404,5.7,5.73l0,0
			c0.674-0.674,1.806-0.637,2.53,0.085l9.923,9.923C18.875,16.462,18.912,17.594,18.238,18.268L18.238,18.268z"/>
		<path fill="#414042" d="M5.7,18.268c-0.676-0.676-0.637-1.806,0.085-2.53l9.923-9.923c0.724-0.72,1.854-0.759,2.53-0.085l0,0
			c0.674,0.676,0.638,1.808-0.085,2.53L8.23,18.183C7.506,18.905,6.374,18.942,5.7,18.268L5.7,18.268z"/>
	</g>
</g>
</svg>
