<?xml version="1.0" encoding="utf-8"?>
<!-- Generator: Adobe Illustrator 19.2.0, SVG Export Plug-In . SVG Version: 6.00 Build 0)  -->
<svg version="1.1" id="Layer_1" xmlns="http://www.w3.org/2000/svg" xmlns:xlink="http://www.w3.org/1999/xlink" x="0px" y="0px"
	 viewBox="0 0 23.9 23.9" style="enable-background:new 0 0 23.9 23.9;" xml:space="preserve">
<style type="text/css">
	.st0{fill:#CECECE;}
</style>
<g>
	<g>
		<g>
			<path class="st0" d="M12,23.9c-6.6,0-12-5.4-12-12S5.4,0,12,0s12,5.4,12,12C23.9,18.6,18.6,23.9,12,23.9z M12,1.8
				C6.4,1.8,1.8,6.4,1.8,12c0,5.6,4.6,10.2,10.2,10.2c5.6,0,10.2-4.6,10.2-10.2C22.1,6.4,17.6,1.8,12,1.8z"/>
		</g>
		<path class="st0" d="M18.2,18.3c-0.7,0.7-1.8,0.6-2.5-0.1L5.8,8.3C5.1,7.5,5,6.4,5.7,5.7l0,0c0.7-0.7,1.8-0.6,2.5,0.1l9.9,9.9
			C18.9,16.5,18.9,17.6,18.2,18.3L18.2,18.3z"/>
		<path class="st0" d="M5.7,18.3c-0.7-0.7-0.6-1.8,0.1-2.5l9.9-9.9c0.7-0.7,1.9-0.8,2.5-0.1l0,0c0.7,0.7,0.6,1.8-0.1,2.5l-9.9,9.9
			C7.5,18.9,6.4,18.9,5.7,18.3L5.7,18.3z"/>
	</g>
</g>
</svg>
