<svg xmlns="http://www.w3.org/2000/svg" id="Layer_1" viewBox="0 0 211.342 196.242" width="211.342" height="196.242"><style id="style3">.st0{fill:url(#SVGID_1_)}.st1{fill:url(#SVGID_2_)}.st2{fill:none;stroke:#003b86;stroke-width:2.742;stroke-miterlimit:10}.st3{fill:#fff}.st4{fill:#003b86}</style><g id="Layer_2" transform="translate(-6.429 -5.929)"><g id="g7"><g id="g9"><linearGradient id="SVGID_1_" gradientUnits="userSpaceOnUse" x1="112.1" y1="3.184" x2="112.1" y2="199.74" gradientTransform="matrix(1 0 0 -1 0 206)"><stop offset="0" id="stop12" stop-color="#cdcdcd"/><stop offset=".364" id="stop14" stop-color="#fafafa"/><stop offset="1" id="stop16" stop-color="#ddd"/></linearGradient><path class="st0" d="M210.8 200.8H13.4c-3.1 0-5.6-2.5-5.6-5.6V12.9c0-3.1 2.5-5.6 5.6-5.6h197.4c3.1 0 5.6 2.5 5.6 5.6v182.3c0 3.1-2.5 5.6-5.6 5.6z" id="path18" fill="url(#SVGID_1_)"/><linearGradient id="SVGID_2_" gradientUnits="userSpaceOnUse" x1="120.083" y1="-11.802" x2="106.659" y2="116.675" gradientTransform="matrix(1 0 0 -1 0 206)"><stop offset="0" id="stop21" stop-color="#e6e6e6"/><stop offset=".533" id="stop23" stop-color="#ddd"/><stop offset=".739" id="stop25" stop-color="#d3d3d3"/><stop offset="1" id="stop27" stop-color="silver"/></linearGradient><path class="st1" d="M7.8 117.7v77.5c0 3.1 2.5 5.6 5.6 5.6h197.4c3.1 0 5.6-2.5 5.6-5.6V87.3c-69.6 7.4-136.8 16.5-208.6 30.4z" id="path29" fill="url(#SVGID_2_)"/><path class="st2" d="M210.8 200.8H13.4c-3.1 0-5.6-2.5-5.6-5.6V12.9c0-3.1 2.5-5.6 5.6-5.6h197.4c3.1 0 5.6 2.5 5.6 5.6v182.3c0 3.1-2.5 5.6-5.6 5.6z" id="path31" fill="none" stroke="#003b86" stroke-width="2.742" stroke-miterlimit="10"/></g><g id="g33"><g id="g35"><g id="g37"><path class="st3" d="M118.5 28.6h-12.8c-.2 0-.3-.1-.4-.2l-2.9-3.8c-.4-.5-.4-1.1-.2-1.6.2-.4.5-.6.9-.6h17.4c.6 0 1.1.3 1.3.7.2.4.2 1-.1 1.4l-2.9 3.8c0 .3-.2.3-.3.3z" id="path39" fill="#fff"/><path class="st4" d="M120.6 23c.8 0 1.1.8.8 1.3-1 1.3-2.3 3.1-2.9 3.8-.1 0-.3-.1-.4-.1h-12c-.1 0-.3 0-.4.1-.6-.7-1.8-2.5-2.9-3.8-.4-.5-.3-1.3.3-1.3h17.5zm0-1h-17.4c-.6 0-1.1.3-1.4.8-.3.6-.2 1.5.3 2.1l2 2.7.8 1.1c.2.3.5.4.8.4h12.8c.3 0 .6-.1.8-.4l1.8-2.4 1-1.4c.4-.6.5-1.3.2-1.9-.3-.6-.9-1-1.7-1z" id="path41" fill="#003b86"/></g><g id="g43"><path class="st3" d="M112.1 57.8c-10.1 0-18.3-6.3-18.3-14 0-2.6.9-5.1 2.7-7.3.2-.2.4-.5.6-.7 2.1-2.3 4.9-4 8.3-5h.4l.1.1h12.3c.1 0 .3 0 .4-.1h.4c3.3 1 6.2 2.8 8.3 5 1.1 1.2 1.9 2.5 2.5 3.9.5 1.3.8 2.7.8 4.2-.2 7.6-8.4 13.9-18.5 13.9z" id="path45" fill="#fff"/><path class="st4" d="M105.5 31.2c.1 0 .1 0 .2.1h.1c.1 0 .3.1.4.1h12c.2 0 .4-.1.6-.1 3.2 1 6 2.7 8 4.9 1.1 1.2 1.9 2.4 2.4 3.7.5 1.3.8 2.6.8 4 0 7.5-8 13.5-17.8 13.5s-17.8-6.1-17.8-13.5c0-2.5.9-4.9 2.6-7 .2-.2.4-.5.6-.7 1.9-2.3 4.6-4 7.9-5zm0-1h-.3c-3.4 1-6.4 2.8-8.5 5.2-.2.2-.4.4-.6.8-1.8 2.3-2.8 4.9-2.8 7.6 0 8 8.5 14.6 18.8 14.6 10.4 0 18.8-6.5 18.8-14.6 0-1.5-.3-2.9-.9-4.3-.6-1.4-1.5-2.8-2.6-4-2.1-2.3-5.1-4.1-8.5-5.2h-.3c-.1 0-.3 0-.4.1-.1 0-.1.1-.2.1h-12.2c0-.3-.2-.3-.3-.3z" id="path47" fill="#003b86"/></g><g id="g49"><g id="g51"><path class="st4" d="M110.9 52.3c-.1 0-.3-.1-.3-.3v-.9c-3.8-.4-6.5-2.1-6.5-4.3 0-.1 0-.1.1-.2 0 0 .1-.1.2-.1h2.8c.1 0 .3.1.3.3 0 .6 1.2 1.4 3.2 1.7v-3.6c-2.2-.2-4.2-.9-5.4-2-.7-.7-1.1-1.5-1.1-2.3 0-2.2 2.6-4 6.4-4.4v-.8c0-.1 0-.1.1-.2 0 0 .1-.1.2-.1h2.6c.1 0 .3.1.3.3v.8c3.8.4 6.5 2.1 6.5 4.3 0 .1 0 .1-.1.2 0 0-.1.1-.2.1h-2.8c-.1 0-.3-.1-.3-.3 0-.6-1.2-1.4-3.2-1.7v3.6c1.7.2 3.3.6 4.4 1.3 1.3.8 2.1 1.8 2.1 3 0 2.2-2.6 4-6.4 4.4v.9c0 .1 0 .1-.1.2 0 0-.1.1-.2.1h-2.6zm2.8-3.8c2-.3 3.2-1.1 3.2-1.7 0-.6-1.2-1.4-3.2-1.7v3.4zm-3.2-9.6c-2 .3-3.2 1.1-3.2 1.7 0 .2.1.4.4.6.6.5 1.6.9 2.8 1v-3.3z" id="path53" fill="#003b86"/><path class="st4" d="M113.3 35.3v1.1c3.7.3 6.5 2 6.5 4.1H117c0-.8-1.5-1.7-3.7-2v4.1c1.8.1 3.4.6 4.6 1.3 1.2.7 1.9 1.7 1.9 2.8 0 2.1-2.7 3.8-6.4 4.2v1.2h-2.6v-1.2c-3.7-.3-6.5-2-6.5-4.1h2.7c0 .8 1.5 1.7 3.7 2v-4.1c-2.3-.2-4.3-.9-5.4-2-.7-.6-1.1-1.3-1.1-2.1 0-2.1 2.7-3.8 6.4-4.2v-1.1h2.7zm-2.5 7.2v-4c-2.2.3-3.7 1.2-3.7 2 0 .3.2.5.5.8.5.6 1.7 1.1 3.2 1.2zm2.6 6.2c2.2-.3 3.7-1.2 3.7-2s-1.5-1.7-3.7-2v4zm-.1-13.9h-2.6c-.3 0-.5.2-.5.5v.6c-3.8.5-6.5 2.4-6.4 4.6 0 .9.4 1.8 1.2 2.5 1.2 1.1 3.1 1.8 5.3 2v3c-1.8-.3-2.7-1-2.7-1.4 0-.1-.1-.3-.2-.4-.1-.1-.2-.1-.4-.1h-2.7c-.1 0-.3.1-.4.2-.1.1-.1.2-.1.4 0 2.3 2.7 4.1 6.5 4.5v.7c0 .1.1.3.2.4.1.1.2.1.4.1h2.6c.1 0 .3-.1.4-.2.1-.1.1-.2.1-.4v-.7c3.8-.5 6.5-2.4 6.4-4.6 0-1.2-.8-2.4-2.2-3.2-1.2-.7-2.6-1.2-4.3-1.3v-3c1.8.3 2.7 1 2.7 1.4 0 .3.2.5.5.5h2.8c.3 0 .5-.2.5-.5 0-2.3-2.7-4.1-6.5-4.5v-.6c0-.3-.3-.5-.6-.5zm-3 7.1c-1-.2-1.9-.5-2.4-.9-.2-.2-.3-.3-.3-.4 0-.4.9-1.1 2.7-1.4v2.7zm3.7 6.2v-2.8c1.8.3 2.7 1 2.7 1.4-.1.4-1 1.1-2.7 1.4z" id="path55" fill="#003b86"/></g></g><g id="g57"><path class="st3" d="M106.1 31.1c-.1 0-.2 0-.3-.1-.6-.2-1-.7-1-1.3 0-.8.6-1.4 1.3-1.4h12c.1 0 .2 0 .4.1.6.2.9.7.9 1.3 0 .8-.6 1.4-1.3 1.4h-12z" id="path59" fill="#fff"/><path class="st4" d="M118.1 28.9h.2c.3.1.5.4.5.8 0 .5-.4.8-.8.8h-12.2c-.3-.1-.6-.4-.6-.8 0-.5.4-.9.8-.9h12.1v.1zm0-1.1h-12c-1 0-1.8.8-1.8 1.9 0 .8.5 1.5 1.3 1.8h.1c.2 0 .3.1.5.1h12c1 0 1.8-.8 1.8-1.9 0-.8-.5-1.5-1.2-1.8h-.1c-.3 0-.4-.1-.6-.1z" id="path61" fill="#003b86"/></g></g><g id="g63"><g id="g65"><path class="st3" d="M118.5 92.6h-12.8c-.2 0-.3-.1-.4-.2l-2.9-3.8c-.4-.5-.4-1.1-.2-1.6.2-.4.5-.6.9-.6h17.4c.6 0 1.1.3 1.3.7.2.4.2 1-.1 1.4l-2.9 3.8c0 .2-.2.3-.3.3z" id="path67" fill="#fff"/><path class="st4" d="M120.6 86.9c.8 0 1.1.8.8 1.3-1 1.3-2.3 3.1-2.9 3.8-.1 0-.3-.1-.4-.1h-12c-.1 0-.3 0-.4.1-.6-.7-1.8-2.5-2.9-3.8-.4-.5-.3-1.3.3-1.3h17.5zm0-1h-17.4c-.6 0-1.1.3-1.4.8-.3.6-.2 1.5.3 2.1l2 2.7.8 1.1c.2.3.5.4.8.4h12.8c.3 0 .6-.1.8-.4l1.8-2.4 1-1.4c.4-.6.5-1.3.2-1.9-.3-.6-.9-1-1.7-1z" id="path69" fill="#003b86"/></g><g id="g71"><path class="st3" d="M112.1 121.7c-10.1 0-18.3-6.3-18.3-14 0-2.6.9-5.1 2.7-7.3.2-.2.4-.5.6-.7 2.1-2.3 4.9-4 8.3-5h.4l.1.1h12.3c.1 0 .3 0 .4-.1h.4c3.3 1 6.2 2.8 8.3 5 1.1 1.2 1.9 2.5 2.5 3.9.5 1.3.8 2.7.8 4.1-.2 7.7-8.4 14-18.5 14z" id="path73" fill="#fff"/><path class="st4" d="M105.5 95.1c.1 0 .1 0 .2.1h.1c.1 0 .3.1.4.1h12c.2 0 .4-.1.6-.1 3.2 1 6 2.7 8 4.9 1.1 1.2 1.9 2.4 2.4 3.7.5 1.3.8 2.6.8 4 0 7.5-8 13.5-17.8 13.5s-17.8-6.1-17.8-13.5c0-2.5.9-4.9 2.6-7 .2-.2.4-.5.6-.7 1.9-2.3 4.6-4 7.9-5zm0-1h-.3c-3.4 1-6.4 2.8-8.5 5.2-.2.2-.4.4-.6.8-1.8 2.3-2.8 4.9-2.8 7.6 0 8 8.5 14.6 18.8 14.6 10.4 0 18.8-6.5 18.8-14.6 0-1.5-.3-2.9-.9-4.3-.6-1.4-1.5-2.8-2.6-4-2.1-2.3-5.1-4.1-8.5-5.2h-.3c-.1 0-.3 0-.4.1-.1 0-.1.1-.2.1h-12.2c0-.3-.2-.3-.3-.3z" id="path75" fill="#003b86"/></g><g id="g77"><g id="g79"><path class="st4" d="M110.9 116.2c-.1 0-.3-.1-.3-.3v-.9c-3.8-.4-6.5-2.1-6.5-4.3 0-.1 0-.1.1-.2 0 0 .1-.1.2-.1h2.8c.1 0 .3.1.3.3 0 .6 1.2 1.4 3.2 1.7v-3.6c-2.2-.2-4.2-.9-5.4-2-.7-.7-1.1-1.5-1.1-2.3 0-2.2 2.6-4 6.4-4.4v-.8c0-.1 0-.1.1-.2 0 0 .1-.1.2-.1h2.6c.1 0 .3.1.3.3v.8c3.8.4 6.5 2.1 6.5 4.3 0 .1 0 .1-.1.2 0 0-.1.1-.2.1h-2.8c-.1 0-.1 0-.2-.1 0 0-.1-.1-.1-.2 0-.6-1.2-1.4-3.2-1.7v3.6c1.7.2 3.3.6 4.4 1.3 1.3.8 2.1 1.8 2.1 3 0 2.2-2.6 4-6.4 4.4v.9c0 .1 0 .1-.1.2 0 0-.1.1-.2.1h-2.6zm2.8-3.8c2-.3 3.2-1.1 3.2-1.7 0-.6-1.2-1.4-3.2-1.7v3.4zm-3.2-9.6c-2 .3-3.2 1.1-3.2 1.7 0 .2.1.4.4.6.6.5 1.6.9 2.8 1v-3.3z" id="path81" fill="#003b86"/><path class="st4" d="M113.3 99.2v1.1c3.7.3 6.5 2 6.5 4.1H117c0-.8-1.5-1.7-3.7-2v4.1c1.8.1 3.4.6 4.6 1.3 1.2.7 1.9 1.7 1.9 2.8 0 2.1-2.7 3.8-6.4 4.2v1.2h-2.6v-1.2c-3.7-.3-6.5-2-6.5-4.1h2.7c0 .8 1.5 1.7 3.7 2v-4.1c-2.3-.2-4.3-.9-5.4-2-.7-.6-1.1-1.3-1.1-2.1 0-2.1 2.7-3.8 6.4-4.2v-1.1h2.7zm-2.5 7.2v-4c-2.2.3-3.7 1.2-3.7 2 0 .3.2.5.5.8.5.6 1.7 1.1 3.2 1.2zm2.6 6.3c2.2-.3 3.7-1.2 3.7-2s-1.5-1.7-3.7-2v4zm-.1-14h-2.6c-.3 0-.5.2-.5.5v.6c-3.8.5-6.5 2.4-6.4 4.6 0 .9.4 1.8 1.2 2.5 1.2 1.1 3.1 1.8 5.3 2v3c-1.8-.3-2.7-1-2.7-1.4 0-.1-.1-.3-.2-.4-.1-.1-.2-.1-.4-.1h-2.7c-.1 0-.3.1-.4.2-.1.1-.1.2-.1.4 0 2.3 2.7 4.1 6.5 4.5v.7c0 .1.1.3.2.4.1.1.2.1.4.1h2.6c.1 0 .3-.1.4-.2.1-.1.1-.2.1-.4v-.7c3.8-.5 6.5-2.4 6.4-4.6 0-1.2-.8-2.4-2.2-3.2-1.2-.7-2.6-1.2-4.3-1.3v-3c1.8.3 2.7 1 2.7 1.4 0 .3.2.5.5.5h2.8c.3 0 .5-.2.5-.5 0-2.3-2.7-4.1-6.5-4.5v-.6c0-.2-.3-.5-.6-.5zm-3 7.2c-1-.2-1.9-.5-2.4-.9-.2-.2-.3-.3-.3-.4 0-.4.9-1.1 2.7-1.4v2.7zm3.7 6.2v-2.8c1.8.3 2.7 1 2.7 1.4-.1.3-1 1-2.7 1.4z" id="path83" fill="#003b86"/></g></g><g id="g85"><path class="st3" d="M106.1 95c-.1 0-.2 0-.3-.1-.6-.2-1-.7-1-1.3 0-.8.6-1.4 1.3-1.4h12c.1 0 .3 0 .4.1.6.2.9.7.9 1.3 0 .8-.6 1.4-1.3 1.4h-12z" id="path87" fill="#fff"/><path class="st4" d="M118.1 92.8h.2c.3.1.5.4.5.8 0 .5-.4.8-.8.8h-12.2c-.3-.1-.6-.4-.6-.8 0-.5.4-.9.8-.9l12.1.1zm0-1.1h-12c-1 0-1.8.8-1.8 1.9 0 .8.5 1.5 1.3 1.8h.1c.2 0 .3.1.5.1h12c1 0 1.8-.8 1.8-1.9 0-.8-.5-1.5-1.2-1.8h-.1c-.3 0-.4-.1-.6-.1z" id="path89" fill="#003b86"/></g></g><g id="g91"><g id="g93"><path class="st3" d="M118.5 156.5h-12.8c-.2 0-.3-.1-.4-.2l-2.8-3.8c-.4-.5-.4-1.1-.2-1.6.2-.4.5-.6.9-.6h17.4c.6 0 1.1.3 1.3.7.2.4.2 1-.1 1.4l-2.9 3.8c-.1.2-.3.3-.4.3z" id="path95" fill="#fff"/><path class="st4" d="M120.6 150.8c.8 0 1.1.8.8 1.3-1 1.3-2.3 3.1-2.9 3.8-.1 0-.3-.1-.4-.1h-12c-.1 0-.3 0-.4.1-.6-.7-1.8-2.5-2.9-3.8-.4-.5-.3-1.3.3-1.3h17.5zm0-1h-17.4c-.6 0-1.1.3-1.4.8-.3.6-.2 1.5.3 2.1l2 2.7.8 1.1c.2.3.5.4.8.4h12.8c.3 0 .6-.1.8-.4l2-2.7.9-1.1c.4-.6.5-1.3.2-1.9-.4-.6-1-1-1.8-1z" id="path97" fill="#003b86"/></g><g id="g99"><path class="st3" d="M112.1 185.6c-10.1 0-18.3-6.3-18.3-14 0-2.6.9-5.1 2.7-7.3.2-.2.4-.5.6-.7 2.1-2.3 4.9-4 8.3-5h.4l-.1.5.2-.5c.1 0 .2.1.3.1h12c.1 0 .3 0 .4-.1h.4c3.3 1 6.2 2.8 8.3 5 1.1 1.2 1.9 2.5 2.5 3.9.5 1.3.8 2.7.8 4.1-.2 7.7-8.4 14-18.5 14z" id="path101" fill="#fff"/><path class="st4" d="M105.5 159c.1 0 .1 0 .2.1h.1c.1 0 .3.1.4.1h12c.2 0 .4-.1.6-.1 3.2 1 6 2.7 8 4.9 1.1 1.2 1.9 2.4 2.4 3.7.5 1.3.8 2.6.8 4 0 7.5-8 13.5-17.8 13.5s-17.8-6.1-17.8-13.5c0-2.5.9-4.9 2.6-7 .2-.2.4-.5.6-.7 1.9-2.3 4.6-4 7.9-5zm0-1h-.3c-3.4 1-6.4 2.8-8.5 5.2-.2.2-.4.4-.6.8-1.8 2.3-2.8 4.9-2.8 7.6 0 8 8.5 14.6 18.8 14.6 10.4 0 18.8-6.5 18.8-14.6 0-1.5-.3-2.9-.9-4.3-.6-1.4-1.5-2.8-2.6-4-2.1-2.3-5.1-4.1-8.5-5.2h-.3c-.1 0-.3 0-.4.1-.1 0-.1.1-.2.1h-12.2c0-.3-.2-.3-.3-.3z" id="path103" fill="#003b86"/></g><g id="g105"><g id="g107"><path class="st4" d="M110.9 180.1c-.1 0-.1 0-.2-.1 0 0-.1-.1-.1-.2v-.9c-3.8-.4-6.5-2.1-6.5-4.3 0-.1 0-.1.1-.2 0 0 .1-.1.2-.1h2.8c.1 0 .3.1.3.3 0 .6 1.2 1.4 3.2 1.7v-3.6c-2.2-.2-4.2-.9-5.4-2-.7-.7-1.1-1.5-1.1-2.3 0-2.2 2.6-4 6.4-4.4v-.8c0-.1 0-.1.1-.2 0 0 .1-.1.2-.1h2.6c.1 0 .3.1.3.3v.8c3.8.4 6.5 2.1 6.5 4.3 0 .1 0 .1-.1.2 0 0-.1.1-.2.1h-2.8c-.1 0-.1 0-.2-.1 0 0-.1-.1-.1-.2 0-.6-1.2-1.4-3.2-1.7v3.6c1.7.2 3.3.6 4.4 1.3 1.3.8 2.1 1.8 2.1 3 0 2.2-2.6 4-6.4 4.4v.9c0 .1-.1.3-.3.3h-2.6zm2.8-3.8c2-.3 3.2-1.1 3.2-1.7 0-.6-1.2-1.4-3.2-1.7v3.4zm-3.2-9.6c-2 .3-3.2 1.1-3.2 1.7 0 .2.1.4.4.6.6.5 1.6.9 2.8 1v-3.3z" id="path109" fill="#003b86"/><path class="st4" d="M113.3 163.2v1.1c3.7.3 6.5 2 6.5 4.1H117c0-.8-1.5-1.7-3.7-2v4.1c1.8.1 3.4.6 4.6 1.3 1.2.7 1.9 1.7 1.9 2.8 0 2.1-2.7 3.8-6.4 4.2v1.2h-2.6v-1.2c-3.7-.3-6.5-2-6.5-4.1h2.7c0 .8 1.5 1.7 3.7 2v-4.1c-2.3-.2-4.3-.9-5.4-2-.7-.6-1.1-1.3-1.1-2.1 0-2.1 2.7-3.8 6.4-4.2v-1.1h2.7zm-2.5 7.2v-4c-2.2.3-3.7 1.2-3.7 2 0 .3.2.5.5.8.5.5 1.7 1 3.2 1.2zm2.6 6.2c2.2-.3 3.7-1.2 3.7-2s-1.5-1.7-3.7-2v4zm-.1-14h-2.6c-.3 0-.5.2-.5.5v.6c-3.8.5-6.5 2.4-6.4 4.6 0 .9.4 1.8 1.2 2.5 1.2 1.1 3.1 1.8 5.3 2v3c-1.8-.3-2.7-1-2.7-1.4 0-.1-.1-.3-.2-.4-.1-.1-.2-.1-.4-.1h-2.7c-.1 0-.3.1-.4.2-.1.1-.1.2-.1.4 0 2.3 2.7 4.1 6.5 4.5v.7c0 .1.1.3.2.4.1.1.2.1.4.1h2.6c.1 0 .3-.1.4-.2.1-.1.1-.2.1-.4v-.7c3.8-.5 6.5-2.4 6.4-4.6 0-1.2-.8-2.4-2.2-3.2-1.2-.7-2.6-1.2-4.3-1.3v-3c1.8.3 2.7 1 2.7 1.4 0 .3.2.5.5.5h2.8c.3 0 .5-.2.5-.5 0-2.3-2.7-4.1-6.5-4.5v-.6c0-.2-.3-.5-.6-.5zm-3 7.2c-1-.2-1.9-.5-2.4-.9-.2-.2-.3-.3-.3-.4 0-.4.9-1.1 2.7-1.4v2.7zm3.7 6.2v-2.8c1.8.3 2.7 1 2.7 1.4-.1.3-1 1-2.7 1.4z" id="path111" fill="#003b86"/></g></g><g id="g113"><path class="st3" d="M106.1 158.9h-.3c-.6-.2-1-.7-1-1.3 0-.8.6-1.4 1.3-1.4h12c.1 0 .3 0 .4.1.6.2.9.7.9 1.3 0 .8-.6 1.4-1.3 1.4h-12v-.1z" id="path115" fill="#fff"/><path class="st4" d="M118.1 156.7h.2c.3.1.5.4.5.8 0 .5-.4.9-.8.9h-12.2c-.3-.1-.6-.4-.6-.8 0-.5.4-.9.8-.9h12.1zm0-1h-12c-1 0-1.8.8-1.8 1.9 0 .8.5 1.5 1.3 1.8h.1c.2 0 .3.1.5.1h12c1 0 1.8-.8 1.8-1.9 0-.8-.5-1.5-1.2-1.8h-.1c-.3-.1-.4-.1-.6-.1z" id="path117" fill="#003b86"/></g></g></g><g id="g119"><g id="g121"><g id="g123"><g id="g125"><path class="st3" d="M51.6 28.6H38.8c-.2 0-.3-.1-.4-.2l-2.9-3.8c-.4-.5-.4-1.1-.2-1.6.2-.4.5-.6.9-.6h17.4c.6 0 1.1.3 1.3.7.2.4.2 1-.1 1.4l-2.9 3.8c0 .3-.1.3-.3.3z" id="path127" fill="#fff"/><path class="st4" d="M53.7 23c.8 0 1.1.8.8 1.3-1 1.3-2.3 3.1-2.9 3.8-.1 0-.3-.1-.4-.1h-12c-.1 0-.3 0-.4.1-.6-.7-1.8-2.5-2.9-3.8-.4-.5-.3-1.3.3-1.3h17.5zm0-1H36.3c-.6 0-1.1.3-1.4.8-.3.6-.2 1.5.3 2.1l2 2.7.8 1.1c.2.3.5.4.8.4h12.8c.3 0 .6-.1.8-.4l1.8-2.4 1-1.4c.4-.6.5-1.3.2-1.9-.3-.6-.9-1-1.7-1z" id="path129" fill="#003b86"/></g><g id="g131"><path class="st3" d="M45.2 57.8c-10.1 0-18.3-6.3-18.3-14 0-2.6.9-5.1 2.7-7.3.2-.2.4-.5.6-.7 2.1-2.3 4.9-4 8.3-5h.4l.1.1h12.3c.1 0 .3 0 .4-.1h.4c3.3 1 6.2 2.8 8.3 5 1.1 1.2 1.9 2.5 2.5 3.9.5 1.3.8 2.7.8 4.2-.1 7.6-8.4 13.9-18.5 13.9z" id="path133" fill="#fff"/><path class="st4" d="M38.6 31.2c.1 0 .1 0 .2.1h.1c.1 0 .3.1.4.1h12c.2 0 .4-.1.6-.1 3.2 1 6 2.7 8 4.9 1.1 1.2 1.9 2.4 2.4 3.7.5 1.3.8 2.6.8 4 0 7.5-8 13.5-17.8 13.5s-17.8-6.1-17.8-13.5c0-2.5.9-4.9 2.6-7 .2-.2.4-.5.6-.7 1.9-2.3 4.7-4 7.9-5zm0-1h-.3c-3.4 1-6.4 2.8-8.5 5.2-.2.2-.4.4-.6.8-1.8 2.3-2.8 4.9-2.8 7.6 0 8 8.5 14.6 18.8 14.6 10.4 0 18.8-6.5 18.8-14.6 0-1.5-.3-2.9-.9-4.3-.6-1.4-1.5-2.8-2.6-4-2.1-2.3-5.1-4.1-8.5-5.2h-.3c-.1 0-.3 0-.4.1-.1 0-.1.1-.2.1H38.9c0-.3-.1-.3-.3-.3z" id="path135" fill="#003b86"/></g><g id="g137"><g id="g139"><path class="st4" d="M44 52.3c-.1 0-.3-.1-.3-.3v-.9c-3.8-.4-6.5-2.1-6.5-4.3 0-.1 0-.1.1-.2 0 0 .1-.1.2-.1h2.8c.1 0 .3.1.3.3 0 .6 1.2 1.4 3.2 1.7v-3.6c-2.2-.2-4.2-.9-5.4-2-.7-.7-1.1-1.5-1.1-2.3 0-2.2 2.6-4 6.4-4.4v-.8c0-.1 0-.1.1-.2 0 0 .1-.1.2-.1h2.6c.1 0 .3.1.3.3v.8c3.8.4 6.5 2.1 6.5 4.3 0 .1 0 .1-.1.2 0 0-.1.1-.2.1h-2.8c-.1 0-.3-.1-.3-.3 0-.6-1.2-1.4-3.2-1.7v3.6c1.7.2 3.3.6 4.4 1.3 1.3.8 2.1 1.8 2.1 3 0 2.2-2.6 4-6.4 4.4v.9c0 .1 0 .1-.1.2 0 0-.1.1-.2.1H44zm2.8-3.8c2-.3 3.2-1.1 3.2-1.7 0-.6-1.2-1.4-3.2-1.7v3.4zm-3.2-9.6c-2 .3-3.2 1.1-3.2 1.7 0 .2.1.4.4.6.6.5 1.6.9 2.8 1v-3.3z" id="path141" fill="#003b86"/><path class="st4" d="M46.5 35.3v1.1c3.7.3 6.5 2 6.5 4.1h-2.8c0-.8-1.5-1.7-3.7-2v4.1c1.8.1 3.4.6 4.6 1.3 1.2.7 1.9 1.7 1.9 2.8 0 2.1-2.7 3.8-6.4 4.2v1.2H44v-1.2c-3.7-.3-6.5-2-6.5-4.1h2.7c0 .8 1.5 1.7 3.7 2v-4.1c-2.3-.2-4.3-.9-5.4-2-.7-.6-1.1-1.3-1.1-2.1 0-2.1 2.7-3.8 6.4-4.2v-1.1h2.7zm-2.6 7.2v-4c-2.2.3-3.7 1.2-3.7 2 0 .3.2.5.5.8.6.6 1.7 1.1 3.2 1.2zm2.7 6.2c2.2-.3 3.7-1.2 3.7-2s-1.5-1.7-3.7-2v4zm-.1-13.9h-2.6c-.3 0-.5.2-.5.5v.6c-3.8.5-6.5 2.4-6.4 4.6 0 .9.4 1.8 1.2 2.5 1.2 1.1 3.1 1.8 5.3 2v3c-1.8-.3-2.7-1-2.7-1.4 0-.1-.1-.3-.2-.4-.1-.1-.2-.1-.4-.1h-2.7c-.3 0-.5.2-.5.5 0 2.3 2.7 4.1 6.5 4.5v.7c0 .1.1.3.2.4.1.1.2.1.4.1h2.6c.1 0 .3-.1.4-.2.1-.1.1-.2.1-.4V51c3.8-.5 6.5-2.4 6.4-4.6 0-1.2-.8-2.4-2.2-3.2-1.2-.7-2.6-1.2-4.3-1.3v-3c1.8.3 2.7 1 2.7 1.4 0 .3.2.5.5.5h2.8c.3 0 .5-.2.5-.5 0-2.3-2.7-4.1-6.5-4.5v-.6c-.1-.2-.4-.4-.6-.4zm-3.1 7.1c-1-.2-1.9-.5-2.4-.9-.2-.2-.3-.3-.3-.4 0-.4.9-1.1 2.7-1.4v2.7zm3.7 6.2v-2.8c1.8.3 2.7 1 2.7 1.4 0 .4-.9 1.1-2.7 1.4z" id="path143" fill="#003b86"/></g></g><g id="g145"><path class="st3" d="M39.2 31.1c-.1 0-.2 0-.3-.1-.6-.2-1-.7-1-1.3 0-.8.6-1.4 1.3-1.4h12c.1 0 .2 0 .4.1.6.2.9.7.9 1.3 0 .8-.6 1.4-1.3 1.4h-12z" id="path147" fill="#fff"/><path class="st4" d="M51.2 28.9h.2c.3.1.5.4.5.8 0 .5-.4.8-.8.8H38.9c-.3-.1-.6-.4-.6-.8 0-.5.4-.9.8-.9h12.1v.1zm0-1.1h-12c-1 0-1.8.8-1.8 1.9 0 .8.5 1.5 1.3 1.8h.1c.2 0 .3.1.5.1h12c1 0 1.8-.8 1.8-1.9 0-.8-.5-1.5-1.2-1.8h-.1c-.2 0-.4-.1-.6-.1z" id="path149" fill="#003b86"/></g></g><g id="g151"><g id="g153"><path class="st3" d="M51.6 92.6H38.8c-.2 0-.3-.1-.4-.2l-2.9-3.8c-.4-.5-.4-1.1-.2-1.6.2-.4.5-.6.9-.6h17.4c.6 0 1.1.3 1.3.7.2.4.2 1-.1 1.4l-2.9 3.8c0 .2-.1.3-.3.3z" id="path155" fill="#fff"/><path class="st4" d="M53.7 86.9c.8 0 1.1.8.8 1.3-1 1.3-2.3 3.1-2.9 3.8-.1 0-.3-.1-.4-.1h-12c-.1 0-.3 0-.4.1-.6-.7-1.8-2.5-2.9-3.8-.4-.5-.3-1.3.3-1.3h17.5zm0-1H36.3c-.6 0-1.1.3-1.4.8-.3.6-.2 1.5.3 2.1l2 2.7.8 1.1c.2.3.5.4.8.4h12.8c.3 0 .6-.1.8-.4l1.8-2.4 1-1.4c.4-.6.5-1.3.2-1.9-.3-.6-.9-1-1.7-1z" id="path157" fill="#003b86"/></g><g id="g159"><path class="st3" d="M45.2 121.7c-10.1 0-18.3-6.3-18.3-14 0-2.6.9-5.1 2.7-7.3.2-.2.4-.5.6-.7 2.1-2.3 4.9-4 8.3-5h.4l.1.1h12.3c.1 0 .3 0 .4-.1h.4c3.3 1 6.2 2.8 8.3 5 1.1 1.2 1.9 2.5 2.5 3.9.5 1.3.8 2.7.8 4.1-.1 7.7-8.4 14-18.5 14z" id="path161" fill="#fff"/><path class="st4" d="M38.6 95.1c.1 0 .1 0 .2.1h.1c.1 0 .3.1.4.1h12c.2 0 .4-.1.6-.1 3.2 1 6 2.7 8 4.9 1.1 1.2 1.9 2.4 2.4 3.7.5 1.3.8 2.6.8 4 0 7.5-8 13.5-17.8 13.5s-17.8-6.1-17.8-13.5c0-2.5.9-4.9 2.6-7 .2-.2.4-.5.6-.7 1.9-2.3 4.7-4 7.9-5zm0-1h-.3c-3.4 1-6.4 2.8-8.5 5.2-.2.2-.4.4-.6.8-1.8 2.3-2.8 4.9-2.8 7.6 0 8 8.5 14.6 18.8 14.6 10.4 0 18.8-6.5 18.8-14.6 0-1.5-.3-2.9-.9-4.3-.6-1.4-1.5-2.8-2.6-4-2.1-2.3-5.1-4.1-8.5-5.2h-.3c-.1 0-.3 0-.4.1-.1 0-.1.1-.2.1H38.9c0-.3-.1-.3-.3-.3z" id="path163" fill="#003b86"/></g><g id="g165"><g id="g167"><path class="st4" d="M44 116.2c-.1 0-.3-.1-.3-.3v-.9c-3.8-.4-6.5-2.1-6.5-4.3 0-.1 0-.1.1-.2 0 0 .1-.1.2-.1h2.8c.1 0 .3.1.3.3 0 .6 1.2 1.4 3.2 1.7v-3.6c-2.2-.2-4.2-.9-5.4-2-.7-.7-1.1-1.5-1.1-2.3 0-2.2 2.6-4 6.4-4.4v-.8c0-.1 0-.1.1-.2 0 0 .1-.1.2-.1h2.6c.1 0 .3.1.3.3v.8c3.8.4 6.5 2.1 6.5 4.3 0 .1 0 .1-.1.2 0 0-.1.1-.2.1h-2.8c-.1 0-.1 0-.2-.1 0 0-.1-.1-.1-.2 0-.6-1.2-1.4-3.2-1.7v3.6c1.7.2 3.3.6 4.4 1.3 1.3.8 2.1 1.8 2.1 3 0 2.2-2.6 4-6.4 4.4v.9c0 .1 0 .1-.1.2 0 0-.1.1-.2.1H44zm2.8-3.8c2-.3 3.2-1.1 3.2-1.7 0-.6-1.2-1.4-3.2-1.7v3.4zm-3.2-9.6c-2 .3-3.2 1.1-3.2 1.7 0 .2.1.4.4.6.6.5 1.6.9 2.8 1v-3.3z" id="path169" fill="#003b86"/><path class="st4" d="M46.5 99.2v1.1c3.7.3 6.5 2 6.5 4.1h-2.8c0-.8-1.5-1.7-3.7-2v4.1c1.8.1 3.4.6 4.6 1.3 1.2.7 1.9 1.7 1.9 2.8 0 2.1-2.7 3.8-6.4 4.2v1.2H44v-1.2c-3.7-.3-6.5-2-6.5-4.1h2.7c0 .8 1.5 1.7 3.7 2v-4.1c-2.3-.2-4.3-.9-5.4-2-.7-.6-1.1-1.3-1.1-2.1 0-2.1 2.7-3.8 6.4-4.2v-1.1h2.7zm-2.6 7.2v-4c-2.2.3-3.7 1.2-3.7 2 0 .3.2.5.5.8.6.6 1.7 1.1 3.2 1.2zm2.7 6.3c2.2-.3 3.7-1.2 3.7-2s-1.5-1.7-3.7-2v4zm-.1-14h-2.6c-.3 0-.5.2-.5.5v.6c-3.8.5-6.5 2.4-6.4 4.6 0 .9.4 1.8 1.2 2.5 1.2 1.1 3.1 1.8 5.3 2v3c-1.8-.3-2.7-1-2.7-1.4 0-.1-.1-.3-.2-.4-.1-.1-.2-.1-.4-.1h-2.7c-.3 0-.5.2-.5.5 0 2.3 2.7 4.1 6.5 4.5v.7c0 .1.1.3.2.4.1.1.2.1.4.1h2.6c.1 0 .3-.1.4-.2.1-.1.1-.2.1-.4v-.7c3.8-.5 6.5-2.4 6.4-4.6 0-1.2-.8-2.4-2.2-3.2-1.2-.7-2.6-1.2-4.3-1.3v-3c1.8.3 2.7 1 2.7 1.4 0 .3.2.5.5.5h2.8c.3 0 .5-.2.5-.5 0-2.3-2.7-4.1-6.5-4.5v-.6c-.1-.1-.4-.4-.6-.4zm-3.1 7.2c-1-.2-1.9-.5-2.4-.9-.2-.2-.3-.3-.3-.4 0-.4.9-1.1 2.7-1.4v2.7zm3.7 6.2v-2.8c1.8.3 2.7 1 2.7 1.4 0 .3-.9 1-2.7 1.4z" id="path171" fill="#003b86"/></g></g><g id="g173"><path class="st3" d="M39.2 95c-.1 0-.2 0-.3-.1-.6-.2-1-.7-1-1.3 0-.8.6-1.4 1.3-1.4h12c.1 0 .3 0 .4.1.6.2.9.7.9 1.3 0 .8-.6 1.4-1.3 1.4h-12z" id="path175" fill="#fff"/><path class="st4" d="M51.2 92.8h.2c.3.1.5.4.5.8 0 .5-.4.8-.8.8H38.9c-.3-.1-.6-.4-.6-.8 0-.5.4-.9.8-.9l12.1.1zm0-1.1h-12c-1 0-1.8.8-1.8 1.9 0 .8.5 1.5 1.3 1.8h.1c.2 0 .3.1.5.1h12c1 0 1.8-.8 1.8-1.9 0-.8-.5-1.5-1.2-1.8h-.1c-.2 0-.4-.1-.6-.1z" id="path177" fill="#003b86"/></g></g><g id="g179"><g id="g181"><path class="st3" d="M51.6 156.5H38.8c-.2 0-.3-.1-.4-.2l-2.8-3.8c-.4-.5-.4-1.1-.2-1.6.2-.4.5-.6.9-.6h17.4c.6 0 1.1.3 1.3.7.2.4.2 1-.1 1.4l-2.9 3.8c-.1.2-.2.3-.4.3z" id="path183" fill="#fff"/><path class="st4" d="M53.7 150.8c.8 0 1.1.8.8 1.3-1 1.3-2.3 3.1-2.9 3.8-.1 0-.3-.1-.4-.1h-12c-.1 0-.3 0-.4.1-.6-.7-1.8-2.5-2.9-3.8-.4-.5-.3-1.3.3-1.3h17.5zm0-1H36.3c-.6 0-1.1.3-1.4.8-.3.6-.2 1.5.3 2.1l2 2.7.8 1.1c.2.3.5.4.8.4h12.8c.3 0 .6-.1.8-.4l2-2.7.9-1.1c.4-.6.5-1.3.2-1.9-.4-.6-1-1-1.8-1z" id="path185" fill="#003b86"/></g><g id="g187"><path class="st3" d="M45.2 185.6c-10.1 0-18.3-6.3-18.3-14 0-2.6.9-5.1 2.7-7.3.2-.2.4-.5.6-.7 2.1-2.3 4.9-4 8.3-5h.4l-.1.5.2-.5c.1 0 .2.1.3.1h12c.1 0 .3 0 .4-.1h.4c3.3 1 6.2 2.8 8.3 5 1.1 1.2 1.9 2.5 2.5 3.9.5 1.3.8 2.7.8 4.1-.1 7.7-8.4 14-18.5 14z" id="path189" fill="#fff"/><path class="st4" d="M38.6 159c.1 0 .1 0 .2.1h.1c.1 0 .3.1.4.1h12c.2 0 .4-.1.6-.1 3.2 1 6 2.7 8 4.9 1.1 1.2 1.9 2.4 2.4 3.7.5 1.3.8 2.6.8 4 0 7.5-8 13.5-17.8 13.5s-17.8-6.1-17.8-13.5c0-2.5.9-4.9 2.6-7 .2-.2.4-.5.6-.7 1.9-2.3 4.7-4 7.9-5zm0-1h-.3c-3.4 1-6.4 2.8-8.5 5.2-.2.2-.4.4-.6.8-1.8 2.3-2.8 4.9-2.8 7.6 0 8 8.5 14.6 18.8 14.6 10.4 0 18.8-6.5 18.8-14.6 0-1.5-.3-2.9-.9-4.3-.6-1.4-1.5-2.8-2.6-4-2.1-2.3-5.1-4.1-8.5-5.2h-.3c-.1 0-.3 0-.4.1-.1 0-.1.1-.2.1H38.9c0-.3-.1-.3-.3-.3z" id="path191" fill="#003b86"/></g><g id="g193"><g id="g195"><path class="st4" d="M44 180.1c-.1 0-.1 0-.2-.1 0 0-.1-.1-.1-.2v-.9c-3.8-.4-6.5-2.1-6.5-4.3 0-.1 0-.1.1-.2 0 0 .1-.1.2-.1h2.8c.1 0 .3.1.3.3 0 .6 1.2 1.4 3.2 1.7v-3.6c-2.2-.2-4.2-.9-5.4-2-.7-.7-1.1-1.5-1.1-2.3 0-2.2 2.6-4 6.4-4.4v-.8c0-.1 0-.1.1-.2 0 0 .1-.1.2-.1h2.6c.1 0 .3.1.3.3v.8c3.8.4 6.5 2.1 6.5 4.3 0 .1 0 .1-.1.2 0 0-.1.1-.2.1h-2.8c-.1 0-.1 0-.2-.1 0 0-.1-.1-.1-.2 0-.6-1.2-1.4-3.2-1.7v3.6c1.7.2 3.3.6 4.4 1.3 1.3.8 2.1 1.8 2.1 3 0 2.2-2.6 4-6.4 4.4v.9c0 .1-.1.3-.3.3H44zm2.8-3.8c2-.3 3.2-1.1 3.2-1.7 0-.6-1.2-1.4-3.2-1.7v3.4zm-3.2-9.6c-2 .3-3.2 1.1-3.2 1.7 0 .2.1.4.4.6.6.5 1.6.9 2.8 1v-3.3z" id="path197" fill="#003b86"/><path class="st4" d="M46.5 163.2v1.1c3.7.3 6.5 2 6.5 4.1h-2.8c0-.8-1.5-1.7-3.7-2v4.1c1.8.1 3.4.6 4.6 1.3 1.2.7 1.9 1.7 1.9 2.8 0 2.1-2.7 3.8-6.4 4.2v1.2H44v-1.2c-3.7-.3-6.5-2-6.5-4.1h2.7c0 .8 1.5 1.7 3.7 2v-4.1c-2.3-.2-4.3-.9-5.4-2-.7-.6-1.1-1.3-1.1-2.1 0-2.1 2.7-3.8 6.4-4.2v-1.1h2.7zm-2.6 7.2v-4c-2.2.3-3.7 1.2-3.7 2 0 .3.2.5.5.8.6.5 1.7 1 3.2 1.2zm2.7 6.2c2.2-.3 3.7-1.2 3.7-2s-1.5-1.7-3.7-2v4zm-.1-14h-2.6c-.3 0-.5.2-.5.5v.6c-3.8.5-6.5 2.4-6.4 4.6 0 .9.4 1.8 1.2 2.5 1.2 1.1 3.1 1.8 5.3 2v3c-1.8-.3-2.7-1-2.7-1.4 0-.1-.1-.3-.2-.4-.1-.1-.2-.1-.4-.1h-2.7c-.3 0-.5.2-.5.5 0 2.3 2.7 4.1 6.5 4.5v.7c0 .1.1.3.2.4.1.1.2.1.4.1h2.6c.1 0 .3-.1.4-.2.1-.1.1-.2.1-.4v-.7c3.8-.5 6.5-2.4 6.4-4.6 0-1.2-.8-2.4-2.2-3.2-1.2-.7-2.6-1.2-4.3-1.3v-3c1.8.3 2.7 1 2.7 1.4 0 .3.2.5.5.5h2.8c.3 0 .5-.2.5-.5 0-2.3-2.7-4.1-6.5-4.5v-.6c-.1-.1-.4-.4-.6-.4zm-3.1 7.2c-1-.2-1.9-.5-2.4-.9-.2-.2-.3-.3-.3-.4 0-.4.9-1.1 2.7-1.4v2.7zm3.7 6.2v-2.8c1.8.3 2.7 1 2.7 1.4 0 .3-.9 1-2.7 1.4z" id="path199" fill="#003b86"/></g></g><g id="g201"><path class="st3" d="M39.2 158.9h-.3c-.6-.2-1-.7-1-1.3 0-.8.6-1.4 1.3-1.4h12c.1 0 .3 0 .4.1.6.2.9.7.9 1.3 0 .8-.6 1.4-1.3 1.4h-12v-.1z" id="path203" fill="#fff"/><path class="st4" d="M51.2 156.7h.2c.3.1.5.4.5.8 0 .5-.4.9-.8.9H38.9c-.3-.1-.6-.4-.6-.8 0-.5.4-.9.8-.9h12.1zm0-1h-12c-1 0-1.8.8-1.8 1.9 0 .8.5 1.5 1.3 1.8h.1c.2 0 .3.1.5.1h12c1 0 1.8-.8 1.8-1.9 0-.8-.5-1.5-1.2-1.8h-.1c-.2-.1-.4-.1-.6-.1z" id="path205" fill="#003b86"/></g></g></g><g id="g207"><g id="g209"><g id="g211"><path class="st3" d="M185.4 28.6h-12.8c-.2 0-.3-.1-.4-.2l-2.9-3.8c-.4-.5-.4-1.1-.2-1.6.2-.4.5-.6.9-.6h17.4c.6 0 1.1.3 1.3.7.2.4.2 1-.1 1.4l-2.9 3.8c0 .3-.2.3-.3.3z" id="path213" fill="#fff"/><path class="st4" d="M187.5 23c.8 0 1.1.8.8 1.3-1 1.3-2.3 3.1-2.9 3.8-.1 0-.3-.1-.4-.1h-12c-.1 0-.3 0-.4.1-.6-.7-1.8-2.5-2.9-3.8-.4-.5-.3-1.3.3-1.3h17.5zm0-1h-17.4c-.6 0-1.1.3-1.4.8-.3.6-.2 1.5.3 2.1l2 2.7.8 1.1c.2.3.5.4.8.4h12.8c.3 0 .6-.1.8-.4l1.8-2.4 1-1.4c.4-.6.5-1.3.2-1.9-.3-.6-.9-1-1.7-1z" id="path215" fill="#003b86"/></g><g id="g217"><path class="st3" d="M179 57.8c-10.1 0-18.3-6.3-18.3-14 0-2.6.9-5.1 2.7-7.3.2-.2.4-.5.6-.7 2.1-2.3 4.9-4 8.3-5h.4l.1.1h12.3c.1 0 .3 0 .4-.1h.4c3.3 1 6.2 2.8 8.3 5 1.1 1.2 1.9 2.5 2.5 3.9.5 1.3.8 2.7.8 4.2-.2 7.6-8.4 13.9-18.5 13.9z" id="path219" fill="#fff"/><path class="st4" d="M172.4 31.2c.1 0 .1 0 .2.1h.1c.1 0 .3.1.4.1h12c.2 0 .4-.1.6-.1 3.2 1 6 2.7 8 4.9 1.1 1.2 1.9 2.4 2.4 3.7.5 1.3.8 2.6.8 4 0 7.5-8 13.5-17.8 13.5s-17.8-6.1-17.8-13.5c0-2.5.9-4.9 2.6-7 .2-.2.4-.5.6-.7 1.8-2.3 4.6-4 7.9-5zm0-1h-.3c-3.4 1-6.4 2.8-8.5 5.2-.2.2-.4.4-.6.8-1.8 2.3-2.8 4.9-2.8 7.6 0 8 8.5 14.6 18.8 14.6 10.4 0 18.8-6.5 18.8-14.6 0-1.5-.3-2.9-.9-4.3-.6-1.4-1.5-2.8-2.6-4-2.1-2.3-5.1-4.1-8.5-5.2h-.3c-.1 0-.3 0-.4.1-.1 0-.1.1-.2.1h-12.2c0-.3-.2-.3-.3-.3z" id="path221" fill="#003b86"/></g><g id="g223"><g id="g225"><path class="st4" d="M177.7 52.3c-.1 0-.3-.1-.3-.3v-.9c-3.8-.4-6.5-2.1-6.5-4.3 0-.1 0-.1.1-.2 0 0 .1-.1.2-.1h2.8c.1 0 .3.1.3.3 0 .6 1.2 1.4 3.2 1.7v-3.6c-2.2-.2-4.2-.9-5.4-2-.7-.7-1.1-1.5-1.1-2.3 0-2.2 2.6-4 6.4-4.4v-.8c0-.1 0-.1.1-.2 0 0 .1-.1.2-.1h2.6c.1 0 .3.1.3.3v.8c3.8.4 6.5 2.1 6.5 4.3 0 .1 0 .1-.1.2 0 0-.1.1-.2.1H184c-.1 0-.3-.1-.3-.3 0-.6-1.2-1.4-3.2-1.7v3.6c1.7.2 3.3.6 4.4 1.3 1.3.8 2.1 1.8 2.1 3 0 2.2-2.6 4-6.4 4.4v.9c0 .1 0 .1-.1.2 0 0-.1.1-.2.1h-2.6zm2.9-3.8c2-.3 3.2-1.1 3.2-1.7 0-.6-1.2-1.4-3.2-1.7v3.4zm-3.2-9.6c-2 .3-3.2 1.1-3.2 1.7 0 .2.1.4.4.6.6.5 1.6.9 2.8 1v-3.3z" id="path227" fill="#003b86"/><path class="st4" d="M180.2 35.3v1.1c3.7.3 6.5 2 6.5 4.1h-2.8c0-.8-1.5-1.7-3.7-2v4.1c1.8.1 3.4.6 4.6 1.3 1.2.7 1.9 1.7 1.9 2.8 0 2.1-2.7 3.8-6.4 4.2v1.2h-2.6v-1.2c-3.7-.3-6.5-2-6.5-4.1h2.7c0 .8 1.5 1.7 3.7 2v-4.1c-2.3-.2-4.3-.9-5.4-2-.7-.6-1.1-1.3-1.1-2.1 0-2.1 2.7-3.8 6.4-4.2v-1.1h2.7zm-2.5 7.2v-4c-2.2.3-3.7 1.2-3.7 2 0 .3.2.5.5.8.5.6 1.7 1.1 3.2 1.2zm2.6 6.2c2.2-.3 3.7-1.2 3.7-2s-1.5-1.7-3.7-2v4zm-.1-13.9h-2.6c-.3 0-.5.2-.5.5v.6c-3.8.5-6.5 2.4-6.4 4.6 0 .9.4 1.8 1.2 2.5 1.2 1.1 3.1 1.8 5.3 2v3c-1.8-.3-2.7-1-2.7-1.4 0-.1-.1-.3-.2-.4-.1-.1-.2-.1-.4-.1h-2.7c-.1 0-.3.1-.4.2-.1.1-.1.2-.1.4 0 2.3 2.7 4.1 6.5 4.5v.7c0 .3.2.5.5.5h2.6c.1 0 .3-.1.4-.2.1-.1.1-.2.1-.4v-.7c3.8-.5 6.5-2.4 6.4-4.6 0-1.2-.8-2.4-2.2-3.2-1.2-.7-2.6-1.2-4.3-1.3v-3c1.8.3 2.7 1 2.7 1.4 0 .3.2.5.5.5h2.8c.3 0 .5-.2.5-.5 0-2.3-2.7-4.1-6.5-4.5v-.6c0-.3-.2-.5-.5-.5zm-3 7.1c-1-.2-1.9-.5-2.4-.9-.2-.2-.3-.3-.3-.4 0-.4.9-1.1 2.7-1.4v2.7zm3.6 6.2v-2.8c1.8.3 2.7 1 2.7 1.4 0 .4-.9 1.1-2.7 1.4z" id="path229" fill="#003b86"/></g></g><g id="g231"><path class="st3" d="M173 31.1c-.1 0-.2 0-.3-.1-.6-.2-1-.7-1-1.3 0-.8.6-1.4 1.3-1.4h12c.1 0 .2 0 .4.1.6.2.9.7.9 1.3 0 .8-.6 1.4-1.3 1.4h-12z" id="path233" fill="#fff"/><path class="st4" d="M185 28.9h.2c.3.1.5.4.5.8 0 .5-.4.8-.8.8h-12.2c-.3-.1-.6-.4-.6-.8 0-.5.4-.9.8-.9H185v.1zm0-1.1h-12c-1 0-1.8.8-1.8 1.9 0 .8.5 1.5 1.3 1.8h.1c.2 0 .3.1.5.1h12c1 0 1.8-.8 1.8-1.9 0-.8-.5-1.5-1.2-1.8h-.1c-.3 0-.5-.1-.6-.1z" id="path235" fill="#003b86"/></g></g><g id="g237"><g id="g239"><path class="st3" d="M185.4 92.6h-12.8c-.2 0-.3-.1-.4-.2l-2.9-3.8c-.4-.5-.4-1.1-.2-1.6.2-.4.5-.6.9-.6h17.4c.6 0 1.1.3 1.3.7.2.4.2 1-.1 1.4l-2.9 3.8c0 .2-.2.3-.3.3z" id="path241" fill="#fff"/><path class="st4" d="M187.5 86.9c.8 0 1.1.8.8 1.3-1 1.3-2.3 3.1-2.9 3.8-.1 0-.3-.1-.4-.1h-12c-.1 0-.3 0-.4.1-.6-.7-1.8-2.5-2.9-3.8-.4-.5-.3-1.3.3-1.3h17.5zm0-1h-17.4c-.6 0-1.1.3-1.4.8-.3.6-.2 1.5.3 2.1l2 2.7.8 1.1c.2.3.5.4.8.4h12.8c.3 0 .6-.1.8-.4l1.8-2.4 1-1.4c.4-.6.5-1.3.2-1.9-.3-.6-.9-1-1.7-1z" id="path243" fill="#003b86"/></g><g id="g245"><path class="st3" d="M179 121.7c-10.1 0-18.3-6.3-18.3-14 0-2.6.9-5.1 2.7-7.3.2-.2.4-.5.6-.7 2.1-2.3 4.9-4 8.3-5h.4l.1.1h12.3c.1 0 .3 0 .4-.1h.4c3.3 1 6.2 2.8 8.3 5 1.1 1.2 1.9 2.5 2.5 3.9.5 1.3.8 2.7.8 4.1-.2 7.7-8.4 14-18.5 14z" id="path247" fill="#fff"/><path class="st4" d="M172.4 95.1c.1 0 .1 0 .2.1h.1c.1 0 .3.1.4.1h12c.2 0 .4-.1.6-.1 3.2 1 6 2.7 8 4.9 1.1 1.2 1.9 2.4 2.4 3.7.5 1.3.8 2.6.8 4 0 7.5-8 13.5-17.8 13.5s-17.8-6.1-17.8-13.5c0-2.5.9-4.9 2.6-7 .2-.2.4-.5.6-.7 1.8-2.3 4.6-4 7.9-5zm0-1h-.3c-3.4 1-6.4 2.8-8.5 5.2-.2.2-.4.4-.6.8-1.8 2.3-2.8 4.9-2.8 7.6 0 8 8.5 14.6 18.8 14.6 10.4 0 18.8-6.5 18.8-14.6 0-1.5-.3-2.9-.9-4.3-.6-1.4-1.5-2.8-2.6-4-2.1-2.3-5.1-4.1-8.5-5.2h-.3c-.1 0-.3 0-.4.1-.1 0-.1.1-.2.1h-12.2c0-.3-.2-.3-.3-.3z" id="path249" fill="#003b86"/></g><g id="g251"><g id="g253"><path class="st4" d="M177.7 116.2c-.1 0-.3-.1-.3-.3v-.9c-3.8-.4-6.5-2.1-6.5-4.3 0-.1 0-.1.1-.2 0 0 .1-.1.2-.1h2.8c.1 0 .3.1.3.3 0 .6 1.2 1.4 3.2 1.7v-3.6c-2.2-.2-4.2-.9-5.4-2-.7-.7-1.1-1.5-1.1-2.3 0-2.2 2.6-4 6.4-4.4v-.8c0-.1 0-.1.1-.2 0 0 .1-.1.2-.1h2.6c.1 0 .3.1.3.3v.8c3.8.4 6.5 2.1 6.5 4.3 0 .1 0 .1-.1.2 0 0-.1.1-.2.1H184c-.1 0-.1 0-.2-.1 0 0-.1-.1-.1-.2 0-.6-1.2-1.4-3.2-1.7v3.6c1.7.2 3.3.6 4.4 1.3 1.3.8 2.1 1.8 2.1 3 0 2.2-2.6 4-6.4 4.4v.9c0 .1 0 .1-.1.2 0 0-.1.1-.2.1h-2.6zm2.9-3.8c2-.3 3.2-1.1 3.2-1.7 0-.6-1.2-1.4-3.2-1.7v3.4zm-3.2-9.6c-2 .3-3.2 1.1-3.2 1.7 0 .2.1.4.4.6.6.5 1.6.9 2.8 1v-3.3z" id="path255" fill="#003b86"/><path class="st4" d="M180.2 99.2v1.1c3.7.3 6.5 2 6.5 4.1h-2.8c0-.8-1.5-1.7-3.7-2v4.1c1.8.1 3.4.6 4.6 1.3 1.2.7 1.9 1.7 1.9 2.8 0 2.1-2.7 3.8-6.4 4.2v1.2h-2.6v-1.2c-3.7-.3-6.5-2-6.5-4.1h2.7c0 .8 1.5 1.7 3.7 2v-4.1c-2.3-.2-4.3-.9-5.4-2-.7-.6-1.1-1.3-1.1-2.1 0-2.1 2.7-3.8 6.4-4.2v-1.1h2.7zm-2.5 7.2v-4c-2.2.3-3.7 1.2-3.7 2 0 .3.2.5.5.8.5.6 1.7 1.1 3.2 1.2zm2.6 6.3c2.2-.3 3.7-1.2 3.7-2s-1.5-1.7-3.7-2v4zm-.1-14h-2.6c-.3 0-.5.2-.5.5v.6c-3.8.5-6.5 2.4-6.4 4.6 0 .9.4 1.8 1.2 2.5 1.2 1.1 3.1 1.8 5.3 2v3c-1.8-.3-2.7-1-2.7-1.4 0-.1-.1-.3-.2-.4-.1-.1-.2-.1-.4-.1h-2.7c-.1 0-.3.1-.4.2-.1.1-.1.2-.1.4 0 2.3 2.7 4.1 6.5 4.5v.7c0 .3.2.5.5.5h2.6c.1 0 .3-.1.4-.2.1-.1.1-.2.1-.4v-.7c3.8-.5 6.5-2.4 6.4-4.6 0-1.2-.8-2.4-2.2-3.2-1.2-.7-2.6-1.2-4.3-1.3v-3c1.8.3 2.7 1 2.7 1.4 0 .3.2.5.5.5h2.8c.3 0 .5-.2.5-.5 0-2.3-2.7-4.1-6.5-4.5v-.6c0-.2-.2-.5-.5-.5zm-3 7.2c-1-.2-1.9-.5-2.4-.9-.2-.2-.3-.3-.3-.4 0-.4.9-1.1 2.7-1.4v2.7zm3.6 6.2v-2.8c1.8.3 2.7 1 2.7 1.4 0 .3-.9 1-2.7 1.4z" id="path257" fill="#003b86"/></g></g><g id="g259"><path class="st3" d="M173 95c-.1 0-.2 0-.3-.1-.6-.2-1-.7-1-1.3 0-.8.6-1.4 1.3-1.4h12c.1 0 .3 0 .4.1.6.2.9.7.9 1.3 0 .8-.6 1.4-1.3 1.4h-12z" id="path261" fill="#fff"/><path class="st4" d="M185 92.8h.2c.3.1.5.4.5.8 0 .5-.4.8-.8.8h-12.2c-.3-.1-.6-.4-.6-.8 0-.5.4-.9.8-.9l12.1.1zm0-1.1h-12c-1 0-1.8.8-1.8 1.9 0 .8.5 1.5 1.3 1.8h.1c.2 0 .3.1.5.1h12c1 0 1.8-.8 1.8-1.9 0-.8-.5-1.5-1.2-1.8h-.1c-.3 0-.5-.1-.6-.1z" id="path263" fill="#003b86"/></g></g><g id="g265"><g id="g267"><path class="st3" d="M185.4 156.5h-12.8c-.2 0-.3-.1-.4-.2l-2.8-3.8c-.4-.5-.4-1.1-.2-1.6.2-.4.5-.6.9-.6h17.4c.6 0 1.1.3 1.3.7.2.4.2 1-.1 1.4l-2.9 3.8c-.1.2-.3.3-.4.3z" id="path269" fill="#fff"/><path class="st4" d="M187.5 150.8c.8 0 1.1.8.8 1.3-1 1.3-2.3 3.1-2.9 3.8-.1 0-.3-.1-.4-.1h-12c-.1 0-.3 0-.4.1-.6-.7-1.8-2.5-2.9-3.8-.4-.5-.3-1.3.3-1.3h17.5zm0-1h-17.4c-.6 0-1.1.3-1.4.8-.3.6-.2 1.5.3 2.1l2 2.7.8 1.1c.2.3.5.4.8.4h12.8c.3 0 .6-.1.8-.4l2-2.7.9-1.1c.4-.6.5-1.3.2-1.9-.4-.6-1-1-1.8-1z" id="path271" fill="#003b86"/></g><g id="g273"><path class="st3" d="M179 185.6c-10.1 0-18.3-6.3-18.3-14 0-2.6.9-5.1 2.7-7.3.2-.2.4-.5.6-.7 2.1-2.3 4.9-4 8.3-5h.4l-.1.5.2-.5c.1 0 .2.1.3.1h12c.1 0 .3 0 .4-.1h.4c3.3 1 6.2 2.8 8.3 5 1.1 1.2 1.9 2.5 2.5 3.9.5 1.3.8 2.7.8 4.1-.2 7.7-8.4 14-18.5 14z" id="path275" fill="#fff"/><path class="st4" d="M172.4 159c.1 0 .1 0 .2.1h.1c.1 0 .3.1.4.1h12c.2 0 .4-.1.6-.1 3.2 1 6 2.7 8 4.9 1.1 1.2 1.9 2.4 2.4 3.7.5 1.3.8 2.6.8 4 0 7.5-8 13.5-17.8 13.5s-17.8-6.1-17.8-13.5c0-2.5.9-4.9 2.6-7 .2-.2.4-.5.6-.7 1.8-2.3 4.6-4 7.9-5zm0-1h-.3c-3.4 1-6.4 2.8-8.5 5.2-.2.2-.4.4-.6.8-1.8 2.3-2.8 4.9-2.8 7.6 0 8 8.5 14.6 18.8 14.6 10.4 0 18.8-6.5 18.8-14.6 0-1.5-.3-2.9-.9-4.3-.6-1.4-1.5-2.8-2.6-4-2.1-2.3-5.1-4.1-8.5-5.2h-.3c-.1 0-.3 0-.4.1-.1 0-.1.1-.2.1h-12.2c0-.3-.2-.3-.3-.3z" id="path277" fill="#003b86"/></g><g id="g279"><g id="g281"><path class="st4" d="M177.7 180.1c-.1 0-.1 0-.2-.1 0 0-.1-.1-.1-.2v-.9c-3.8-.4-6.5-2.1-6.5-4.3 0-.1 0-.1.1-.2 0 0 .1-.1.2-.1h2.8c.1 0 .3.1.3.3 0 .6 1.2 1.4 3.2 1.7v-3.6c-2.2-.2-4.2-.9-5.4-2-.7-.7-1.1-1.5-1.1-2.3 0-2.2 2.6-4 6.4-4.4v-.8c0-.1 0-.1.1-.2 0 0 .1-.1.2-.1h2.6c.1 0 .3.1.3.3v.8c3.8.4 6.5 2.1 6.5 4.3 0 .1 0 .1-.1.2 0 0-.1.1-.2.1H184c-.1 0-.1 0-.2-.1 0 0-.1-.1-.1-.2 0-.6-1.2-1.4-3.2-1.7v3.6c1.7.2 3.3.6 4.4 1.3 1.3.8 2.1 1.8 2.1 3 0 2.2-2.6 4-6.4 4.4v.9c0 .1-.1.3-.3.3h-2.6zm2.9-3.8c2-.3 3.2-1.1 3.2-1.7 0-.6-1.2-1.4-3.2-1.7v3.4zm-3.2-9.6c-2 .3-3.2 1.1-3.2 1.7 0 .2.1.4.4.6.6.5 1.6.9 2.8 1v-3.3z" id="path283" fill="#003b86"/><path class="st4" d="M180.2 163.2v1.1c3.7.3 6.5 2 6.5 4.1h-2.8c0-.8-1.5-1.7-3.7-2v4.1c1.8.1 3.4.6 4.6 1.3 1.2.7 1.9 1.7 1.9 2.8 0 2.1-2.7 3.8-6.4 4.2v1.2h-2.6v-1.2c-3.7-.3-6.5-2-6.5-4.1h2.7c0 .8 1.5 1.7 3.7 2v-4.1c-2.3-.2-4.3-.9-5.4-2-.7-.6-1.1-1.3-1.1-2.1 0-2.1 2.7-3.8 6.4-4.2v-1.1h2.7zm-2.5 7.2v-4c-2.2.3-3.7 1.2-3.7 2 0 .3.2.5.5.8.5.5 1.7 1 3.2 1.2zm2.6 6.2c2.2-.3 3.7-1.2 3.7-2s-1.5-1.7-3.7-2v4zm-.1-14h-2.6c-.3 0-.5.2-.5.5v.6c-3.8.5-6.5 2.4-6.4 4.6 0 .9.4 1.8 1.2 2.5 1.2 1.1 3.1 1.8 5.3 2v3c-1.8-.3-2.7-1-2.7-1.4 0-.1-.1-.3-.2-.4-.1-.1-.2-.1-.4-.1h-2.7c-.1 0-.3.1-.4.2-.1.1-.1.2-.1.4 0 2.3 2.7 4.1 6.5 4.5v.7c0 .3.2.5.5.5h2.6c.1 0 .3-.1.4-.2.1-.1.1-.2.1-.4v-.7c3.8-.5 6.5-2.4 6.4-4.6 0-1.2-.8-2.4-2.2-3.2-1.2-.7-2.6-1.2-4.3-1.3v-3c1.8.3 2.7 1 2.7 1.4 0 .3.2.5.5.5h2.8c.3 0 .5-.2.5-.5 0-2.3-2.7-4.1-6.5-4.5v-.6c0-.2-.2-.5-.5-.5zm-3 7.2c-1-.2-1.9-.5-2.4-.9-.2-.2-.3-.3-.3-.4 0-.4.9-1.1 2.7-1.4v2.7zm3.6 6.2v-2.8c1.8.3 2.7 1 2.7 1.4 0 .3-.9 1-2.7 1.4z" id="path285" fill="#003b86"/></g></g><g id="g287"><path class="st3" d="M173 158.9h-.3c-.6-.2-1-.7-1-1.3 0-.8.6-1.4 1.3-1.4h12c.1 0 .3 0 .4.1.6.2.9.7.9 1.3 0 .8-.6 1.4-1.3 1.4h-12v-.1z" id="path289" fill="#fff"/><path class="st4" d="M185 156.7h.2c.3.1.5.4.5.8 0 .5-.4.9-.8.9h-12.2c-.3-.1-.6-.4-.6-.8 0-.5.4-.9.8-.9H185zm0-1h-12c-1 0-1.8.8-1.8 1.9 0 .8.5 1.5 1.3 1.8h.1c.2 0 .3.1.5.1h12c1 0 1.8-.8 1.8-1.9 0-.8-.5-1.5-1.2-1.8h-.1c-.3-.1-.5-.1-.6-.1z" id="path291" fill="#003b86"/></g></g></g></g></g></g></svg>