<?xml version="1.0" encoding="UTF-8" standalone="no"?>
<!-- Generator: Adobe Illustrator 21.1.0, SVG Export Plug-In . SVG Version: 6.00 Build 0)  -->

<svg
   xmlns:dc="http://purl.org/dc/elements/1.1/"
   xmlns:cc="http://creativecommons.org/ns#"
   xmlns:rdf="http://www.w3.org/1999/02/22-rdf-syntax-ns#"
   xmlns:svg="http://www.w3.org/2000/svg"
   xmlns="http://www.w3.org/2000/svg"
   xmlns:sodipodi="http://sodipodi.sourceforge.net/DTD/sodipodi-0.dtd"
   xmlns:inkscape="http://www.inkscape.org/namespaces/inkscape"
   version="1.1"
   id="Layer_1"
   x="0px"
   y="0px"
   viewBox="0 0 211.342 196.242"
   xml:space="preserve"
   inkscape:version="0.91 r13725"
   sodipodi:docname="scratch card-04.svg"
   width="211.342"
   height="196.242"><metadata
     id="metadata297"><rdf:RDF><cc:Work
         rdf:about=""><dc:format>image/svg+xml</dc:format><dc:type
           rdf:resource="http://purl.org/dc/dcmitype/StillImage" /><dc:title></dc:title></cc:Work></rdf:RDF></metadata><defs
     id="defs295" /><sodipodi:namedview
     pagecolor="#ffffff"
     bordercolor="#666666"
     borderopacity="1"
     objecttolerance="10"
     gridtolerance="10"
     guidetolerance="10"
     inkscape:pageopacity="0"
     inkscape:pageshadow="2"
     inkscape:window-width="1440"
     inkscape:window-height="778"
     id="namedview293"
     showgrid="false"
     fit-margin-top="0"
     fit-margin-left="0"
     fit-margin-right="0"
     fit-margin-bottom="0"
     inkscape:zoom="1.1238095"
     inkscape:cx="112.74473"
     inkscape:cy="97.171"
     inkscape:window-x="0"
     inkscape:window-y="1"
     inkscape:window-maximized="1"
     inkscape:current-layer="Layer_1" /><style
     type="text/css"
     id="style3">
	.st0{fill:url(#SVGID_1_);}
	.st1{fill:url(#SVGID_2_);}
	.st2{fill:none;stroke:#003B86;stroke-width:2.742;stroke-miterlimit:10;}
	.st3{fill:#FFFFFF;}
	.st4{fill:#003B86;}
</style><g
     id="Layer_3"
     transform="translate(-6.4289999,-5.9289999)" /><g
     id="Layer_2"
     transform="translate(-6.4289999,-5.9289999)"><g
       id="g7"><g
         id="g9"><linearGradient
           id="SVGID_1_"
           gradientUnits="userSpaceOnUse"
           x1="112.1"
           y1="3.1842999"
           x2="112.1"
           y2="199.7404"
           gradientTransform="matrix(1,0,0,-1,0,206)"><stop
             offset="0"
             style="stop-color:#CDCDCD"
             id="stop12" /><stop
             offset="0.3636"
             style="stop-color:#FAFAFA"
             id="stop14" /><stop
             offset="1"
             style="stop-color:#DDDDDD"
             id="stop16" /></linearGradient><path
           class="st0"
           d="m 210.8,200.8 -197.4,0 c -3.1,0 -5.6,-2.5 -5.6,-5.6 l 0,-182.3 c 0,-3.1 2.5,-5.6 5.6,-5.6 l 197.4,0 c 3.1,0 5.6,2.5 5.6,5.6 l 0,182.3 c 0,3.1 -2.5,5.6 -5.6,5.6 z"
           id="path18"
           inkscape:connector-curvature="0"
           style="fill:url(#SVGID_1_)" /><linearGradient
           id="SVGID_2_"
           gradientUnits="userSpaceOnUse"
           x1="120.0827"
           y1="-11.8017"
           x2="106.6593"
           y2="116.6746"
           gradientTransform="matrix(1,0,0,-1,0,206)"><stop
             offset="0"
             style="stop-color:#E6E6E6"
             id="stop21" /><stop
             offset="0.5331"
             style="stop-color:#DDDDDD"
             id="stop23" /><stop
             offset="0.7389"
             style="stop-color:#D3D3D3"
             id="stop25" /><stop
             offset="1"
             style="stop-color:#C0C0C0"
             id="stop27" /></linearGradient><path
           class="st1"
           d="m 7.8,117.7 0,77.5 c 0,3.1 2.5,5.6 5.6,5.6 l 197.4,0 c 3.1,0 5.6,-2.5 5.6,-5.6 l 0,-107.9 C 146.8,94.7 79.6,103.8 7.8,117.7 Z"
           id="path29"
           inkscape:connector-curvature="0"
           style="fill:url(#SVGID_2_)" /><path
           class="st2"
           d="m 210.8,200.8 -197.4,0 c -3.1,0 -5.6,-2.5 -5.6,-5.6 l 0,-182.3 c 0,-3.1 2.5,-5.6 5.6,-5.6 l 197.4,0 c 3.1,0 5.6,2.5 5.6,5.6 l 0,182.3 c 0,3.1 -2.5,5.6 -5.6,5.6 z"
           id="path31"
           inkscape:connector-curvature="0"
           style="fill:none;stroke:#003b86;stroke-width:2.7420001;stroke-miterlimit:10" /></g><g
         id="g33"><g
           id="g35"><g
             id="g37"><path
               class="st3"
               d="m 118.5,28.6 -0.1,0 c -0.1,0 -0.2,0 -0.3,0 l -12,0 c -0.1,0 -0.2,0 -0.3,0 l -0.1,0 c -0.2,0 -0.3,-0.1 -0.4,-0.2 l -2.9,-3.8 C 102,24.1 102,23.5 102.2,23 c 0.2,-0.4 0.5,-0.6 0.9,-0.6 l 17.4,0 c 0.6,0 1.1,0.3 1.3,0.7 0.2,0.4 0.2,1 -0.1,1.4 l -2.9,3.8 c 0,0.3 -0.2,0.3 -0.3,0.3 z"
               id="path39"
               inkscape:connector-curvature="0"
               style="fill:#ffffff" /><path
               class="st4"
               d="m 120.6,23 c 0.8,0 1.1,0.8 0.8,1.3 -1,1.3 -2.3,3.1 -2.9,3.8 -0.1,0 -0.3,-0.1 -0.4,-0.1 l -12,0 c -0.1,0 -0.3,0 -0.4,0.1 -0.6,-0.7 -1.8,-2.5 -2.9,-3.8 -0.4,-0.5 -0.3,-1.3 0.3,-1.3 3.8,0 13.4,0 17.5,0 l 0,0 z m 0,-1 -17.4,0 c -0.6,0 -1.1,0.3 -1.4,0.8 -0.3,0.6 -0.2,1.5 0.3,2.1 l 2,2.7 0.8,1.1 c 0.2,0.3 0.5,0.4 0.8,0.4 0.1,0 0.2,0 0.3,0 0.1,0 0.1,0 0.1,0 l 12,0 c 0,0 0,0 0.1,0 0.1,0 0.2,0 0.3,0 0.3,0 0.6,-0.1 0.8,-0.4 l 1.8,-2.4 1,-1.4 c 0.4,-0.6 0.5,-1.3 0.2,-1.9 -0.3,-0.6 -0.9,-1 -1.7,-1 l 0,0 z"
               id="path41"
               inkscape:connector-curvature="0"
               style="fill:#003b86" /></g><g
             id="g43"><path
               class="st3"
               d="m 112.1,57.8 c -10.1,0 -18.3,-6.3 -18.3,-14 0,-2.6 0.9,-5.1 2.7,-7.3 0.2,-0.2 0.4,-0.5 0.6,-0.7 2.1,-2.3 4.9,-4 8.3,-5 0,0 0.1,0 0.2,0 0.1,0 0.1,0 0.2,0 l 0.1,0.1 c 0.1,0 0.2,0 0.3,0 l 12,0 c 0.1,0 0.3,0 0.4,-0.1 0.1,0 0.1,0 0.2,0 0.1,0 0.1,0 0.2,0 3.3,1 6.2,2.8 8.3,5 1.1,1.2 1.9,2.5 2.5,3.9 0.5,1.3 0.8,2.7 0.8,4.2 -0.2,7.6 -8.4,13.9 -18.5,13.9 z"
               id="path45"
               inkscape:connector-curvature="0"
               style="fill:#ffffff" /><path
               class="st4"
               d="m 105.5,31.2 c 0.1,0 0.1,0 0.2,0.1 l 0.1,0 c 0.1,0 0.3,0.1 0.4,0.1 l 12,0 c 0.2,0 0.4,-0.1 0.6,-0.1 3.2,1 6,2.7 8,4.9 1.1,1.2 1.9,2.4 2.4,3.7 0.5,1.3 0.8,2.6 0.8,4 0,7.5 -8,13.5 -17.8,13.5 -9.8,0 -17.8,-6.1 -17.8,-13.5 0,-2.5 0.9,-4.9 2.6,-7 0.2,-0.2 0.4,-0.5 0.6,-0.7 1.9,-2.3 4.6,-4 7.9,-5 l 0,0 z m 0,-1 c -0.1,0 -0.2,0 -0.3,0 -3.4,1 -6.4,2.8 -8.5,5.2 -0.2,0.2 -0.4,0.4 -0.6,0.8 -1.8,2.3 -2.8,4.9 -2.8,7.6 0,8 8.5,14.6 18.8,14.6 10.4,0 18.8,-6.5 18.8,-14.6 0,-1.5 -0.3,-2.9 -0.9,-4.3 -0.6,-1.4 -1.5,-2.8 -2.6,-4 -2.1,-2.3 -5.1,-4.1 -8.5,-5.2 -0.1,0 -0.2,0 -0.3,0 -0.1,0 -0.3,0 -0.4,0.1 -0.1,0 -0.1,0.1 -0.2,0.1 l -12,0 -0.1,0 -0.1,0 c 0,-0.3 -0.2,-0.3 -0.3,-0.3 l 0,0 z"
               id="path47"
               inkscape:connector-curvature="0"
               style="fill:#003b86" /></g><g
             id="g49"><g
               id="g51"><path
                 class="st4"
                 d="m 110.9,52.3 c -0.1,0 -0.3,-0.1 -0.3,-0.3 l 0,-0.9 c -3.8,-0.4 -6.5,-2.1 -6.5,-4.3 0,-0.1 0,-0.1 0.1,-0.2 0,0 0.1,-0.1 0.2,-0.1 l 2.8,0 c 0.1,0 0.3,0.1 0.3,0.3 0,0.6 1.2,1.4 3.2,1.7 l 0,-3.6 c -2.2,-0.2 -4.2,-0.9 -5.4,-2 -0.7,-0.7 -1.1,-1.5 -1.1,-2.3 0,-2.2 2.6,-4 6.4,-4.4 l 0,-0.8 c 0,-0.1 0,-0.1 0.1,-0.2 0,0 0.1,-0.1 0.2,-0.1 l 2.6,0 c 0.1,0 0.3,0.1 0.3,0.3 l 0,0.8 c 3.8,0.4 6.5,2.1 6.5,4.3 0,0.1 0,0.1 -0.1,0.2 0,0 -0.1,0.1 -0.2,0.1 l -2.8,0 c -0.1,0 -0.3,-0.1 -0.3,-0.3 0,-0.6 -1.2,-1.4 -3.2,-1.7 l 0,3.6 c 1.7,0.2 3.3,0.6 4.4,1.3 1.3,0.8 2.1,1.8 2.1,3 0,2.2 -2.6,4 -6.4,4.4 l 0,0.9 c 0,0.1 0,0.1 -0.1,0.2 0,0 -0.1,0.1 -0.2,0.1 l -2.6,0 z m 2.8,-3.8 c 2,-0.3 3.2,-1.1 3.2,-1.7 0,-0.6 -1.2,-1.4 -3.2,-1.7 l 0,3.4 z m -3.2,-9.6 c -2,0.3 -3.2,1.1 -3.2,1.7 0,0.2 0.1,0.4 0.4,0.6 0.6,0.5 1.6,0.9 2.8,1 l 0,-3.3 z"
                 id="path53"
                 inkscape:connector-curvature="0"
                 style="fill:#003b86" /><path
                 class="st4"
                 d="m 113.3,35.3 0,1.1 c 3.7,0.3 6.5,2 6.5,4.1 l -2.8,0 c 0,-0.8 -1.5,-1.7 -3.7,-2 l 0,4.1 c 1.8,0.1 3.4,0.6 4.6,1.3 1.2,0.7 1.9,1.7 1.9,2.8 0,2.1 -2.7,3.8 -6.4,4.2 l 0,1.2 -2.6,0 0,-1.2 c -3.7,-0.3 -6.5,-2 -6.5,-4.1 l 2.7,0 c 0,0.8 1.5,1.7 3.7,2 l 0,-4.1 c -2.3,-0.2 -4.3,-0.9 -5.4,-2 -0.7,-0.6 -1.1,-1.3 -1.1,-2.1 0,-2.1 2.7,-3.8 6.4,-4.2 l 0,-1.1 2.7,0 0,0 z m -2.5,7.2 0,-0.5 0,-3.5 c -2.2,0.3 -3.7,1.2 -3.7,2 0,0.3 0.2,0.5 0.5,0.8 0.5,0.6 1.7,1.1 3.2,1.2 l 0,0 z m 2.6,6.2 c 2.2,-0.3 3.7,-1.2 3.7,-2 0,-0.8 -1.5,-1.7 -3.7,-2 l 0,4 0,0 z m -0.1,-13.9 0,0 -2.6,0 c -0.3,0 -0.5,0.2 -0.5,0.5 l 0,0.6 c -3.8,0.5 -6.5,2.4 -6.4,4.6 0,0.9 0.4,1.8 1.2,2.5 1.2,1.1 3.1,1.8 5.3,2 l 0,3 c -1.8,-0.3 -2.7,-1 -2.7,-1.4 0,-0.1 -0.1,-0.3 -0.2,-0.4 -0.1,-0.1 -0.2,-0.1 -0.4,-0.1 l 0,0 -2.7,0 c -0.1,0 -0.3,0.1 -0.4,0.2 -0.1,0.1 -0.1,0.2 -0.1,0.4 0,2.3 2.7,4.1 6.5,4.5 l 0,0.7 c 0,0.1 0.1,0.3 0.2,0.4 0.1,0.1 0.2,0.1 0.4,0.1 l 0,0 2.6,0 c 0.1,0 0.3,-0.1 0.4,-0.2 0.1,-0.1 0.1,-0.2 0.1,-0.4 l 0,-0.7 c 3.8,-0.5 6.5,-2.4 6.4,-4.6 0,-1.2 -0.8,-2.4 -2.2,-3.2 -1.2,-0.7 -2.6,-1.2 -4.3,-1.3 l 0,-3 c 1.8,0.3 2.7,1 2.7,1.4 0,0.3 0.2,0.5 0.5,0.5 l 0,0 2.8,0 c 0.3,0 0.5,-0.2 0.5,-0.5 0,-2.3 -2.7,-4.1 -6.5,-4.5 l 0,-0.6 c 0,-0.3 -0.3,-0.5 -0.6,-0.5 l 0,0 z m -3,7.1 c -1,-0.2 -1.9,-0.5 -2.4,-0.9 -0.2,-0.2 -0.3,-0.3 -0.3,-0.4 0,-0.4 0.9,-1.1 2.7,-1.4 l 0,2.7 0,0 z m 3.7,6.2 0,-2.8 c 1.8,0.3 2.7,1 2.7,1.4 -0.1,0.4 -1,1.1 -2.7,1.4 l 0,0 z"
                 id="path55"
                 inkscape:connector-curvature="0"
                 style="fill:#003b86" /></g></g><g
             id="g57"><path
               class="st3"
               d="m 106.1,31.1 c -0.1,0 -0.2,0 -0.3,-0.1 -0.6,-0.2 -1,-0.7 -1,-1.3 0,-0.8 0.6,-1.4 1.3,-1.4 l 12,0 c 0.1,0 0.2,0 0.4,0.1 0.6,0.2 0.9,0.7 0.9,1.3 0,0.8 -0.6,1.4 -1.3,1.4 l -12,0 z"
               id="path59"
               inkscape:connector-curvature="0"
               style="fill:#ffffff" /><path
               class="st4"
               d="m 118.1,28.9 c 0.1,0 0.2,0 0.2,0 l 0,0 c 0.3,0.1 0.5,0.4 0.5,0.8 0,0.5 -0.4,0.8 -0.8,0.8 l -12,0 c -0.1,0 -0.1,0 -0.2,0 l 0,0 c -0.3,-0.1 -0.6,-0.4 -0.6,-0.8 0,-0.5 0.4,-0.9 0.8,-0.9 l 12.1,0 0,0.1 z m 0,-1.1 -12,0 c -1,0 -1.8,0.8 -1.8,1.9 0,0.8 0.5,1.5 1.3,1.8 l 0,0 c 0,0 0,0 0.1,0 0.2,0 0.3,0.1 0.5,0.1 l 12,0 c 1,0 1.8,-0.8 1.8,-1.9 0,-0.8 -0.5,-1.5 -1.2,-1.8 l -0.1,0 c -0.3,0 -0.4,-0.1 -0.6,-0.1 l 0,0 z"
               id="path61"
               inkscape:connector-curvature="0"
               style="fill:#003b86" /></g></g><g
           id="g63"><g
             id="g65"><path
               class="st3"
               d="m 118.5,92.6 -0.1,0 c -0.1,0 -0.2,0 -0.3,0 l -12,0 c -0.1,0 -0.2,0 -0.3,0 l -0.1,0 c -0.2,0 -0.3,-0.1 -0.4,-0.2 l -2.9,-3.8 C 102,88.1 102,87.5 102.2,87 c 0.2,-0.4 0.5,-0.6 0.9,-0.6 l 17.4,0 c 0.6,0 1.1,0.3 1.3,0.7 0.2,0.4 0.2,1 -0.1,1.4 l -2.9,3.8 c 0,0.2 -0.2,0.3 -0.3,0.3 z"
               id="path67"
               inkscape:connector-curvature="0"
               style="fill:#ffffff" /><path
               class="st4"
               d="m 120.6,86.9 c 0.8,0 1.1,0.8 0.8,1.3 -1,1.3 -2.3,3.1 -2.9,3.8 -0.1,0 -0.3,-0.1 -0.4,-0.1 l -12,0 c -0.1,0 -0.3,0 -0.4,0.1 -0.6,-0.7 -1.8,-2.5 -2.9,-3.8 -0.4,-0.5 -0.3,-1.3 0.3,-1.3 3.8,0 13.4,0 17.5,0 l 0,0 z m 0,-1 -17.4,0 c -0.6,0 -1.1,0.3 -1.4,0.8 -0.3,0.6 -0.2,1.5 0.3,2.1 l 2,2.7 0.8,1.1 c 0.2,0.3 0.5,0.4 0.8,0.4 0.1,0 0.2,0 0.3,0 0.1,0 0.1,0 0.1,0 l 12,0 c 0,0 0,0 0.1,0 0.1,0 0.2,0 0.3,0 0.3,0 0.6,-0.1 0.8,-0.4 l 1.8,-2.4 1,-1.4 c 0.4,-0.6 0.5,-1.3 0.2,-1.9 -0.3,-0.6 -0.9,-1 -1.7,-1 l 0,0 z"
               id="path69"
               inkscape:connector-curvature="0"
               style="fill:#003b86" /></g><g
             id="g71"><path
               class="st3"
               d="m 112.1,121.7 c -10.1,0 -18.3,-6.3 -18.3,-14 0,-2.6 0.9,-5.1 2.7,-7.3 0.2,-0.2 0.4,-0.5 0.6,-0.7 2.1,-2.3 4.9,-4 8.3,-5 0,0 0.1,0 0.2,0 0.1,0 0.1,0 0.2,0 l 0.1,0.1 c 0.1,0 0.2,0 0.3,0 l 12,0 c 0.1,0 0.3,0 0.4,-0.1 0.1,0 0.1,0 0.2,0 0.1,0 0.1,0 0.2,0 3.3,1 6.2,2.8 8.3,5 1.1,1.2 1.9,2.5 2.5,3.9 0.5,1.3 0.8,2.7 0.8,4.1 -0.2,7.7 -8.4,14 -18.5,14 z"
               id="path73"
               inkscape:connector-curvature="0"
               style="fill:#ffffff" /><path
               class="st4"
               d="m 105.5,95.1 c 0.1,0 0.1,0 0.2,0.1 l 0.1,0 c 0.1,0 0.3,0.1 0.4,0.1 l 12,0 c 0.2,0 0.4,-0.1 0.6,-0.1 3.2,1 6,2.7 8,4.9 1.1,1.2 1.9,2.4 2.4,3.7 0.5,1.3 0.8,2.6 0.8,4 0,7.5 -8,13.5 -17.8,13.5 -9.8,0 -17.8,-6.1 -17.8,-13.5 0,-2.5 0.9,-4.9 2.6,-7 0.2,-0.2 0.4,-0.5 0.6,-0.7 1.9,-2.3 4.6,-4 7.9,-5 l 0,0 z m 0,-1 c -0.1,0 -0.2,0 -0.3,0 -3.4,1 -6.4,2.8 -8.5,5.2 -0.2,0.2 -0.4,0.4 -0.6,0.8 -1.8,2.3 -2.8,4.9 -2.8,7.6 0,8 8.5,14.6 18.8,14.6 10.4,0 18.8,-6.5 18.8,-14.6 0,-1.5 -0.3,-2.9 -0.9,-4.3 -0.6,-1.4 -1.5,-2.8 -2.6,-4 -2.1,-2.3 -5.1,-4.1 -8.5,-5.2 -0.1,0 -0.2,0 -0.3,0 -0.1,0 -0.3,0 -0.4,0.1 -0.1,0 -0.1,0.1 -0.2,0.1 l -12,0 -0.1,0 -0.1,0 c 0,-0.3 -0.2,-0.3 -0.3,-0.3 l 0,0 z"
               id="path75"
               inkscape:connector-curvature="0"
               style="fill:#003b86" /></g><g
             id="g77"><g
               id="g79"><path
                 class="st4"
                 d="m 110.9,116.2 c -0.1,0 -0.3,-0.1 -0.3,-0.3 l 0,-0.9 c -3.8,-0.4 -6.5,-2.1 -6.5,-4.3 0,-0.1 0,-0.1 0.1,-0.2 0,0 0.1,-0.1 0.2,-0.1 l 2.8,0 c 0.1,0 0.3,0.1 0.3,0.3 0,0.6 1.2,1.4 3.2,1.7 l 0,-3.6 c -2.2,-0.2 -4.2,-0.9 -5.4,-2 -0.7,-0.7 -1.1,-1.5 -1.1,-2.3 0,-2.2 2.6,-4 6.4,-4.4 l 0,-0.8 c 0,-0.1 0,-0.1 0.1,-0.2 0,0 0.1,-0.1 0.2,-0.1 l 2.6,0 c 0.1,0 0.3,0.1 0.3,0.3 l 0,0.8 c 3.8,0.4 6.5,2.1 6.5,4.3 0,0.1 0,0.1 -0.1,0.2 0,0 -0.1,0.1 -0.2,0.1 l -2.8,0 c -0.1,0 -0.1,0 -0.2,-0.1 0,0 -0.1,-0.1 -0.1,-0.2 0,-0.6 -1.2,-1.4 -3.2,-1.7 l 0,3.6 c 1.7,0.2 3.3,0.6 4.4,1.3 1.3,0.8 2.1,1.8 2.1,3 0,2.2 -2.6,4 -6.4,4.4 l 0,0.9 c 0,0.1 0,0.1 -0.1,0.2 0,0 -0.1,0.1 -0.2,0.1 l -2.6,0 z m 2.8,-3.8 c 2,-0.3 3.2,-1.1 3.2,-1.7 0,-0.6 -1.2,-1.4 -3.2,-1.7 l 0,3.4 z m -3.2,-9.6 c -2,0.3 -3.2,1.1 -3.2,1.7 0,0.2 0.1,0.4 0.4,0.6 0.6,0.5 1.6,0.9 2.8,1 l 0,-3.3 z"
                 id="path81"
                 inkscape:connector-curvature="0"
                 style="fill:#003b86" /><path
                 class="st4"
                 d="m 113.3,99.2 0,1.1 c 3.7,0.3 6.5,2 6.5,4.1 l -2.8,0 c 0,-0.8 -1.5,-1.7 -3.7,-2 l 0,4.1 c 1.8,0.1 3.4,0.6 4.6,1.3 1.2,0.7 1.9,1.7 1.9,2.8 0,2.1 -2.7,3.8 -6.4,4.2 l 0,1.2 -2.6,0 0,-1.2 c -3.7,-0.3 -6.5,-2 -6.5,-4.1 l 2.7,0 c 0,0.8 1.5,1.7 3.7,2 l 0,-4.1 c -2.3,-0.2 -4.3,-0.9 -5.4,-2 -0.7,-0.6 -1.1,-1.3 -1.1,-2.1 0,-2.1 2.7,-3.8 6.4,-4.2 l 0,-1.1 2.7,0 0,0 z m -2.5,7.2 0,-0.5 0,-3.5 c -2.2,0.3 -3.7,1.2 -3.7,2 0,0.3 0.2,0.5 0.5,0.8 0.5,0.6 1.7,1.1 3.2,1.2 l 0,0 z m 2.6,6.3 c 2.2,-0.3 3.7,-1.2 3.7,-2 0,-0.8 -1.5,-1.7 -3.7,-2 l 0,4 0,0 z m -0.1,-14 0,0 -2.6,0 c -0.3,0 -0.5,0.2 -0.5,0.5 l 0,0.6 c -3.8,0.5 -6.5,2.4 -6.4,4.6 0,0.9 0.4,1.8 1.2,2.5 1.2,1.1 3.1,1.8 5.3,2 l 0,3 c -1.8,-0.3 -2.7,-1 -2.7,-1.4 0,-0.1 -0.1,-0.3 -0.2,-0.4 -0.1,-0.1 -0.2,-0.1 -0.4,-0.1 l 0,0 -2.7,0 c -0.1,0 -0.3,0.1 -0.4,0.2 -0.1,0.1 -0.1,0.2 -0.1,0.4 0,2.3 2.7,4.1 6.5,4.5 l 0,0.7 c 0,0.1 0.1,0.3 0.2,0.4 0.1,0.1 0.2,0.1 0.4,0.1 l 0,0 2.6,0 c 0.1,0 0.3,-0.1 0.4,-0.2 0.1,-0.1 0.1,-0.2 0.1,-0.4 l 0,-0.7 c 3.8,-0.5 6.5,-2.4 6.4,-4.6 0,-1.2 -0.8,-2.4 -2.2,-3.2 -1.2,-0.7 -2.6,-1.2 -4.3,-1.3 l 0,-3 c 1.8,0.3 2.7,1 2.7,1.4 0,0.3 0.2,0.5 0.5,0.5 l 0,0 2.8,0 c 0.3,0 0.5,-0.2 0.5,-0.5 0,-2.3 -2.7,-4.1 -6.5,-4.5 l 0,-0.6 c 0,-0.2 -0.3,-0.5 -0.6,-0.5 l 0,0 z m -3,7.2 c -1,-0.2 -1.9,-0.5 -2.4,-0.9 -0.2,-0.2 -0.3,-0.3 -0.3,-0.4 0,-0.4 0.9,-1.1 2.7,-1.4 l 0,2.7 0,0 z m 3.7,6.2 0,-2.8 c 1.8,0.3 2.7,1 2.7,1.4 -0.1,0.3 -1,1 -2.7,1.4 l 0,0 z"
                 id="path83"
                 inkscape:connector-curvature="0"
                 style="fill:#003b86" /></g></g><g
             id="g85"><path
               class="st3"
               d="m 106.1,95 c -0.1,0 -0.2,0 -0.3,-0.1 -0.6,-0.2 -1,-0.7 -1,-1.3 0,-0.8 0.6,-1.4 1.3,-1.4 l 12,0 c 0.1,0 0.3,0 0.4,0.1 0.6,0.2 0.9,0.7 0.9,1.3 0,0.8 -0.6,1.4 -1.3,1.4 l -12,0 z"
               id="path87"
               inkscape:connector-curvature="0"
               style="fill:#ffffff" /><path
               class="st4"
               d="m 118.1,92.8 c 0.1,0 0.2,0 0.2,0 l 0,0 c 0.3,0.1 0.5,0.4 0.5,0.8 0,0.5 -0.4,0.8 -0.8,0.8 l -12,0 c -0.1,0 -0.1,0 -0.2,0 l 0,0 c -0.3,-0.1 -0.6,-0.4 -0.6,-0.8 0,-0.5 0.4,-0.9 0.8,-0.9 l 12.1,0.1 0,0 z m 0,-1.1 -12,0 c -1,0 -1.8,0.8 -1.8,1.9 0,0.8 0.5,1.5 1.3,1.8 l 0,0 c 0,0 0,0 0.1,0 0.2,0 0.3,0.1 0.5,0.1 l 12,0 c 1,0 1.8,-0.8 1.8,-1.9 0,-0.8 -0.5,-1.5 -1.2,-1.8 l -0.1,0 c -0.3,0 -0.4,-0.1 -0.6,-0.1 l 0,0 z"
               id="path89"
               inkscape:connector-curvature="0"
               style="fill:#003b86" /></g></g><g
           id="g91"><g
             id="g93"><path
               class="st3"
               d="m 118.5,156.5 -0.1,0 c -0.1,0 -0.2,0 -0.3,0 l -12,0 c -0.1,0 -0.2,0 -0.3,0 l -0.1,0 c -0.2,0 -0.3,-0.1 -0.4,-0.2 l -2.8,-3.8 c -0.4,-0.5 -0.4,-1.1 -0.2,-1.6 0.2,-0.4 0.5,-0.6 0.9,-0.6 l 17.4,0 c 0.6,0 1.1,0.3 1.3,0.7 0.2,0.4 0.2,1 -0.1,1.4 l -2.9,3.8 c -0.1,0.2 -0.3,0.3 -0.4,0.3 z"
               id="path95"
               inkscape:connector-curvature="0"
               style="fill:#ffffff" /><path
               class="st4"
               d="m 120.6,150.8 c 0.8,0 1.1,0.8 0.8,1.3 -1,1.3 -2.3,3.1 -2.9,3.8 -0.1,0 -0.3,-0.1 -0.4,-0.1 l -12,0 c -0.1,0 -0.3,0 -0.4,0.1 -0.6,-0.7 -1.8,-2.5 -2.9,-3.8 -0.4,-0.5 -0.3,-1.3 0.3,-1.3 3.8,0 13.4,0 17.5,0 l 0,0 z m 0,-1 -17.4,0 c -0.6,0 -1.1,0.3 -1.4,0.8 -0.3,0.6 -0.2,1.5 0.3,2.1 l 2,2.7 0.8,1.1 c 0.2,0.3 0.5,0.4 0.8,0.4 0.1,0 0.2,0 0.3,0 0.1,0 0.1,0 0.1,0 l 12,0 c 0,0 0,0 0.1,0 0.1,0 0.2,0 0.3,0 0.3,0 0.6,-0.1 0.8,-0.4 l 2,-2.7 0.9,-1.1 c 0.4,-0.6 0.5,-1.3 0.2,-1.9 -0.4,-0.6 -1,-1 -1.8,-1 l 0,0 z"
               id="path97"
               inkscape:connector-curvature="0"
               style="fill:#003b86" /></g><g
             id="g99"><path
               class="st3"
               d="m 112.1,185.6 c -10.1,0 -18.3,-6.3 -18.3,-14 0,-2.6 0.9,-5.1 2.7,-7.3 0.2,-0.2 0.4,-0.5 0.6,-0.7 2.1,-2.3 4.9,-4 8.3,-5 0,0 0.1,0 0.2,0 0.1,0 0.1,0 0.2,0 l -0.1,0.5 0.2,-0.5 c 0.1,0 0.2,0.1 0.3,0.1 l 12,0 c 0.1,0 0.3,0 0.4,-0.1 0.1,0 0.1,0 0.2,0 0.1,0 0.1,0 0.2,0 3.3,1 6.2,2.8 8.3,5 1.1,1.2 1.9,2.5 2.5,3.9 0.5,1.3 0.8,2.7 0.8,4.1 -0.2,7.7 -8.4,14 -18.5,14 z"
               id="path101"
               inkscape:connector-curvature="0"
               style="fill:#ffffff" /><path
               class="st4"
               d="m 105.5,159 c 0.1,0 0.1,0 0.2,0.1 l 0.1,0 c 0.1,0 0.3,0.1 0.4,0.1 l 12,0 c 0.2,0 0.4,-0.1 0.6,-0.1 3.2,1 6,2.7 8,4.9 1.1,1.2 1.9,2.4 2.4,3.7 0.5,1.3 0.8,2.6 0.8,4 0,7.5 -8,13.5 -17.8,13.5 -9.8,0 -17.8,-6.1 -17.8,-13.5 0,-2.5 0.9,-4.9 2.6,-7 0.2,-0.2 0.4,-0.5 0.6,-0.7 1.9,-2.3 4.6,-4 7.9,-5 l 0,0 z m 0,-1 c -0.1,0 -0.2,0 -0.3,0 -3.4,1 -6.4,2.8 -8.5,5.2 -0.2,0.2 -0.4,0.4 -0.6,0.8 -1.8,2.3 -2.8,4.9 -2.8,7.6 0,8 8.5,14.6 18.8,14.6 10.4,0 18.8,-6.5 18.8,-14.6 0,-1.5 -0.3,-2.9 -0.9,-4.3 -0.6,-1.4 -1.5,-2.8 -2.6,-4 -2.1,-2.3 -5.1,-4.1 -8.5,-5.2 -0.1,0 -0.2,0 -0.3,0 -0.1,0 -0.3,0 -0.4,0.1 -0.1,0 -0.1,0.1 -0.2,0.1 l -12,0 -0.1,0 -0.1,0 c 0,-0.3 -0.2,-0.3 -0.3,-0.3 l 0,0 z"
               id="path103"
               inkscape:connector-curvature="0"
               style="fill:#003b86" /></g><g
             id="g105"><g
               id="g107"><path
                 class="st4"
                 d="m 110.9,180.1 c -0.1,0 -0.1,0 -0.2,-0.1 0,0 -0.1,-0.1 -0.1,-0.2 l 0,-0.9 c -3.8,-0.4 -6.5,-2.1 -6.5,-4.3 0,-0.1 0,-0.1 0.1,-0.2 0,0 0.1,-0.1 0.2,-0.1 l 2.8,0 c 0.1,0 0.3,0.1 0.3,0.3 0,0.6 1.2,1.4 3.2,1.7 l 0,-3.6 c -2.2,-0.2 -4.2,-0.9 -5.4,-2 -0.7,-0.7 -1.1,-1.5 -1.1,-2.3 0,-2.2 2.6,-4 6.4,-4.4 l 0,-0.8 c 0,-0.1 0,-0.1 0.1,-0.2 0,0 0.1,-0.1 0.2,-0.1 l 2.6,0 c 0.1,0 0.3,0.1 0.3,0.3 l 0,0.8 c 3.8,0.4 6.5,2.1 6.5,4.3 0,0.1 0,0.1 -0.1,0.2 0,0 -0.1,0.1 -0.2,0.1 l -2.8,0 c -0.1,0 -0.1,0 -0.2,-0.1 0,0 -0.1,-0.1 -0.1,-0.2 0,-0.6 -1.2,-1.4 -3.2,-1.7 l 0,3.6 c 1.7,0.2 3.3,0.6 4.4,1.3 1.3,0.8 2.1,1.8 2.1,3 0,2.2 -2.6,4 -6.4,4.4 l 0,0.9 c 0,0.1 -0.1,0.3 -0.3,0.3 l -2.6,0 z m 2.8,-3.8 c 2,-0.3 3.2,-1.1 3.2,-1.7 0,-0.6 -1.2,-1.4 -3.2,-1.7 l 0,3.4 z m -3.2,-9.6 c -2,0.3 -3.2,1.1 -3.2,1.7 0,0.2 0.1,0.4 0.4,0.6 0.6,0.5 1.6,0.9 2.8,1 l 0,-3.3 z"
                 id="path109"
                 inkscape:connector-curvature="0"
                 style="fill:#003b86" /><path
                 class="st4"
                 d="m 113.3,163.2 0,1.1 c 3.7,0.3 6.5,2 6.5,4.1 l -2.8,0 c 0,-0.8 -1.5,-1.7 -3.7,-2 l 0,4.1 c 1.8,0.1 3.4,0.6 4.6,1.3 1.2,0.7 1.9,1.7 1.9,2.8 0,2.1 -2.7,3.8 -6.4,4.2 l 0,1.2 -2.6,0 0,-1.2 c -3.7,-0.3 -6.5,-2 -6.5,-4.1 l 2.7,0 c 0,0.8 1.5,1.7 3.7,2 l 0,-4.1 c -2.3,-0.2 -4.3,-0.9 -5.4,-2 -0.7,-0.6 -1.1,-1.3 -1.1,-2.1 0,-2.1 2.7,-3.8 6.4,-4.2 l 0,-1.1 2.7,0 0,0 z m -2.5,7.2 0,-0.5 0,-3.5 c -2.2,0.3 -3.7,1.2 -3.7,2 0,0.3 0.2,0.5 0.5,0.8 0.5,0.5 1.7,1 3.2,1.2 l 0,0 z m 2.6,6.2 c 2.2,-0.3 3.7,-1.2 3.7,-2 0,-0.8 -1.5,-1.7 -3.7,-2 l 0,4 0,0 z m -0.1,-14 0,0 -2.6,0 c -0.3,0 -0.5,0.2 -0.5,0.5 l 0,0.6 c -3.8,0.5 -6.5,2.4 -6.4,4.6 0,0.9 0.4,1.8 1.2,2.5 1.2,1.1 3.1,1.8 5.3,2 l 0,3 c -1.8,-0.3 -2.7,-1 -2.7,-1.4 0,-0.1 -0.1,-0.3 -0.2,-0.4 -0.1,-0.1 -0.2,-0.1 -0.4,-0.1 l 0,0 -2.7,0 c -0.1,0 -0.3,0.1 -0.4,0.2 -0.1,0.1 -0.1,0.2 -0.1,0.4 0,2.3 2.7,4.1 6.5,4.5 l 0,0.7 c 0,0.1 0.1,0.3 0.2,0.4 0.1,0.1 0.2,0.1 0.4,0.1 l 0,0 2.6,0 c 0.1,0 0.3,-0.1 0.4,-0.2 0.1,-0.1 0.1,-0.2 0.1,-0.4 l 0,-0.7 c 3.8,-0.5 6.5,-2.4 6.4,-4.6 0,-1.2 -0.8,-2.4 -2.2,-3.2 -1.2,-0.7 -2.6,-1.2 -4.3,-1.3 l 0,-3 c 1.8,0.3 2.7,1 2.7,1.4 0,0.3 0.2,0.5 0.5,0.5 l 0,0 2.8,0 c 0.3,0 0.5,-0.2 0.5,-0.5 0,-2.3 -2.7,-4.1 -6.5,-4.5 l 0,-0.6 c 0,-0.2 -0.3,-0.5 -0.6,-0.5 l 0,0 z m -3,7.2 c -1,-0.2 -1.9,-0.5 -2.4,-0.9 -0.2,-0.2 -0.3,-0.3 -0.3,-0.4 0,-0.4 0.9,-1.1 2.7,-1.4 l 0,2.7 0,0 z m 3.7,6.2 0,-2.8 c 1.8,0.3 2.7,1 2.7,1.4 -0.1,0.3 -1,1 -2.7,1.4 l 0,0 z"
                 id="path111"
                 inkscape:connector-curvature="0"
                 style="fill:#003b86" /></g></g><g
             id="g113"><path
               class="st3"
               d="m 106.1,158.9 c -0.1,0 -0.2,0 -0.3,0 -0.6,-0.2 -1,-0.7 -1,-1.3 0,-0.8 0.6,-1.4 1.3,-1.4 l 12,0 c 0.1,0 0.3,0 0.4,0.1 0.6,0.2 0.9,0.7 0.9,1.3 0,0.8 -0.6,1.4 -1.3,1.4 l -12,0 0,-0.1 z"
               id="path115"
               inkscape:connector-curvature="0"
               style="fill:#ffffff" /><path
               class="st4"
               d="m 118.1,156.7 c 0.1,0 0.2,0 0.2,0 l 0,0 c 0.3,0.1 0.5,0.4 0.5,0.8 0,0.5 -0.4,0.9 -0.8,0.9 l -12,0 c -0.1,0 -0.1,0 -0.2,0 l 0,0 c -0.3,-0.1 -0.6,-0.4 -0.6,-0.8 0,-0.5 0.4,-0.9 0.8,-0.9 l 12.1,0 0,0 z m 0,-1 -12,0 c -1,0 -1.8,0.8 -1.8,1.9 0,0.8 0.5,1.5 1.3,1.8 l 0,0 c 0,0 0,0 0.1,0 0.2,0 0.3,0.1 0.5,0.1 l 12,0 c 1,0 1.8,-0.8 1.8,-1.9 0,-0.8 -0.5,-1.5 -1.2,-1.8 l -0.1,0 c -0.3,-0.1 -0.4,-0.1 -0.6,-0.1 l 0,0 z"
               id="path117"
               inkscape:connector-curvature="0"
               style="fill:#003b86" /></g></g></g><g
         id="g119"><g
           id="g121"><g
             id="g123"><g
               id="g125"><path
                 class="st3"
                 d="m 51.6,28.6 -0.1,0 c -0.1,0 -0.2,0 -0.3,0 l -12,0 c -0.1,0 -0.2,0 -0.3,0 l -0.1,0 c -0.2,0 -0.3,-0.1 -0.4,-0.2 l -2.9,-3.8 c -0.4,-0.5 -0.4,-1.1 -0.2,-1.6 0.2,-0.4 0.5,-0.6 0.9,-0.6 l 17.4,0 c 0.6,0 1.1,0.3 1.3,0.7 0.2,0.4 0.2,1 -0.1,1.4 l -2.9,3.8 c 0,0.3 -0.1,0.3 -0.3,0.3 z"
                 id="path127"
                 inkscape:connector-curvature="0"
                 style="fill:#ffffff" /><path
                 class="st4"
                 d="m 53.7,23 c 0.8,0 1.1,0.8 0.8,1.3 -1,1.3 -2.3,3.1 -2.9,3.8 -0.1,0 -0.3,-0.1 -0.4,-0.1 l -12,0 c -0.1,0 -0.3,0 -0.4,0.1 C 38.2,27.4 37,25.6 35.9,24.3 35.5,23.8 35.6,23 36.2,23 c 3.8,0 13.4,0 17.5,0 l 0,0 z m 0,-1 -17.4,0 c -0.6,0 -1.1,0.3 -1.4,0.8 -0.3,0.6 -0.2,1.5 0.3,2.1 l 2,2.7 0.8,1.1 c 0.2,0.3 0.5,0.4 0.8,0.4 0.1,0 0.2,0 0.3,0 0.1,0 0.1,0 0.1,0 l 12,0 c 0,0 0,0 0.1,0 0.1,0 0.2,0 0.3,0 0.3,0 0.6,-0.1 0.8,-0.4 l 1.8,-2.4 1,-1.4 c 0.4,-0.6 0.5,-1.3 0.2,-1.9 -0.3,-0.6 -0.9,-1 -1.7,-1 l 0,0 z"
                 id="path129"
                 inkscape:connector-curvature="0"
                 style="fill:#003b86" /></g><g
               id="g131"><path
                 class="st3"
                 d="m 45.2,57.8 c -10.1,0 -18.3,-6.3 -18.3,-14 0,-2.6 0.9,-5.1 2.7,-7.3 0.2,-0.2 0.4,-0.5 0.6,-0.7 2.1,-2.3 4.9,-4 8.3,-5 0,0 0.1,0 0.2,0 0.1,0 0.1,0 0.2,0 l 0.1,0.1 c 0.1,0 0.2,0 0.3,0 l 12,0 c 0.1,0 0.3,0 0.4,-0.1 0.1,0 0.1,0 0.2,0 0.1,0 0.1,0 0.2,0 3.3,1 6.2,2.8 8.3,5 1.1,1.2 1.9,2.5 2.5,3.9 0.5,1.3 0.8,2.7 0.8,4.2 -0.1,7.6 -8.4,13.9 -18.5,13.9 z"
                 id="path133"
                 inkscape:connector-curvature="0"
                 style="fill:#ffffff" /><path
                 class="st4"
                 d="m 38.6,31.2 c 0.1,0 0.1,0 0.2,0.1 l 0.1,0 c 0.1,0 0.3,0.1 0.4,0.1 l 12,0 c 0.2,0 0.4,-0.1 0.6,-0.1 3.2,1 6,2.7 8,4.9 1.1,1.2 1.9,2.4 2.4,3.7 0.5,1.3 0.8,2.6 0.8,4 0,7.5 -8,13.5 -17.8,13.5 -9.8,0 -17.8,-6.1 -17.8,-13.5 0,-2.5 0.9,-4.9 2.6,-7 0.2,-0.2 0.4,-0.5 0.6,-0.7 1.9,-2.3 4.7,-4 7.9,-5 l 0,0 z m 0,-1 c -0.1,0 -0.2,0 -0.3,0 -3.4,1 -6.4,2.8 -8.5,5.2 -0.2,0.2 -0.4,0.4 -0.6,0.8 -1.8,2.3 -2.8,4.9 -2.8,7.6 0,8 8.5,14.6 18.8,14.6 10.4,0 18.8,-6.5 18.8,-14.6 0,-1.5 -0.3,-2.9 -0.9,-4.3 -0.6,-1.4 -1.5,-2.8 -2.6,-4 -2.1,-2.3 -5.1,-4.1 -8.5,-5.2 -0.1,0 -0.2,0 -0.3,0 -0.1,0 -0.3,0 -0.4,0.1 -0.1,0 -0.1,0.1 -0.2,0.1 l -12,0 -0.1,0 -0.1,0 c 0,-0.3 -0.1,-0.3 -0.3,-0.3 l 0,0 z"
                 id="path135"
                 inkscape:connector-curvature="0"
                 style="fill:#003b86" /></g><g
               id="g137"><g
                 id="g139"><path
                   class="st4"
                   d="m 44,52.3 c -0.1,0 -0.3,-0.1 -0.3,-0.3 l 0,-0.9 c -3.8,-0.4 -6.5,-2.1 -6.5,-4.3 0,-0.1 0,-0.1 0.1,-0.2 0,0 0.1,-0.1 0.2,-0.1 l 2.8,0 c 0.1,0 0.3,0.1 0.3,0.3 0,0.6 1.2,1.4 3.2,1.7 l 0,-3.6 c -2.2,-0.2 -4.2,-0.9 -5.4,-2 -0.7,-0.7 -1.1,-1.5 -1.1,-2.3 0,-2.2 2.6,-4 6.4,-4.4 l 0,-0.8 c 0,-0.1 0,-0.1 0.1,-0.2 0,0 0.1,-0.1 0.2,-0.1 l 2.6,0 c 0.1,0 0.3,0.1 0.3,0.3 l 0,0.8 c 3.8,0.4 6.5,2.1 6.5,4.3 0,0.1 0,0.1 -0.1,0.2 0,0 -0.1,0.1 -0.2,0.1 l -2.8,0 c -0.1,0 -0.3,-0.1 -0.3,-0.3 0,-0.6 -1.2,-1.4 -3.2,-1.7 l 0,3.6 c 1.7,0.2 3.3,0.6 4.4,1.3 1.3,0.8 2.1,1.8 2.1,3 0,2.2 -2.6,4 -6.4,4.4 l 0,0.9 c 0,0.1 0,0.1 -0.1,0.2 0,0 -0.1,0.1 -0.2,0.1 l -2.6,0 z m 2.8,-3.8 c 2,-0.3 3.2,-1.1 3.2,-1.7 0,-0.6 -1.2,-1.4 -3.2,-1.7 l 0,3.4 z m -3.2,-9.6 c -2,0.3 -3.2,1.1 -3.2,1.7 0,0.2 0.1,0.4 0.4,0.6 0.6,0.5 1.6,0.9 2.8,1 l 0,-3.3 z"
                   id="path141"
                   inkscape:connector-curvature="0"
                   style="fill:#003b86" /><path
                   class="st4"
                   d="m 46.5,35.3 0,1.1 c 3.7,0.3 6.5,2 6.5,4.1 l -2.8,0 c 0,-0.8 -1.5,-1.7 -3.7,-2 l 0,4.1 c 1.8,0.1 3.4,0.6 4.6,1.3 1.2,0.7 1.9,1.7 1.9,2.8 0,2.1 -2.7,3.8 -6.4,4.2 l 0,1.2 -2.6,0 0,-1.2 c -3.7,-0.3 -6.5,-2 -6.5,-4.1 l 2.7,0 c 0,0.8 1.5,1.7 3.7,2 l 0,-4.1 c -2.3,-0.2 -4.3,-0.9 -5.4,-2 -0.7,-0.6 -1.1,-1.3 -1.1,-2.1 0,-2.1 2.7,-3.8 6.4,-4.2 l 0,-1.1 2.7,0 0,0 z m -2.6,7.2 0,-0.5 0,-3.5 c -2.2,0.3 -3.7,1.2 -3.7,2 0,0.3 0.2,0.5 0.5,0.8 0.6,0.6 1.7,1.1 3.2,1.2 l 0,0 z m 2.7,6.2 c 2.2,-0.3 3.7,-1.2 3.7,-2 0,-0.8 -1.5,-1.7 -3.7,-2 l 0,4 0,0 z m -0.1,-13.9 0,0 -2.6,0 c -0.3,0 -0.5,0.2 -0.5,0.5 l 0,0.6 c -3.8,0.5 -6.5,2.4 -6.4,4.6 0,0.9 0.4,1.8 1.2,2.5 1.2,1.1 3.1,1.8 5.3,2 l 0,3 c -1.8,-0.3 -2.7,-1 -2.7,-1.4 0,-0.1 -0.1,-0.3 -0.2,-0.4 -0.1,-0.1 -0.2,-0.1 -0.4,-0.1 l 0,0 -2.7,0 c -0.3,0 -0.5,0.2 -0.5,0.5 0,2.3 2.7,4.1 6.5,4.5 l 0,0.7 c 0,0.1 0.1,0.3 0.2,0.4 0.1,0.1 0.2,0.1 0.4,0.1 l 0,0 2.6,0 c 0.1,0 0.3,-0.1 0.4,-0.2 0.1,-0.1 0.1,-0.2 0.1,-0.4 l 0,-0.7 c 3.8,-0.5 6.5,-2.4 6.4,-4.6 0,-1.2 -0.8,-2.4 -2.2,-3.2 -1.2,-0.7 -2.6,-1.2 -4.3,-1.3 l 0,-3 c 1.8,0.3 2.7,1 2.7,1.4 0,0.3 0.2,0.5 0.5,0.5 l 0,0 2.8,0 c 0.3,0 0.5,-0.2 0.5,-0.5 0,-2.3 -2.7,-4.1 -6.5,-4.5 l 0,-0.6 C 47,35 46.7,34.8 46.5,34.8 l 0,0 z m -3.1,7.1 c -1,-0.2 -1.9,-0.5 -2.4,-0.9 -0.2,-0.2 -0.3,-0.3 -0.3,-0.4 0,-0.4 0.9,-1.1 2.7,-1.4 l 0,2.7 0,0 z m 3.7,6.2 0,-2.8 c 1.8,0.3 2.7,1 2.7,1.4 0,0.4 -0.9,1.1 -2.7,1.4 l 0,0 z"
                   id="path143"
                   inkscape:connector-curvature="0"
                   style="fill:#003b86" /></g></g><g
               id="g145"><path
                 class="st3"
                 d="m 39.2,31.1 c -0.1,0 -0.2,0 -0.3,-0.1 -0.6,-0.2 -1,-0.7 -1,-1.3 0,-0.8 0.6,-1.4 1.3,-1.4 l 12,0 c 0.1,0 0.2,0 0.4,0.1 0.6,0.2 0.9,0.7 0.9,1.3 0,0.8 -0.6,1.4 -1.3,1.4 l -12,0 z"
                 id="path147"
                 inkscape:connector-curvature="0"
                 style="fill:#ffffff" /><path
                 class="st4"
                 d="m 51.2,28.9 c 0.1,0 0.2,0 0.2,0 l 0,0 c 0.3,0.1 0.5,0.4 0.5,0.8 0,0.5 -0.4,0.8 -0.8,0.8 l -12,0 c -0.1,0 -0.1,0 -0.2,0 l 0,0 c -0.3,-0.1 -0.6,-0.4 -0.6,-0.8 0,-0.5 0.4,-0.9 0.8,-0.9 l 12.1,0 0,0.1 z m 0,-1.1 -12,0 c -1,0 -1.8,0.8 -1.8,1.9 0,0.8 0.5,1.5 1.3,1.8 l 0,0 c 0,0 0,0 0.1,0 0.2,0 0.3,0.1 0.5,0.1 l 12,0 c 1,0 1.8,-0.8 1.8,-1.9 0,-0.8 -0.5,-1.5 -1.2,-1.8 l -0.1,0 c -0.2,0 -0.4,-0.1 -0.6,-0.1 l 0,0 z"
                 id="path149"
                 inkscape:connector-curvature="0"
                 style="fill:#003b86" /></g></g><g
             id="g151"><g
               id="g153"><path
                 class="st3"
                 d="m 51.6,92.6 -0.1,0 c -0.1,0 -0.2,0 -0.3,0 l -12,0 c -0.1,0 -0.2,0 -0.3,0 l -0.1,0 c -0.2,0 -0.3,-0.1 -0.4,-0.2 l -2.9,-3.8 c -0.4,-0.5 -0.4,-1.1 -0.2,-1.6 0.2,-0.4 0.5,-0.6 0.9,-0.6 l 17.4,0 c 0.6,0 1.1,0.3 1.3,0.7 0.2,0.4 0.2,1 -0.1,1.4 l -2.9,3.8 c 0,0.2 -0.1,0.3 -0.3,0.3 z"
                 id="path155"
                 inkscape:connector-curvature="0"
                 style="fill:#ffffff" /><path
                 class="st4"
                 d="m 53.7,86.9 c 0.8,0 1.1,0.8 0.8,1.3 -1,1.3 -2.3,3.1 -2.9,3.8 -0.1,0 -0.3,-0.1 -0.4,-0.1 l -12,0 c -0.1,0 -0.3,0 -0.4,0.1 -0.6,-0.7 -1.8,-2.5 -2.9,-3.8 -0.4,-0.5 -0.3,-1.3 0.3,-1.3 3.8,0 13.4,0 17.5,0 l 0,0 z m 0,-1 -17.4,0 c -0.6,0 -1.1,0.3 -1.4,0.8 -0.3,0.6 -0.2,1.5 0.3,2.1 l 2,2.7 0.8,1.1 c 0.2,0.3 0.5,0.4 0.8,0.4 0.1,0 0.2,0 0.3,0 0.1,0 0.1,0 0.1,0 l 12,0 c 0,0 0,0 0.1,0 0.1,0 0.2,0 0.3,0 0.3,0 0.6,-0.1 0.8,-0.4 l 1.8,-2.4 1,-1.4 c 0.4,-0.6 0.5,-1.3 0.2,-1.9 -0.3,-0.6 -0.9,-1 -1.7,-1 l 0,0 z"
                 id="path157"
                 inkscape:connector-curvature="0"
                 style="fill:#003b86" /></g><g
               id="g159"><path
                 class="st3"
                 d="m 45.2,121.7 c -10.1,0 -18.3,-6.3 -18.3,-14 0,-2.6 0.9,-5.1 2.7,-7.3 0.2,-0.2 0.4,-0.5 0.6,-0.7 2.1,-2.3 4.9,-4 8.3,-5 0,0 0.1,0 0.2,0 0.1,0 0.1,0 0.2,0 l 0.1,0.1 c 0.1,0 0.2,0 0.3,0 l 12,0 c 0.1,0 0.3,0 0.4,-0.1 0.1,0 0.1,0 0.2,0 0.1,0 0.1,0 0.2,0 3.3,1 6.2,2.8 8.3,5 1.1,1.2 1.9,2.5 2.5,3.9 0.5,1.3 0.8,2.7 0.8,4.1 -0.1,7.7 -8.4,14 -18.5,14 z"
                 id="path161"
                 inkscape:connector-curvature="0"
                 style="fill:#ffffff" /><path
                 class="st4"
                 d="m 38.6,95.1 c 0.1,0 0.1,0 0.2,0.1 l 0.1,0 c 0.1,0 0.3,0.1 0.4,0.1 l 12,0 c 0.2,0 0.4,-0.1 0.6,-0.1 3.2,1 6,2.7 8,4.9 1.1,1.2 1.9,2.4 2.4,3.7 0.5,1.3 0.8,2.6 0.8,4 0,7.5 -8,13.5 -17.8,13.5 -9.8,0 -17.8,-6.1 -17.8,-13.5 0,-2.5 0.9,-4.9 2.6,-7 0.2,-0.2 0.4,-0.5 0.6,-0.7 1.9,-2.3 4.7,-4 7.9,-5 l 0,0 z m 0,-1 c -0.1,0 -0.2,0 -0.3,0 -3.4,1 -6.4,2.8 -8.5,5.2 -0.2,0.2 -0.4,0.4 -0.6,0.8 -1.8,2.3 -2.8,4.9 -2.8,7.6 0,8 8.5,14.6 18.8,14.6 10.4,0 18.8,-6.5 18.8,-14.6 0,-1.5 -0.3,-2.9 -0.9,-4.3 -0.6,-1.4 -1.5,-2.8 -2.6,-4 -2.1,-2.3 -5.1,-4.1 -8.5,-5.2 -0.1,0 -0.2,0 -0.3,0 -0.1,0 -0.3,0 -0.4,0.1 -0.1,0 -0.1,0.1 -0.2,0.1 l -12,0 -0.1,0 -0.1,0 c 0,-0.3 -0.1,-0.3 -0.3,-0.3 l 0,0 z"
                 id="path163"
                 inkscape:connector-curvature="0"
                 style="fill:#003b86" /></g><g
               id="g165"><g
                 id="g167"><path
                   class="st4"
                   d="m 44,116.2 c -0.1,0 -0.3,-0.1 -0.3,-0.3 l 0,-0.9 c -3.8,-0.4 -6.5,-2.1 -6.5,-4.3 0,-0.1 0,-0.1 0.1,-0.2 0,0 0.1,-0.1 0.2,-0.1 l 2.8,0 c 0.1,0 0.3,0.1 0.3,0.3 0,0.6 1.2,1.4 3.2,1.7 l 0,-3.6 c -2.2,-0.2 -4.2,-0.9 -5.4,-2 -0.7,-0.7 -1.1,-1.5 -1.1,-2.3 0,-2.2 2.6,-4 6.4,-4.4 l 0,-0.8 c 0,-0.1 0,-0.1 0.1,-0.2 0,0 0.1,-0.1 0.2,-0.1 l 2.6,0 c 0.1,0 0.3,0.1 0.3,0.3 l 0,0.8 c 3.8,0.4 6.5,2.1 6.5,4.3 0,0.1 0,0.1 -0.1,0.2 0,0 -0.1,0.1 -0.2,0.1 l -2.8,0 c -0.1,0 -0.1,0 -0.2,-0.1 0,0 -0.1,-0.1 -0.1,-0.2 0,-0.6 -1.2,-1.4 -3.2,-1.7 l 0,3.6 c 1.7,0.2 3.3,0.6 4.4,1.3 1.3,0.8 2.1,1.8 2.1,3 0,2.2 -2.6,4 -6.4,4.4 l 0,0.9 c 0,0.1 0,0.1 -0.1,0.2 0,0 -0.1,0.1 -0.2,0.1 l -2.6,0 z m 2.8,-3.8 c 2,-0.3 3.2,-1.1 3.2,-1.7 0,-0.6 -1.2,-1.4 -3.2,-1.7 l 0,3.4 z m -3.2,-9.6 c -2,0.3 -3.2,1.1 -3.2,1.7 0,0.2 0.1,0.4 0.4,0.6 0.6,0.5 1.6,0.9 2.8,1 l 0,-3.3 z"
                   id="path169"
                   inkscape:connector-curvature="0"
                   style="fill:#003b86" /><path
                   class="st4"
                   d="m 46.5,99.2 0,1.1 c 3.7,0.3 6.5,2 6.5,4.1 l -2.8,0 c 0,-0.8 -1.5,-1.7 -3.7,-2 l 0,4.1 c 1.8,0.1 3.4,0.6 4.6,1.3 1.2,0.7 1.9,1.7 1.9,2.8 0,2.1 -2.7,3.8 -6.4,4.2 l 0,1.2 -2.6,0 0,-1.2 c -3.7,-0.3 -6.5,-2 -6.5,-4.1 l 2.7,0 c 0,0.8 1.5,1.7 3.7,2 l 0,-4.1 c -2.3,-0.2 -4.3,-0.9 -5.4,-2 -0.7,-0.6 -1.1,-1.3 -1.1,-2.1 0,-2.1 2.7,-3.8 6.4,-4.2 l 0,-1.1 2.7,0 0,0 z m -2.6,7.2 0,-0.5 0,-3.5 c -2.2,0.3 -3.7,1.2 -3.7,2 0,0.3 0.2,0.5 0.5,0.8 0.6,0.6 1.7,1.1 3.2,1.2 l 0,0 z m 2.7,6.3 c 2.2,-0.3 3.7,-1.2 3.7,-2 0,-0.8 -1.5,-1.7 -3.7,-2 l 0,4 0,0 z m -0.1,-14 0,0 -2.6,0 c -0.3,0 -0.5,0.2 -0.5,0.5 l 0,0.6 c -3.8,0.5 -6.5,2.4 -6.4,4.6 0,0.9 0.4,1.8 1.2,2.5 1.2,1.1 3.1,1.8 5.3,2 l 0,3 c -1.8,-0.3 -2.7,-1 -2.7,-1.4 0,-0.1 -0.1,-0.3 -0.2,-0.4 C 40.5,110 40.4,110 40.2,110 l 0,0 -2.7,0 c -0.3,0 -0.5,0.2 -0.5,0.5 0,2.3 2.7,4.1 6.5,4.5 l 0,0.7 c 0,0.1 0.1,0.3 0.2,0.4 0.1,0.1 0.2,0.1 0.4,0.1 l 0,0 2.6,0 c 0.1,0 0.3,-0.1 0.4,-0.2 0.1,-0.1 0.1,-0.2 0.1,-0.4 l 0,-0.7 c 3.8,-0.5 6.5,-2.4 6.4,-4.6 0,-1.2 -0.8,-2.4 -2.2,-3.2 -1.2,-0.7 -2.6,-1.2 -4.3,-1.3 l 0,-3 c 1.8,0.3 2.7,1 2.7,1.4 0,0.3 0.2,0.5 0.5,0.5 l 0,0 2.8,0 c 0.3,0 0.5,-0.2 0.5,-0.5 0,-2.3 -2.7,-4.1 -6.5,-4.5 l 0,-0.6 C 47,99 46.7,98.7 46.5,98.7 l 0,0 z m -3.1,7.2 c -1,-0.2 -1.9,-0.5 -2.4,-0.9 -0.2,-0.2 -0.3,-0.3 -0.3,-0.4 0,-0.4 0.9,-1.1 2.7,-1.4 l 0,2.7 0,0 z m 3.7,6.2 0,-2.8 c 1.8,0.3 2.7,1 2.7,1.4 0,0.3 -0.9,1 -2.7,1.4 l 0,0 z"
                   id="path171"
                   inkscape:connector-curvature="0"
                   style="fill:#003b86" /></g></g><g
               id="g173"><path
                 class="st3"
                 d="m 39.2,95 c -0.1,0 -0.2,0 -0.3,-0.1 -0.6,-0.2 -1,-0.7 -1,-1.3 0,-0.8 0.6,-1.4 1.3,-1.4 l 12,0 c 0.1,0 0.3,0 0.4,0.1 0.6,0.2 0.9,0.7 0.9,1.3 0,0.8 -0.6,1.4 -1.3,1.4 l -12,0 z"
                 id="path175"
                 inkscape:connector-curvature="0"
                 style="fill:#ffffff" /><path
                 class="st4"
                 d="m 51.2,92.8 c 0.1,0 0.2,0 0.2,0 l 0,0 c 0.3,0.1 0.5,0.4 0.5,0.8 0,0.5 -0.4,0.8 -0.8,0.8 l -12,0 c -0.1,0 -0.1,0 -0.2,0 l 0,0 c -0.3,-0.1 -0.6,-0.4 -0.6,-0.8 0,-0.5 0.4,-0.9 0.8,-0.9 l 12.1,0.1 0,0 z m 0,-1.1 -12,0 c -1,0 -1.8,0.8 -1.8,1.9 0,0.8 0.5,1.5 1.3,1.8 l 0,0 0.1,0 c 0.2,0 0.3,0.1 0.5,0.1 l 12,0 c 1,0 1.8,-0.8 1.8,-1.9 0,-0.8 -0.5,-1.5 -1.2,-1.8 l -0.1,0 c -0.2,0 -0.4,-0.1 -0.6,-0.1 l 0,0 z"
                 id="path177"
                 inkscape:connector-curvature="0"
                 style="fill:#003b86" /></g></g><g
             id="g179"><g
               id="g181"><path
                 class="st3"
                 d="m 51.6,156.5 -0.1,0 c -0.1,0 -0.2,0 -0.3,0 l -12,0 c -0.1,0 -0.2,0 -0.3,0 l -0.1,0 c -0.2,0 -0.3,-0.1 -0.4,-0.2 l -2.8,-3.8 c -0.4,-0.5 -0.4,-1.1 -0.2,-1.6 0.2,-0.4 0.5,-0.6 0.9,-0.6 l 17.4,0 c 0.6,0 1.1,0.3 1.3,0.7 0.2,0.4 0.2,1 -0.1,1.4 l -2.9,3.8 c -0.1,0.2 -0.2,0.3 -0.4,0.3 z"
                 id="path183"
                 inkscape:connector-curvature="0"
                 style="fill:#ffffff" /><path
                 class="st4"
                 d="m 53.7,150.8 c 0.8,0 1.1,0.8 0.8,1.3 -1,1.3 -2.3,3.1 -2.9,3.8 -0.1,0 -0.3,-0.1 -0.4,-0.1 l -12,0 c -0.1,0 -0.3,0 -0.4,0.1 -0.6,-0.7 -1.8,-2.5 -2.9,-3.8 -0.4,-0.5 -0.3,-1.3 0.3,-1.3 3.8,0 13.4,0 17.5,0 l 0,0 z m 0,-1 -17.4,0 c -0.6,0 -1.1,0.3 -1.4,0.8 -0.3,0.6 -0.2,1.5 0.3,2.1 l 2,2.7 0.8,1.1 c 0.2,0.3 0.5,0.4 0.8,0.4 0.1,0 0.2,0 0.3,0 0.1,0 0.1,0 0.1,0 l 12,0 c 0,0 0,0 0.1,0 0.1,0 0.2,0 0.3,0 0.3,0 0.6,-0.1 0.8,-0.4 l 2,-2.7 0.9,-1.1 c 0.4,-0.6 0.5,-1.3 0.2,-1.9 -0.4,-0.6 -1,-1 -1.8,-1 l 0,0 z"
                 id="path185"
                 inkscape:connector-curvature="0"
                 style="fill:#003b86" /></g><g
               id="g187"><path
                 class="st3"
                 d="m 45.2,185.6 c -10.1,0 -18.3,-6.3 -18.3,-14 0,-2.6 0.9,-5.1 2.7,-7.3 0.2,-0.2 0.4,-0.5 0.6,-0.7 2.1,-2.3 4.9,-4 8.3,-5 0,0 0.1,0 0.2,0 0.1,0 0.1,0 0.2,0 l -0.1,0.5 0.2,-0.5 c 0.1,0 0.2,0.1 0.3,0.1 l 12,0 c 0.1,0 0.3,0 0.4,-0.1 0.1,0 0.1,0 0.2,0 0.1,0 0.1,0 0.2,0 3.3,1 6.2,2.8 8.3,5 1.1,1.2 1.9,2.5 2.5,3.9 0.5,1.3 0.8,2.7 0.8,4.1 -0.1,7.7 -8.4,14 -18.5,14 z"
                 id="path189"
                 inkscape:connector-curvature="0"
                 style="fill:#ffffff" /><path
                 class="st4"
                 d="m 38.6,159 c 0.1,0 0.1,0 0.2,0.1 l 0.1,0 c 0.1,0 0.3,0.1 0.4,0.1 l 12,0 c 0.2,0 0.4,-0.1 0.6,-0.1 3.2,1 6,2.7 8,4.9 1.1,1.2 1.9,2.4 2.4,3.7 0.5,1.3 0.8,2.6 0.8,4 0,7.5 -8,13.5 -17.8,13.5 -9.8,0 -17.8,-6.1 -17.8,-13.5 0,-2.5 0.9,-4.9 2.6,-7 0.2,-0.2 0.4,-0.5 0.6,-0.7 1.9,-2.3 4.7,-4 7.9,-5 l 0,0 z m 0,-1 c -0.1,0 -0.2,0 -0.3,0 -3.4,1 -6.4,2.8 -8.5,5.2 -0.2,0.2 -0.4,0.4 -0.6,0.8 -1.8,2.3 -2.8,4.9 -2.8,7.6 0,8 8.5,14.6 18.8,14.6 10.4,0 18.8,-6.5 18.8,-14.6 0,-1.5 -0.3,-2.9 -0.9,-4.3 -0.6,-1.4 -1.5,-2.8 -2.6,-4 -2.1,-2.3 -5.1,-4.1 -8.5,-5.2 -0.1,0 -0.2,0 -0.3,0 -0.1,0 -0.3,0 -0.4,0.1 -0.1,0 -0.1,0.1 -0.2,0.1 l -12,0 -0.1,0 -0.1,0 c 0,-0.3 -0.1,-0.3 -0.3,-0.3 l 0,0 z"
                 id="path191"
                 inkscape:connector-curvature="0"
                 style="fill:#003b86" /></g><g
               id="g193"><g
                 id="g195"><path
                   class="st4"
                   d="m 44,180.1 c -0.1,0 -0.1,0 -0.2,-0.1 0,0 -0.1,-0.1 -0.1,-0.2 l 0,-0.9 c -3.8,-0.4 -6.5,-2.1 -6.5,-4.3 0,-0.1 0,-0.1 0.1,-0.2 0,0 0.1,-0.1 0.2,-0.1 l 2.8,0 c 0.1,0 0.3,0.1 0.3,0.3 0,0.6 1.2,1.4 3.2,1.7 l 0,-3.6 c -2.2,-0.2 -4.2,-0.9 -5.4,-2 -0.7,-0.7 -1.1,-1.5 -1.1,-2.3 0,-2.2 2.6,-4 6.4,-4.4 l 0,-0.8 c 0,-0.1 0,-0.1 0.1,-0.2 0,0 0.1,-0.1 0.2,-0.1 l 2.6,0 c 0.1,0 0.3,0.1 0.3,0.3 l 0,0.8 c 3.8,0.4 6.5,2.1 6.5,4.3 0,0.1 0,0.1 -0.1,0.2 0,0 -0.1,0.1 -0.2,0.1 l -2.8,0 c -0.1,0 -0.1,0 -0.2,-0.1 0,0 -0.1,-0.1 -0.1,-0.2 0,-0.6 -1.2,-1.4 -3.2,-1.7 l 0,3.6 c 1.7,0.2 3.3,0.6 4.4,1.3 1.3,0.8 2.1,1.8 2.1,3 0,2.2 -2.6,4 -6.4,4.4 l 0,0.9 c 0,0.1 -0.1,0.3 -0.3,0.3 l -2.6,0 z m 2.8,-3.8 c 2,-0.3 3.2,-1.1 3.2,-1.7 0,-0.6 -1.2,-1.4 -3.2,-1.7 l 0,3.4 z m -3.2,-9.6 c -2,0.3 -3.2,1.1 -3.2,1.7 0,0.2 0.1,0.4 0.4,0.6 0.6,0.5 1.6,0.9 2.8,1 l 0,-3.3 z"
                   id="path197"
                   inkscape:connector-curvature="0"
                   style="fill:#003b86" /><path
                   class="st4"
                   d="m 46.5,163.2 0,1.1 c 3.7,0.3 6.5,2 6.5,4.1 l -2.8,0 c 0,-0.8 -1.5,-1.7 -3.7,-2 l 0,4.1 c 1.8,0.1 3.4,0.6 4.6,1.3 1.2,0.7 1.9,1.7 1.9,2.8 0,2.1 -2.7,3.8 -6.4,4.2 l 0,1.2 -2.6,0 0,-1.2 c -3.7,-0.3 -6.5,-2 -6.5,-4.1 l 2.7,0 c 0,0.8 1.5,1.7 3.7,2 l 0,-4.1 c -2.3,-0.2 -4.3,-0.9 -5.4,-2 -0.7,-0.6 -1.1,-1.3 -1.1,-2.1 0,-2.1 2.7,-3.8 6.4,-4.2 l 0,-1.1 2.7,0 0,0 z m -2.6,7.2 0,-0.5 0,-3.5 c -2.2,0.3 -3.7,1.2 -3.7,2 0,0.3 0.2,0.5 0.5,0.8 0.6,0.5 1.7,1 3.2,1.2 l 0,0 z m 2.7,6.2 c 2.2,-0.3 3.7,-1.2 3.7,-2 0,-0.8 -1.5,-1.7 -3.7,-2 l 0,4 0,0 z m -0.1,-14 0,0 -2.6,0 c -0.3,0 -0.5,0.2 -0.5,0.5 l 0,0.6 c -3.8,0.5 -6.5,2.4 -6.4,4.6 0,0.9 0.4,1.8 1.2,2.5 1.2,1.1 3.1,1.8 5.3,2 l 0,3 c -1.8,-0.3 -2.7,-1 -2.7,-1.4 0,-0.1 -0.1,-0.3 -0.2,-0.4 -0.1,-0.1 -0.2,-0.1 -0.4,-0.1 l 0,0 -2.7,0 c -0.3,0 -0.5,0.2 -0.5,0.5 0,2.3 2.7,4.1 6.5,4.5 l 0,0.7 c 0,0.1 0.1,0.3 0.2,0.4 0.1,0.1 0.2,0.1 0.4,0.1 l 0,0 2.6,0 c 0.1,0 0.3,-0.1 0.4,-0.2 0.1,-0.1 0.1,-0.2 0.1,-0.4 l 0,-0.7 c 3.8,-0.5 6.5,-2.4 6.4,-4.6 0,-1.2 -0.8,-2.4 -2.2,-3.2 -1.2,-0.7 -2.6,-1.2 -4.3,-1.3 l 0,-3 c 1.8,0.3 2.7,1 2.7,1.4 0,0.3 0.2,0.5 0.5,0.5 l 0,0 2.8,0 c 0.3,0 0.5,-0.2 0.5,-0.5 0,-2.3 -2.7,-4.1 -6.5,-4.5 l 0,-0.6 c -0.1,-0.1 -0.4,-0.4 -0.6,-0.4 l 0,0 z m -3.1,7.2 c -1,-0.2 -1.9,-0.5 -2.4,-0.9 -0.2,-0.2 -0.3,-0.3 -0.3,-0.4 0,-0.4 0.9,-1.1 2.7,-1.4 l 0,2.7 0,0 z m 3.7,6.2 0,-2.8 c 1.8,0.3 2.7,1 2.7,1.4 0,0.3 -0.9,1 -2.7,1.4 l 0,0 z"
                   id="path199"
                   inkscape:connector-curvature="0"
                   style="fill:#003b86" /></g></g><g
               id="g201"><path
                 class="st3"
                 d="m 39.2,158.9 c -0.1,0 -0.2,0 -0.3,0 -0.6,-0.2 -1,-0.7 -1,-1.3 0,-0.8 0.6,-1.4 1.3,-1.4 l 12,0 c 0.1,0 0.3,0 0.4,0.1 0.6,0.2 0.9,0.7 0.9,1.3 0,0.8 -0.6,1.4 -1.3,1.4 l -12,0 0,-0.1 z"
                 id="path203"
                 inkscape:connector-curvature="0"
                 style="fill:#ffffff" /><path
                 class="st4"
                 d="m 51.2,156.7 c 0.1,0 0.2,0 0.2,0 l 0,0 c 0.3,0.1 0.5,0.4 0.5,0.8 0,0.5 -0.4,0.9 -0.8,0.9 l -12,0 c -0.1,0 -0.1,0 -0.2,0 l 0,0 c -0.3,-0.1 -0.6,-0.4 -0.6,-0.8 0,-0.5 0.4,-0.9 0.8,-0.9 l 12.1,0 0,0 z m 0,-1 -12,0 c -1,0 -1.8,0.8 -1.8,1.9 0,0.8 0.5,1.5 1.3,1.8 l 0,0 c 0,0 0,0 0.1,0 0.2,0 0.3,0.1 0.5,0.1 l 12,0 c 1,0 1.8,-0.8 1.8,-1.9 0,-0.8 -0.5,-1.5 -1.2,-1.8 l -0.1,0 c -0.2,-0.1 -0.4,-0.1 -0.6,-0.1 l 0,0 z"
                 id="path205"
                 inkscape:connector-curvature="0"
                 style="fill:#003b86" /></g></g></g><g
           id="g207"><g
             id="g209"><g
               id="g211"><path
                 class="st3"
                 d="m 185.4,28.6 -0.1,0 c -0.1,0 -0.2,0 -0.3,0 l -12,0 c -0.1,0 -0.2,0 -0.3,0 l -0.1,0 c -0.2,0 -0.3,-0.1 -0.4,-0.2 l -2.9,-3.8 c -0.4,-0.5 -0.4,-1.1 -0.2,-1.6 0.2,-0.4 0.5,-0.6 0.9,-0.6 l 17.4,0 c 0.6,0 1.1,0.3 1.3,0.7 0.2,0.4 0.2,1 -0.1,1.4 l -2.9,3.8 c 0,0.3 -0.2,0.3 -0.3,0.3 z"
                 id="path213"
                 inkscape:connector-curvature="0"
                 style="fill:#ffffff" /><path
                 class="st4"
                 d="m 187.5,23 c 0.8,0 1.1,0.8 0.8,1.3 -1,1.3 -2.3,3.1 -2.9,3.8 -0.1,0 -0.3,-0.1 -0.4,-0.1 l -12,0 c -0.1,0 -0.3,0 -0.4,0.1 -0.6,-0.7 -1.8,-2.5 -2.9,-3.8 -0.4,-0.5 -0.3,-1.3 0.3,-1.3 3.7,0 13.4,0 17.5,0 l 0,0 z m 0,-1 -17.4,0 c -0.6,0 -1.1,0.3 -1.4,0.8 -0.3,0.6 -0.2,1.5 0.3,2.1 l 2,2.7 0.8,1.1 c 0.2,0.3 0.5,0.4 0.8,0.4 0.1,0 0.2,0 0.3,0 0.1,0 0.1,0 0.1,0 l 12,0 c 0,0 0,0 0.1,0 0.1,0 0.2,0 0.3,0 0.3,0 0.6,-0.1 0.8,-0.4 l 1.8,-2.4 1,-1.4 c 0.4,-0.6 0.5,-1.3 0.2,-1.9 -0.3,-0.6 -0.9,-1 -1.7,-1 l 0,0 z"
                 id="path215"
                 inkscape:connector-curvature="0"
                 style="fill:#003b86" /></g><g
               id="g217"><path
                 class="st3"
                 d="m 179,57.8 c -10.1,0 -18.3,-6.3 -18.3,-14 0,-2.6 0.9,-5.1 2.7,-7.3 0.2,-0.2 0.4,-0.5 0.6,-0.7 2.1,-2.3 4.9,-4 8.3,-5 0,0 0.1,0 0.2,0 0.1,0 0.1,0 0.2,0 l 0.1,0.1 c 0.1,0 0.2,0 0.3,0 l 12,0 c 0.1,0 0.3,0 0.4,-0.1 0.1,0 0.1,0 0.2,0 0.1,0 0.1,0 0.2,0 3.3,1 6.2,2.8 8.3,5 1.1,1.2 1.9,2.5 2.5,3.9 0.5,1.3 0.8,2.7 0.8,4.2 -0.2,7.6 -8.4,13.9 -18.5,13.9 z"
                 id="path219"
                 inkscape:connector-curvature="0"
                 style="fill:#ffffff" /><path
                 class="st4"
                 d="m 172.4,31.2 c 0.1,0 0.1,0 0.2,0.1 l 0.1,0 c 0.1,0 0.3,0.1 0.4,0.1 l 12,0 c 0.2,0 0.4,-0.1 0.6,-0.1 3.2,1 6,2.7 8,4.9 1.1,1.2 1.9,2.4 2.4,3.7 0.5,1.3 0.8,2.6 0.8,4 0,7.5 -8,13.5 -17.8,13.5 -9.8,0 -17.8,-6.1 -17.8,-13.5 0,-2.5 0.9,-4.9 2.6,-7 0.2,-0.2 0.4,-0.5 0.6,-0.7 1.8,-2.3 4.6,-4 7.9,-5 l 0,0 z m 0,-1 c -0.1,0 -0.2,0 -0.3,0 -3.4,1 -6.4,2.8 -8.5,5.2 -0.2,0.2 -0.4,0.4 -0.6,0.8 -1.8,2.3 -2.8,4.9 -2.8,7.6 0,8 8.5,14.6 18.8,14.6 10.4,0 18.8,-6.5 18.8,-14.6 0,-1.5 -0.3,-2.9 -0.9,-4.3 -0.6,-1.4 -1.5,-2.8 -2.6,-4 -2.1,-2.3 -5.1,-4.1 -8.5,-5.2 -0.1,0 -0.2,0 -0.3,0 -0.1,0 -0.3,0 -0.4,0.1 -0.1,0 -0.1,0.1 -0.2,0.1 l -12,0 -0.1,0 -0.1,0 c 0,-0.3 -0.2,-0.3 -0.3,-0.3 l 0,0 z"
                 id="path221"
                 inkscape:connector-curvature="0"
                 style="fill:#003b86" /></g><g
               id="g223"><g
                 id="g225"><path
                   class="st4"
                   d="m 177.7,52.3 c -0.1,0 -0.3,-0.1 -0.3,-0.3 l 0,-0.9 c -3.8,-0.4 -6.5,-2.1 -6.5,-4.3 0,-0.1 0,-0.1 0.1,-0.2 0,0 0.1,-0.1 0.2,-0.1 l 2.8,0 c 0.1,0 0.3,0.1 0.3,0.3 0,0.6 1.2,1.4 3.2,1.7 l 0,-3.6 c -2.2,-0.2 -4.2,-0.9 -5.4,-2 -0.7,-0.7 -1.1,-1.5 -1.1,-2.3 0,-2.2 2.6,-4 6.4,-4.4 l 0,-0.8 c 0,-0.1 0,-0.1 0.1,-0.2 0,0 0.1,-0.1 0.2,-0.1 l 2.6,0 c 0.1,0 0.3,0.1 0.3,0.3 l 0,0.8 c 3.8,0.4 6.5,2.1 6.5,4.3 0,0.1 0,0.1 -0.1,0.2 0,0 -0.1,0.1 -0.2,0.1 l -2.8,0 c -0.1,0 -0.3,-0.1 -0.3,-0.3 0,-0.6 -1.2,-1.4 -3.2,-1.7 l 0,3.6 c 1.7,0.2 3.3,0.6 4.4,1.3 1.3,0.8 2.1,1.8 2.1,3 0,2.2 -2.6,4 -6.4,4.4 l 0,0.9 c 0,0.1 0,0.1 -0.1,0.2 0,0 -0.1,0.1 -0.2,0.1 l -2.6,0 z m 2.9,-3.8 c 2,-0.3 3.2,-1.1 3.2,-1.7 0,-0.6 -1.2,-1.4 -3.2,-1.7 l 0,3.4 z m -3.2,-9.6 c -2,0.3 -3.2,1.1 -3.2,1.7 0,0.2 0.1,0.4 0.4,0.6 0.6,0.5 1.6,0.9 2.8,1 l 0,-3.3 z"
                   id="path227"
                   inkscape:connector-curvature="0"
                   style="fill:#003b86" /><path
                   class="st4"
                   d="m 180.2,35.3 0,1.1 c 3.7,0.3 6.5,2 6.5,4.1 l -2.8,0 c 0,-0.8 -1.5,-1.7 -3.7,-2 l 0,4.1 c 1.8,0.1 3.4,0.6 4.6,1.3 1.2,0.7 1.9,1.7 1.9,2.8 0,2.1 -2.7,3.8 -6.4,4.2 l 0,1.2 -2.6,0 0,-1.2 c -3.7,-0.3 -6.5,-2 -6.5,-4.1 l 2.7,0 c 0,0.8 1.5,1.7 3.7,2 l 0,-4.1 c -2.3,-0.2 -4.3,-0.9 -5.4,-2 -0.7,-0.6 -1.1,-1.3 -1.1,-2.1 0,-2.1 2.7,-3.8 6.4,-4.2 l 0,-1.1 2.7,0 0,0 z m -2.5,7.2 0,-0.5 0,-3.5 c -2.2,0.3 -3.7,1.2 -3.7,2 0,0.3 0.2,0.5 0.5,0.8 0.5,0.6 1.7,1.1 3.2,1.2 l 0,0 z m 2.6,6.2 c 2.2,-0.3 3.7,-1.2 3.7,-2 0,-0.8 -1.5,-1.7 -3.7,-2 l 0,4 0,0 z m -0.1,-13.9 0,0 -2.6,0 c -0.3,0 -0.5,0.2 -0.5,0.5 l 0,0.6 c -3.8,0.5 -6.5,2.4 -6.4,4.6 0,0.9 0.4,1.8 1.2,2.5 1.2,1.1 3.1,1.8 5.3,2 l 0,3 c -1.8,-0.3 -2.7,-1 -2.7,-1.4 0,-0.1 -0.1,-0.3 -0.2,-0.4 -0.1,-0.1 -0.2,-0.1 -0.4,-0.1 l 0,0 -2.7,0 c -0.1,0 -0.3,0.1 -0.4,0.2 -0.1,0.1 -0.1,0.2 -0.1,0.4 0,2.3 2.7,4.1 6.5,4.5 l 0,0.7 c 0,0.3 0.2,0.5 0.5,0.5 l 0,0 2.6,0 c 0.1,0 0.3,-0.1 0.4,-0.2 0.1,-0.1 0.1,-0.2 0.1,-0.4 l 0,-0.7 c 3.8,-0.5 6.5,-2.4 6.4,-4.6 0,-1.2 -0.8,-2.4 -2.2,-3.2 -1.2,-0.7 -2.6,-1.2 -4.3,-1.3 l 0,-3 c 1.8,0.3 2.7,1 2.7,1.4 0,0.3 0.2,0.5 0.5,0.5 l 0,0 2.8,0 c 0.3,0 0.5,-0.2 0.5,-0.5 0,-2.3 -2.7,-4.1 -6.5,-4.5 l 0,-0.6 c 0,-0.3 -0.2,-0.5 -0.5,-0.5 l 0,0 z m -3,7.1 c -1,-0.2 -1.9,-0.5 -2.4,-0.9 -0.2,-0.2 -0.3,-0.3 -0.3,-0.4 0,-0.4 0.9,-1.1 2.7,-1.4 l 0,2.7 0,0 z m 3.6,6.2 0,-2.8 c 1.8,0.3 2.7,1 2.7,1.4 0,0.4 -0.9,1.1 -2.7,1.4 l 0,0 z"
                   id="path229"
                   inkscape:connector-curvature="0"
                   style="fill:#003b86" /></g></g><g
               id="g231"><path
                 class="st3"
                 d="m 173,31.1 c -0.1,0 -0.2,0 -0.3,-0.1 -0.6,-0.2 -1,-0.7 -1,-1.3 0,-0.8 0.6,-1.4 1.3,-1.4 l 12,0 c 0.1,0 0.2,0 0.4,0.1 0.6,0.2 0.9,0.7 0.9,1.3 0,0.8 -0.6,1.4 -1.3,1.4 l -12,0 z"
                 id="path233"
                 inkscape:connector-curvature="0"
                 style="fill:#ffffff" /><path
                 class="st4"
                 d="m 185,28.9 c 0.1,0 0.2,0 0.2,0 l 0,0 c 0.3,0.1 0.5,0.4 0.5,0.8 0,0.5 -0.4,0.8 -0.8,0.8 l -12,0 c -0.1,0 -0.1,0 -0.2,0 l 0,0 c -0.3,-0.1 -0.6,-0.4 -0.6,-0.8 0,-0.5 0.4,-0.9 0.8,-0.9 l 12.1,0 0,0.1 z m 0,-1.1 -12,0 c -1,0 -1.8,0.8 -1.8,1.9 0,0.8 0.5,1.5 1.3,1.8 l 0,0 c 0,0 0,0 0.1,0 0.2,0 0.3,0.1 0.5,0.1 l 12,0 c 1,0 1.8,-0.8 1.8,-1.9 0,-0.8 -0.5,-1.5 -1.2,-1.8 l -0.1,0 c -0.3,0 -0.5,-0.1 -0.6,-0.1 l 0,0 z"
                 id="path235"
                 inkscape:connector-curvature="0"
                 style="fill:#003b86" /></g></g><g
             id="g237"><g
               id="g239"><path
                 class="st3"
                 d="m 185.4,92.6 -0.1,0 c -0.1,0 -0.2,0 -0.3,0 l -12,0 c -0.1,0 -0.2,0 -0.3,0 l -0.1,0 c -0.2,0 -0.3,-0.1 -0.4,-0.2 l -2.9,-3.8 c -0.4,-0.5 -0.4,-1.1 -0.2,-1.6 0.2,-0.4 0.5,-0.6 0.9,-0.6 l 17.4,0 c 0.6,0 1.1,0.3 1.3,0.7 0.2,0.4 0.2,1 -0.1,1.4 l -2.9,3.8 c 0,0.2 -0.2,0.3 -0.3,0.3 z"
                 id="path241"
                 inkscape:connector-curvature="0"
                 style="fill:#ffffff" /><path
                 class="st4"
                 d="m 187.5,86.9 c 0.8,0 1.1,0.8 0.8,1.3 -1,1.3 -2.3,3.1 -2.9,3.8 -0.1,0 -0.3,-0.1 -0.4,-0.1 l -12,0 c -0.1,0 -0.3,0 -0.4,0.1 -0.6,-0.7 -1.8,-2.5 -2.9,-3.8 -0.4,-0.5 -0.3,-1.3 0.3,-1.3 3.7,0 13.4,0 17.5,0 l 0,0 z m 0,-1 -17.4,0 c -0.6,0 -1.1,0.3 -1.4,0.8 -0.3,0.6 -0.2,1.5 0.3,2.1 l 2,2.7 0.8,1.1 c 0.2,0.3 0.5,0.4 0.8,0.4 0.1,0 0.2,0 0.3,0 0.1,0 0.1,0 0.1,0 l 12,0 c 0,0 0,0 0.1,0 0.1,0 0.2,0 0.3,0 0.3,0 0.6,-0.1 0.8,-0.4 l 1.8,-2.4 1,-1.4 c 0.4,-0.6 0.5,-1.3 0.2,-1.9 -0.3,-0.6 -0.9,-1 -1.7,-1 l 0,0 z"
                 id="path243"
                 inkscape:connector-curvature="0"
                 style="fill:#003b86" /></g><g
               id="g245"><path
                 class="st3"
                 d="m 179,121.7 c -10.1,0 -18.3,-6.3 -18.3,-14 0,-2.6 0.9,-5.1 2.7,-7.3 0.2,-0.2 0.4,-0.5 0.6,-0.7 2.1,-2.3 4.9,-4 8.3,-5 0,0 0.1,0 0.2,0 0.1,0 0.1,0 0.2,0 l 0.1,0.1 c 0.1,0 0.2,0 0.3,0 l 12,0 c 0.1,0 0.3,0 0.4,-0.1 0.1,0 0.1,0 0.2,0 0.1,0 0.1,0 0.2,0 3.3,1 6.2,2.8 8.3,5 1.1,1.2 1.9,2.5 2.5,3.9 0.5,1.3 0.8,2.7 0.8,4.1 -0.2,7.7 -8.4,14 -18.5,14 z"
                 id="path247"
                 inkscape:connector-curvature="0"
                 style="fill:#ffffff" /><path
                 class="st4"
                 d="m 172.4,95.1 c 0.1,0 0.1,0 0.2,0.1 l 0.1,0 c 0.1,0 0.3,0.1 0.4,0.1 l 12,0 c 0.2,0 0.4,-0.1 0.6,-0.1 3.2,1 6,2.7 8,4.9 1.1,1.2 1.9,2.4 2.4,3.7 0.5,1.3 0.8,2.6 0.8,4 0,7.5 -8,13.5 -17.8,13.5 -9.8,0 -17.8,-6.1 -17.8,-13.5 0,-2.5 0.9,-4.9 2.6,-7 0.2,-0.2 0.4,-0.5 0.6,-0.7 1.8,-2.3 4.6,-4 7.9,-5 l 0,0 z m 0,-1 c -0.1,0 -0.2,0 -0.3,0 -3.4,1 -6.4,2.8 -8.5,5.2 -0.2,0.2 -0.4,0.4 -0.6,0.8 -1.8,2.3 -2.8,4.9 -2.8,7.6 0,8 8.5,14.6 18.8,14.6 10.4,0 18.8,-6.5 18.8,-14.6 0,-1.5 -0.3,-2.9 -0.9,-4.3 -0.6,-1.4 -1.5,-2.8 -2.6,-4 -2.1,-2.3 -5.1,-4.1 -8.5,-5.2 -0.1,0 -0.2,0 -0.3,0 -0.1,0 -0.3,0 -0.4,0.1 -0.1,0 -0.1,0.1 -0.2,0.1 l -12,0 -0.1,0 -0.1,0 c 0,-0.3 -0.2,-0.3 -0.3,-0.3 l 0,0 z"
                 id="path249"
                 inkscape:connector-curvature="0"
                 style="fill:#003b86" /></g><g
               id="g251"><g
                 id="g253"><path
                   class="st4"
                   d="m 177.7,116.2 c -0.1,0 -0.3,-0.1 -0.3,-0.3 l 0,-0.9 c -3.8,-0.4 -6.5,-2.1 -6.5,-4.3 0,-0.1 0,-0.1 0.1,-0.2 0,0 0.1,-0.1 0.2,-0.1 l 2.8,0 c 0.1,0 0.3,0.1 0.3,0.3 0,0.6 1.2,1.4 3.2,1.7 l 0,-3.6 c -2.2,-0.2 -4.2,-0.9 -5.4,-2 -0.7,-0.7 -1.1,-1.5 -1.1,-2.3 0,-2.2 2.6,-4 6.4,-4.4 l 0,-0.8 c 0,-0.1 0,-0.1 0.1,-0.2 0,0 0.1,-0.1 0.2,-0.1 l 2.6,0 c 0.1,0 0.3,0.1 0.3,0.3 l 0,0.8 c 3.8,0.4 6.5,2.1 6.5,4.3 0,0.1 0,0.1 -0.1,0.2 0,0 -0.1,0.1 -0.2,0.1 l -2.8,0 c -0.1,0 -0.1,0 -0.2,-0.1 0,0 -0.1,-0.1 -0.1,-0.2 0,-0.6 -1.2,-1.4 -3.2,-1.7 l 0,3.6 c 1.7,0.2 3.3,0.6 4.4,1.3 1.3,0.8 2.1,1.8 2.1,3 0,2.2 -2.6,4 -6.4,4.4 l 0,0.9 c 0,0.1 0,0.1 -0.1,0.2 0,0 -0.1,0.1 -0.2,0.1 l -2.6,0 z m 2.9,-3.8 c 2,-0.3 3.2,-1.1 3.2,-1.7 0,-0.6 -1.2,-1.4 -3.2,-1.7 l 0,3.4 z m -3.2,-9.6 c -2,0.3 -3.2,1.1 -3.2,1.7 0,0.2 0.1,0.4 0.4,0.6 0.6,0.5 1.6,0.9 2.8,1 l 0,-3.3 z"
                   id="path255"
                   inkscape:connector-curvature="0"
                   style="fill:#003b86" /><path
                   class="st4"
                   d="m 180.2,99.2 0,1.1 c 3.7,0.3 6.5,2 6.5,4.1 l -2.8,0 c 0,-0.8 -1.5,-1.7 -3.7,-2 l 0,4.1 c 1.8,0.1 3.4,0.6 4.6,1.3 1.2,0.7 1.9,1.7 1.9,2.8 0,2.1 -2.7,3.8 -6.4,4.2 l 0,1.2 -2.6,0 0,-1.2 c -3.7,-0.3 -6.5,-2 -6.5,-4.1 l 2.7,0 c 0,0.8 1.5,1.7 3.7,2 l 0,-4.1 c -2.3,-0.2 -4.3,-0.9 -5.4,-2 -0.7,-0.6 -1.1,-1.3 -1.1,-2.1 0,-2.1 2.7,-3.8 6.4,-4.2 l 0,-1.1 2.7,0 0,0 z m -2.5,7.2 0,-0.5 0,-3.5 c -2.2,0.3 -3.7,1.2 -3.7,2 0,0.3 0.2,0.5 0.5,0.8 0.5,0.6 1.7,1.1 3.2,1.2 l 0,0 z m 2.6,6.3 c 2.2,-0.3 3.7,-1.2 3.7,-2 0,-0.8 -1.5,-1.7 -3.7,-2 l 0,4 0,0 z m -0.1,-14 0,0 -2.6,0 c -0.3,0 -0.5,0.2 -0.5,0.5 l 0,0.6 c -3.8,0.5 -6.5,2.4 -6.4,4.6 0,0.9 0.4,1.8 1.2,2.5 1.2,1.1 3.1,1.8 5.3,2 l 0,3 c -1.8,-0.3 -2.7,-1 -2.7,-1.4 0,-0.1 -0.1,-0.3 -0.2,-0.4 -0.1,-0.1 -0.2,-0.1 -0.4,-0.1 l 0,0 -2.7,0 c -0.1,0 -0.3,0.1 -0.4,0.2 -0.1,0.1 -0.1,0.2 -0.1,0.4 0,2.3 2.7,4.1 6.5,4.5 l 0,0.7 c 0,0.3 0.2,0.5 0.5,0.5 l 0,0 2.6,0 c 0.1,0 0.3,-0.1 0.4,-0.2 0.1,-0.1 0.1,-0.2 0.1,-0.4 l 0,-0.7 c 3.8,-0.5 6.5,-2.4 6.4,-4.6 0,-1.2 -0.8,-2.4 -2.2,-3.2 -1.2,-0.7 -2.6,-1.2 -4.3,-1.3 l 0,-3 c 1.8,0.3 2.7,1 2.7,1.4 0,0.3 0.2,0.5 0.5,0.5 l 0,0 2.8,0 c 0.3,0 0.5,-0.2 0.5,-0.5 0,-2.3 -2.7,-4.1 -6.5,-4.5 l 0,-0.6 c 0,-0.2 -0.2,-0.5 -0.5,-0.5 l 0,0 z m -3,7.2 c -1,-0.2 -1.9,-0.5 -2.4,-0.9 -0.2,-0.2 -0.3,-0.3 -0.3,-0.4 0,-0.4 0.9,-1.1 2.7,-1.4 l 0,2.7 0,0 z m 3.6,6.2 0,-2.8 c 1.8,0.3 2.7,1 2.7,1.4 0,0.3 -0.9,1 -2.7,1.4 l 0,0 z"
                   id="path257"
                   inkscape:connector-curvature="0"
                   style="fill:#003b86" /></g></g><g
               id="g259"><path
                 class="st3"
                 d="m 173,95 c -0.1,0 -0.2,0 -0.3,-0.1 -0.6,-0.2 -1,-0.7 -1,-1.3 0,-0.8 0.6,-1.4 1.3,-1.4 l 12,0 c 0.1,0 0.3,0 0.4,0.1 0.6,0.2 0.9,0.7 0.9,1.3 0,0.8 -0.6,1.4 -1.3,1.4 l -12,0 z"
                 id="path261"
                 inkscape:connector-curvature="0"
                 style="fill:#ffffff" /><path
                 class="st4"
                 d="m 185,92.8 c 0.1,0 0.2,0 0.2,0 l 0,0 c 0.3,0.1 0.5,0.4 0.5,0.8 0,0.5 -0.4,0.8 -0.8,0.8 l -12,0 c -0.1,0 -0.1,0 -0.2,0 l 0,0 c -0.3,-0.1 -0.6,-0.4 -0.6,-0.8 0,-0.5 0.4,-0.9 0.8,-0.9 l 12.1,0.1 0,0 z m 0,-1.1 -12,0 c -1,0 -1.8,0.8 -1.8,1.9 0,0.8 0.5,1.5 1.3,1.8 l 0,0 c 0,0 0,0 0.1,0 0.2,0 0.3,0.1 0.5,0.1 l 12,0 c 1,0 1.8,-0.8 1.8,-1.9 0,-0.8 -0.5,-1.5 -1.2,-1.8 l -0.1,0 c -0.3,0 -0.5,-0.1 -0.6,-0.1 l 0,0 z"
                 id="path263"
                 inkscape:connector-curvature="0"
                 style="fill:#003b86" /></g></g><g
             id="g265"><g
               id="g267"><path
                 class="st3"
                 d="m 185.4,156.5 -0.1,0 c -0.1,0 -0.2,0 -0.3,0 l -12,0 c -0.1,0 -0.2,0 -0.3,0 l -0.1,0 c -0.2,0 -0.3,-0.1 -0.4,-0.2 l -2.8,-3.8 c -0.4,-0.5 -0.4,-1.1 -0.2,-1.6 0.2,-0.4 0.5,-0.6 0.9,-0.6 l 17.4,0 c 0.6,0 1.1,0.3 1.3,0.7 0.2,0.4 0.2,1 -0.1,1.4 l -2.9,3.8 c -0.1,0.2 -0.3,0.3 -0.4,0.3 z"
                 id="path269"
                 inkscape:connector-curvature="0"
                 style="fill:#ffffff" /><path
                 class="st4"
                 d="m 187.5,150.8 c 0.8,0 1.1,0.8 0.8,1.3 -1,1.3 -2.3,3.1 -2.9,3.8 -0.1,0 -0.3,-0.1 -0.4,-0.1 l -12,0 c -0.1,0 -0.3,0 -0.4,0.1 -0.6,-0.7 -1.8,-2.5 -2.9,-3.8 -0.4,-0.5 -0.3,-1.3 0.3,-1.3 3.7,0 13.4,0 17.5,0 l 0,0 z m 0,-1 -17.4,0 c -0.6,0 -1.1,0.3 -1.4,0.8 -0.3,0.6 -0.2,1.5 0.3,2.1 l 2,2.7 0.8,1.1 c 0.2,0.3 0.5,0.4 0.8,0.4 0.1,0 0.2,0 0.3,0 0.1,0 0.1,0 0.1,0 l 12,0 c 0,0 0,0 0.1,0 0.1,0 0.2,0 0.3,0 0.3,0 0.6,-0.1 0.8,-0.4 l 2,-2.7 0.9,-1.1 c 0.4,-0.6 0.5,-1.3 0.2,-1.9 -0.4,-0.6 -1,-1 -1.8,-1 l 0,0 z"
                 id="path271"
                 inkscape:connector-curvature="0"
                 style="fill:#003b86" /></g><g
               id="g273"><path
                 class="st3"
                 d="m 179,185.6 c -10.1,0 -18.3,-6.3 -18.3,-14 0,-2.6 0.9,-5.1 2.7,-7.3 0.2,-0.2 0.4,-0.5 0.6,-0.7 2.1,-2.3 4.9,-4 8.3,-5 0,0 0.1,0 0.2,0 0.1,0 0.1,0 0.2,0 l -0.1,0.5 0.2,-0.5 c 0.1,0 0.2,0.1 0.3,0.1 l 12,0 c 0.1,0 0.3,0 0.4,-0.1 0.1,0 0.1,0 0.2,0 0.1,0 0.1,0 0.2,0 3.3,1 6.2,2.8 8.3,5 1.1,1.2 1.9,2.5 2.5,3.9 0.5,1.3 0.8,2.7 0.8,4.1 -0.2,7.7 -8.4,14 -18.5,14 z"
                 id="path275"
                 inkscape:connector-curvature="0"
                 style="fill:#ffffff" /><path
                 class="st4"
                 d="m 172.4,159 c 0.1,0 0.1,0 0.2,0.1 l 0.1,0 c 0.1,0 0.3,0.1 0.4,0.1 l 12,0 c 0.2,0 0.4,-0.1 0.6,-0.1 3.2,1 6,2.7 8,4.9 1.1,1.2 1.9,2.4 2.4,3.7 0.5,1.3 0.8,2.6 0.8,4 0,7.5 -8,13.5 -17.8,13.5 -9.8,0 -17.8,-6.1 -17.8,-13.5 0,-2.5 0.9,-4.9 2.6,-7 0.2,-0.2 0.4,-0.5 0.6,-0.7 1.8,-2.3 4.6,-4 7.9,-5 l 0,0 z m 0,-1 c -0.1,0 -0.2,0 -0.3,0 -3.4,1 -6.4,2.8 -8.5,5.2 -0.2,0.2 -0.4,0.4 -0.6,0.8 -1.8,2.3 -2.8,4.9 -2.8,7.6 0,8 8.5,14.6 18.8,14.6 10.4,0 18.8,-6.5 18.8,-14.6 0,-1.5 -0.3,-2.9 -0.9,-4.3 -0.6,-1.4 -1.5,-2.8 -2.6,-4 -2.1,-2.3 -5.1,-4.1 -8.5,-5.2 -0.1,0 -0.2,0 -0.3,0 -0.1,0 -0.3,0 -0.4,0.1 -0.1,0 -0.1,0.1 -0.2,0.1 l -12,0 -0.1,0 -0.1,0 c 0,-0.3 -0.2,-0.3 -0.3,-0.3 l 0,0 z"
                 id="path277"
                 inkscape:connector-curvature="0"
                 style="fill:#003b86" /></g><g
               id="g279"><g
                 id="g281"><path
                   class="st4"
                   d="m 177.7,180.1 c -0.1,0 -0.1,0 -0.2,-0.1 0,0 -0.1,-0.1 -0.1,-0.2 l 0,-0.9 c -3.8,-0.4 -6.5,-2.1 -6.5,-4.3 0,-0.1 0,-0.1 0.1,-0.2 0,0 0.1,-0.1 0.2,-0.1 l 2.8,0 c 0.1,0 0.3,0.1 0.3,0.3 0,0.6 1.2,1.4 3.2,1.7 l 0,-3.6 c -2.2,-0.2 -4.2,-0.9 -5.4,-2 -0.7,-0.7 -1.1,-1.5 -1.1,-2.3 0,-2.2 2.6,-4 6.4,-4.4 l 0,-0.8 c 0,-0.1 0,-0.1 0.1,-0.2 0,0 0.1,-0.1 0.2,-0.1 l 2.6,0 c 0.1,0 0.3,0.1 0.3,0.3 l 0,0.8 c 3.8,0.4 6.5,2.1 6.5,4.3 0,0.1 0,0.1 -0.1,0.2 0,0 -0.1,0.1 -0.2,0.1 l -2.8,0 c -0.1,0 -0.1,0 -0.2,-0.1 0,0 -0.1,-0.1 -0.1,-0.2 0,-0.6 -1.2,-1.4 -3.2,-1.7 l 0,3.6 c 1.7,0.2 3.3,0.6 4.4,1.3 1.3,0.8 2.1,1.8 2.1,3 0,2.2 -2.6,4 -6.4,4.4 l 0,0.9 c 0,0.1 -0.1,0.3 -0.3,0.3 l -2.6,0 z m 2.9,-3.8 c 2,-0.3 3.2,-1.1 3.2,-1.7 0,-0.6 -1.2,-1.4 -3.2,-1.7 l 0,3.4 z m -3.2,-9.6 c -2,0.3 -3.2,1.1 -3.2,1.7 0,0.2 0.1,0.4 0.4,0.6 0.6,0.5 1.6,0.9 2.8,1 l 0,-3.3 z"
                   id="path283"
                   inkscape:connector-curvature="0"
                   style="fill:#003b86" /><path
                   class="st4"
                   d="m 180.2,163.2 0,1.1 c 3.7,0.3 6.5,2 6.5,4.1 l -2.8,0 c 0,-0.8 -1.5,-1.7 -3.7,-2 l 0,4.1 c 1.8,0.1 3.4,0.6 4.6,1.3 1.2,0.7 1.9,1.7 1.9,2.8 0,2.1 -2.7,3.8 -6.4,4.2 l 0,1.2 -2.6,0 0,-1.2 c -3.7,-0.3 -6.5,-2 -6.5,-4.1 l 2.7,0 c 0,0.8 1.5,1.7 3.7,2 l 0,-4.1 c -2.3,-0.2 -4.3,-0.9 -5.4,-2 -0.7,-0.6 -1.1,-1.3 -1.1,-2.1 0,-2.1 2.7,-3.8 6.4,-4.2 l 0,-1.1 2.7,0 0,0 z m -2.5,7.2 0,-0.5 0,-3.5 c -2.2,0.3 -3.7,1.2 -3.7,2 0,0.3 0.2,0.5 0.5,0.8 0.5,0.5 1.7,1 3.2,1.2 l 0,0 z m 2.6,6.2 c 2.2,-0.3 3.7,-1.2 3.7,-2 0,-0.8 -1.5,-1.7 -3.7,-2 l 0,4 0,0 z m -0.1,-14 0,0 -2.6,0 c -0.3,0 -0.5,0.2 -0.5,0.5 l 0,0.6 c -3.8,0.5 -6.5,2.4 -6.4,4.6 0,0.9 0.4,1.8 1.2,2.5 1.2,1.1 3.1,1.8 5.3,2 l 0,3 c -1.8,-0.3 -2.7,-1 -2.7,-1.4 0,-0.1 -0.1,-0.3 -0.2,-0.4 -0.1,-0.1 -0.2,-0.1 -0.4,-0.1 l 0,0 -2.7,0 c -0.1,0 -0.3,0.1 -0.4,0.2 -0.1,0.1 -0.1,0.2 -0.1,0.4 0,2.3 2.7,4.1 6.5,4.5 l 0,0.7 c 0,0.3 0.2,0.5 0.5,0.5 l 0,0 2.6,0 c 0.1,0 0.3,-0.1 0.4,-0.2 0.1,-0.1 0.1,-0.2 0.1,-0.4 l 0,-0.7 c 3.8,-0.5 6.5,-2.4 6.4,-4.6 0,-1.2 -0.8,-2.4 -2.2,-3.2 -1.2,-0.7 -2.6,-1.2 -4.3,-1.3 l 0,-3 c 1.8,0.3 2.7,1 2.7,1.4 0,0.3 0.2,0.5 0.5,0.5 l 0,0 2.8,0 c 0.3,0 0.5,-0.2 0.5,-0.5 0,-2.3 -2.7,-4.1 -6.5,-4.5 l 0,-0.6 c 0,-0.2 -0.2,-0.5 -0.5,-0.5 l 0,0 z m -3,7.2 c -1,-0.2 -1.9,-0.5 -2.4,-0.9 -0.2,-0.2 -0.3,-0.3 -0.3,-0.4 0,-0.4 0.9,-1.1 2.7,-1.4 l 0,2.7 0,0 z m 3.6,6.2 0,-2.8 c 1.8,0.3 2.7,1 2.7,1.4 0,0.3 -0.9,1 -2.7,1.4 l 0,0 z"
                   id="path285"
                   inkscape:connector-curvature="0"
                   style="fill:#003b86" /></g></g><g
               id="g287"><path
                 class="st3"
                 d="m 173,158.9 c -0.1,0 -0.2,0 -0.3,0 -0.6,-0.2 -1,-0.7 -1,-1.3 0,-0.8 0.6,-1.4 1.3,-1.4 l 12,0 c 0.1,0 0.3,0 0.4,0.1 0.6,0.2 0.9,0.7 0.9,1.3 0,0.8 -0.6,1.4 -1.3,1.4 l -12,0 0,-0.1 z"
                 id="path289"
                 inkscape:connector-curvature="0"
                 style="fill:#ffffff" /><path
                 class="st4"
                 d="m 185,156.7 c 0.1,0 0.2,0 0.2,0 l 0,0 c 0.3,0.1 0.5,0.4 0.5,0.8 0,0.5 -0.4,0.9 -0.8,0.9 l -12,0 c -0.1,0 -0.1,0 -0.2,0 l 0,0 c -0.3,-0.1 -0.6,-0.4 -0.6,-0.8 0,-0.5 0.4,-0.9 0.8,-0.9 l 12.1,0 0,0 z m 0,-1 -12,0 c -1,0 -1.8,0.8 -1.8,1.9 0,0.8 0.5,1.5 1.3,1.8 l 0,0 c 0,0 0,0 0.1,0 0.2,0 0.3,0.1 0.5,0.1 l 12,0 c 1,0 1.8,-0.8 1.8,-1.9 0,-0.8 -0.5,-1.5 -1.2,-1.8 l -0.1,0 c -0.3,-0.1 -0.5,-0.1 -0.6,-0.1 l 0,0 z"
                 id="path291"
                 inkscape:connector-curvature="0"
                 style="fill:#003b86" /></g></g></g></g></g></g></svg>