<?xml version="1.0" encoding="UTF-8" standalone="no"?>
<svg
   xmlns:dc="http://purl.org/dc/elements/1.1/"
   xmlns:cc="http://creativecommons.org/ns#"
   xmlns:rdf="http://www.w3.org/1999/02/22-rdf-syntax-ns#"
   xmlns:svg="http://www.w3.org/2000/svg"
   xmlns="http://www.w3.org/2000/svg"
   version="1.1"
   height="196.242"
   width="211.342"
   viewBox="0 0 211.342 196.242"
   id="Layer_1">
  <metadata
     id="metadata153">
    <rdf:RDF>
      <cc:Work
         rdf:about="">
        <dc:format>image/svg+xml</dc:format>
        <dc:type
           rdf:resource="http://purl.org/dc/dcmitype/StillImage" />
        <dc:title></dc:title>
      </cc:Work>
    </rdf:RDF>
  </metadata>
  <defs
     id="defs151" />
  <style
     id="style3">.st0{fill:url(#SVGID_1_)}.st1{fill:url(#SVGID_2_)}.st2{fill:none;stroke:#003b86;stroke-width:2.742;stroke-miterlimit:10}.st3{fill:#fff}.st4{fill:#003b86}</style>
  <g
     transform="translate(-6.429 -5.929)"
     id="Layer_2">
    <g
       id="g7">
      <g
         id="g9">
        <linearGradient
           gradientTransform="matrix(1,0,0,-1,0,206)"
           y2="199.74"
           x2="112.1"
           y1="3.184"
           x1="112.1"
           gradientUnits="userSpaceOnUse"
           id="SVGID_1_">
          <stop
             stop-color="#cdcdcd"
             id="stop12"
             offset="0" />
          <stop
             stop-color="#fafafa"
             id="stop14"
             offset=".364" />
          <stop
             stop-color="#ddd"
             id="stop16"
             offset="1" />
        </linearGradient>
        <path
           style="fill:url(#SVGID_1_)"
           id="path18"
           d="m 210.8,200.8 -197.4,0 c -3.1,0 -5.6,-2.5 -5.6,-5.6 l 0,-182.3 c 0,-3.1 2.5,-5.6 5.6,-5.6 l 197.4,0 c 3.1,0 5.6,2.5 5.6,5.6 l 0,182.3 c 0,3.1 -2.5,5.6 -5.6,5.6 z"
           class="st0" />
        <linearGradient
           gradientTransform="matrix(1,0,0,-1,0,206)"
           y2="116.675"
           x2="106.659"
           y1="-11.802"
           x1="120.083"
           gradientUnits="userSpaceOnUse"
           id="SVGID_2_">
          <stop
             stop-color="#e6e6e6"
             id="stop21"
             offset="0" />
          <stop
             stop-color="#ddd"
             id="stop23"
             offset=".533" />
          <stop
             stop-color="#d3d3d3"
             id="stop25"
             offset=".739" />
          <stop
             stop-color="silver"
             id="stop27"
             offset="1" />
        </linearGradient>
        <path
           style="fill:url(#SVGID_2_)"
           id="path29"
           d="m 7.8,117.7 0,77.5 c 0,3.1 2.5,5.6 5.6,5.6 l 197.4,0 c 3.1,0 5.6,-2.5 5.6,-5.6 l 0,-107.9 C 146.8,94.7 79.6,103.8 7.8,117.7 Z"
           class="st1" />
        <path
           style="fill:none;stroke:#003b86;stroke-width:2.7420001;stroke-miterlimit:10"
           stroke-miterlimit="10"
           id="path31"
           d="m 210.8,200.8 -197.4,0 c -3.1,0 -5.6,-2.5 -5.6,-5.6 l 0,-182.3 c 0,-3.1 2.5,-5.6 5.6,-5.6 l 197.4,0 c 3.1,0 5.6,2.5 5.6,5.6 l 0,182.3 c 0,3.1 -2.5,5.6 -5.6,5.6 z"
           class="st2" />
      </g>
      <g
         id="g33">
        <g
           id="g35">
          <g
             id="g37" />
          <g
             id="g43" />
          <g
             id="g49">
            <g
               id="g51" />
          </g>
          <g
             id="g57" />
        </g>
        <g
           transform="matrix(3,0,0,3,-224.2,-208.2)"
           id="g63">
          <g
             id="g65">
            <path
               style="fill:#ffffff"
               id="path67"
               d="m 118.5,92.6 -12.8,0 c -0.2,0 -0.3,-0.1 -0.4,-0.2 l -2.9,-3.8 C 102,88.1 102,87.5 102.2,87 c 0.2,-0.4 0.5,-0.6 0.9,-0.6 l 17.4,0 c 0.6,0 1.1,0.3 1.3,0.7 0.2,0.4 0.2,1 -0.1,1.4 l -2.9,3.8 c 0,0.2 -0.2,0.3 -0.3,0.3 z"
               class="st3" />
            <path
               style="fill:#003b86"
               id="path69"
               d="m 120.6,86.9 c 0.8,0 1.1,0.8 0.8,1.3 -1,1.3 -2.3,3.1 -2.9,3.8 -0.1,0 -0.3,-0.1 -0.4,-0.1 l -12,0 c -0.1,0 -0.3,0 -0.4,0.1 -0.6,-0.7 -1.8,-2.5 -2.9,-3.8 -0.4,-0.5 -0.3,-1.3 0.3,-1.3 l 17.5,0 z m 0,-1 -17.4,0 c -0.6,0 -1.1,0.3 -1.4,0.8 -0.3,0.6 -0.2,1.5 0.3,2.1 l 2,2.7 0.8,1.1 c 0.2,0.3 0.5,0.4 0.8,0.4 l 12.8,0 c 0.3,0 0.6,-0.1 0.8,-0.4 l 1.8,-2.4 1,-1.4 c 0.4,-0.6 0.5,-1.3 0.2,-1.9 -0.3,-0.6 -0.9,-1 -1.7,-1 z"
               class="st4" />
          </g>
          <g
             id="g71">
            <path
               style="fill:#ffffff"
               id="path73"
               d="m 112.1,121.7 c -10.1,0 -18.3,-6.3 -18.3,-14 0,-2.6 0.9,-5.1 2.7,-7.3 0.2,-0.2 0.4,-0.5 0.6,-0.7 2.1,-2.3 4.9,-4 8.3,-5 l 0.4,0 0.1,0.1 12.3,0 c 0.1,0 0.3,0 0.4,-0.1 l 0.4,0 c 3.3,1 6.2,2.8 8.3,5 1.1,1.2 1.9,2.5 2.5,3.9 0.5,1.3 0.8,2.7 0.8,4.1 -0.2,7.7 -8.4,14 -18.5,14 z"
               class="st3" />
            <path
               style="fill:#003b86"
               id="path75"
               d="m 105.5,95.1 c 0.1,0 0.1,0 0.2,0.1 l 0.1,0 c 0.1,0 0.3,0.1 0.4,0.1 l 12,0 c 0.2,0 0.4,-0.1 0.6,-0.1 3.2,1 6,2.7 8,4.9 1.1,1.2 1.9,2.4 2.4,3.7 0.5,1.3 0.8,2.6 0.8,4 0,7.5 -8,13.5 -17.8,13.5 -9.8,0 -17.8,-6.1 -17.8,-13.5 0,-2.5 0.9,-4.9 2.6,-7 0.2,-0.2 0.4,-0.5 0.6,-0.7 1.9,-2.3 4.6,-4 7.9,-5 z m 0,-1 -0.3,0 c -3.4,1 -6.4,2.8 -8.5,5.2 -0.2,0.2 -0.4,0.4 -0.6,0.8 -1.8,2.3 -2.8,4.9 -2.8,7.6 0,8 8.5,14.6 18.8,14.6 10.4,0 18.8,-6.5 18.8,-14.6 0,-1.5 -0.3,-2.9 -0.9,-4.3 -0.6,-1.4 -1.5,-2.8 -2.6,-4 -2.1,-2.3 -5.1,-4.1 -8.5,-5.2 l -0.3,0 c -0.1,0 -0.3,0 -0.4,0.1 -0.1,0 -0.1,0.1 -0.2,0.1 l -12.2,0 c 0,-0.3 -0.2,-0.3 -0.3,-0.3 z"
               class="st4" />
          </g>
          <g
             id="g77">
            <g
               id="g79">
              <path
                 style="fill:#003b86"
                 id="path81"
                 d="m 110.9,116.2 c -0.1,0 -0.3,-0.1 -0.3,-0.3 l 0,-0.9 c -3.8,-0.4 -6.5,-2.1 -6.5,-4.3 0,-0.1 0,-0.1 0.1,-0.2 0,0 0.1,-0.1 0.2,-0.1 l 2.8,0 c 0.1,0 0.3,0.1 0.3,0.3 0,0.6 1.2,1.4 3.2,1.7 l 0,-3.6 c -2.2,-0.2 -4.2,-0.9 -5.4,-2 -0.7,-0.7 -1.1,-1.5 -1.1,-2.3 0,-2.2 2.6,-4 6.4,-4.4 l 0,-0.8 c 0,-0.1 0,-0.1 0.1,-0.2 0,0 0.1,-0.1 0.2,-0.1 l 2.6,0 c 0.1,0 0.3,0.1 0.3,0.3 l 0,0.8 c 3.8,0.4 6.5,2.1 6.5,4.3 0,0.1 0,0.1 -0.1,0.2 0,0 -0.1,0.1 -0.2,0.1 l -2.8,0 c -0.1,0 -0.1,0 -0.2,-0.1 0,0 -0.1,-0.1 -0.1,-0.2 0,-0.6 -1.2,-1.4 -3.2,-1.7 l 0,3.6 c 1.7,0.2 3.3,0.6 4.4,1.3 1.3,0.8 2.1,1.8 2.1,3 0,2.2 -2.6,4 -6.4,4.4 l 0,0.9 c 0,0.1 0,0.1 -0.1,0.2 0,0 -0.1,0.1 -0.2,0.1 l -2.6,0 z m 2.8,-3.8 c 2,-0.3 3.2,-1.1 3.2,-1.7 0,-0.6 -1.2,-1.4 -3.2,-1.7 l 0,3.4 z m -3.2,-9.6 c -2,0.3 -3.2,1.1 -3.2,1.7 0,0.2 0.1,0.4 0.4,0.6 0.6,0.5 1.6,0.9 2.8,1 l 0,-3.3 z"
                 class="st4" />
              <path
                 style="fill:#003b86"
                 id="path83"
                 d="m 113.3,99.2 0,1.1 c 3.7,0.3 6.5,2 6.5,4.1 l -2.8,0 c 0,-0.8 -1.5,-1.7 -3.7,-2 l 0,4.1 c 1.8,0.1 3.4,0.6 4.6,1.3 1.2,0.7 1.9,1.7 1.9,2.8 0,2.1 -2.7,3.8 -6.4,4.2 l 0,1.2 -2.6,0 0,-1.2 c -3.7,-0.3 -6.5,-2 -6.5,-4.1 l 2.7,0 c 0,0.8 1.5,1.7 3.7,2 l 0,-4.1 c -2.3,-0.2 -4.3,-0.9 -5.4,-2 -0.7,-0.6 -1.1,-1.3 -1.1,-2.1 0,-2.1 2.7,-3.8 6.4,-4.2 l 0,-1.1 2.7,0 z m -2.5,7.2 0,-4 c -2.2,0.3 -3.7,1.2 -3.7,2 0,0.3 0.2,0.5 0.5,0.8 0.5,0.6 1.7,1.1 3.2,1.2 z m 2.6,6.3 c 2.2,-0.3 3.7,-1.2 3.7,-2 0,-0.8 -1.5,-1.7 -3.7,-2 l 0,4 z m -0.1,-14 -2.6,0 c -0.3,0 -0.5,0.2 -0.5,0.5 l 0,0.6 c -3.8,0.5 -6.5,2.4 -6.4,4.6 0,0.9 0.4,1.8 1.2,2.5 1.2,1.1 3.1,1.8 5.3,2 l 0,3 c -1.8,-0.3 -2.7,-1 -2.7,-1.4 0,-0.1 -0.1,-0.3 -0.2,-0.4 -0.1,-0.1 -0.2,-0.1 -0.4,-0.1 l -2.7,0 c -0.1,0 -0.3,0.1 -0.4,0.2 -0.1,0.1 -0.1,0.2 -0.1,0.4 0,2.3 2.7,4.1 6.5,4.5 l 0,0.7 c 0,0.1 0.1,0.3 0.2,0.4 0.1,0.1 0.2,0.1 0.4,0.1 l 2.6,0 c 0.1,0 0.3,-0.1 0.4,-0.2 0.1,-0.1 0.1,-0.2 0.1,-0.4 l 0,-0.7 c 3.8,-0.5 6.5,-2.4 6.4,-4.6 0,-1.2 -0.8,-2.4 -2.2,-3.2 -1.2,-0.7 -2.6,-1.2 -4.3,-1.3 l 0,-3 c 1.8,0.3 2.7,1 2.7,1.4 0,0.3 0.2,0.5 0.5,0.5 l 2.8,0 c 0.3,0 0.5,-0.2 0.5,-0.5 0,-2.3 -2.7,-4.1 -6.5,-4.5 l 0,-0.6 c 0,-0.2 -0.3,-0.5 -0.6,-0.5 z m -3,7.2 c -1,-0.2 -1.9,-0.5 -2.4,-0.9 -0.2,-0.2 -0.3,-0.3 -0.3,-0.4 0,-0.4 0.9,-1.1 2.7,-1.4 l 0,2.7 z m 3.7,6.2 0,-2.8 c 1.8,0.3 2.7,1 2.7,1.4 -0.1,0.3 -1,1 -2.7,1.4 z"
                 class="st4" />
            </g>
          </g>
          <g
             id="g85">
            <path
               style="fill:#ffffff"
               id="path87"
               d="m 106.1,95 c -0.1,0 -0.2,0 -0.3,-0.1 -0.6,-0.2 -1,-0.7 -1,-1.3 0,-0.8 0.6,-1.4 1.3,-1.4 l 12,0 c 0.1,0 0.3,0 0.4,0.1 0.6,0.2 0.9,0.7 0.9,1.3 0,0.8 -0.6,1.4 -1.3,1.4 l -12,0 z"
               class="st3" />
            <path
               style="fill:#003b86"
               id="path89"
               d="m 118.1,92.8 0.2,0 c 0.3,0.1 0.5,0.4 0.5,0.8 0,0.5 -0.4,0.8 -0.8,0.8 l -12.2,0 c -0.3,-0.1 -0.6,-0.4 -0.6,-0.8 0,-0.5 0.4,-0.9 0.8,-0.9 l 12.1,0.1 z m 0,-1.1 -12,0 c -1,0 -1.8,0.8 -1.8,1.9 0,0.8 0.5,1.5 1.3,1.8 l 0.1,0 c 0.2,0 0.3,0.1 0.5,0.1 l 12,0 c 1,0 1.8,-0.8 1.8,-1.9 0,-0.8 -0.5,-1.5 -1.2,-1.8 l -0.1,0 c -0.3,0 -0.4,-0.1 -0.6,-0.1 z"
               class="st4" />
          </g>
        </g>
        <g
           id="g91">
          <g
             id="g93" />
          <g
             id="g99" />
          <g
             id="g105">
            <g
               id="g107" />
          </g>
          <g
             id="g113" />
        </g>
      </g>
      <g
         id="g119">
        <g
           id="g121">
          <g
             id="g123">
            <g
               id="g125" />
            <g
               id="g131" />
            <g
               id="g137">
              <g
                 id="g139" />
            </g>
            <g
               id="g145" />
          </g>
          <g
             id="g151">
            <g
               id="g153" />
            <g
               id="g159" />
            <g
               id="g165">
              <g
                 id="g167" />
            </g>
            <g
               id="g173" />
          </g>
          <g
             id="g179">
            <g
               id="g181" />
            <g
               id="g187" />
            <g
               id="g193">
              <g
                 id="g195" />
            </g>
            <g
               id="g201" />
          </g>
        </g>
        <g
           id="g207">
          <g
             id="g209">
            <g
               id="g211" />
            <g
               id="g217" />
            <g
               id="g223">
              <g
                 id="g225" />
            </g>
            <g
               id="g231" />
          </g>
          <g
             id="g237">
            <g
               id="g239" />
            <g
               id="g245" />
            <g
               id="g251">
              <g
                 id="g253" />
            </g>
            <g
               id="g259" />
          </g>
          <g
             id="g265">
            <g
               id="g267" />
            <g
               id="g273" />
            <g
               id="g279">
              <g
                 id="g281" />
            </g>
            <g
               id="g287" />
          </g>
        </g>
      </g>
    </g>
  </g>
</svg>
